<svg xmlns="http://www.w3.org/2000/svg" xmlns:xlink="http://www.w3.org/1999/xlink" viewBox="0 0 124.706 124.706">
  <defs>
    <style>
      .cls-1 {
        fill: #fff;
      }

      .cls-2, .cls-3 {
        fill: #a9001d;
      }

      .cls-2, .cls-6 {
        opacity: 0.1;
      }

      .cls-4 {
        fill: url(#linear-gradient);
      }

      .cls-5 {
        fill: #4c4981;
      }

      .cls-7 {
        fill: #ae6e79;
      }

      .cls-8 {
        fill: #444053;
      }

      .cls-9 {
        filter: url(#Ellipse_4);
      }
    </style>
    <filter id="Ellipse_4" x="0" y="0" width="124.706" height="124.706" filterUnits="userSpaceOnUse">
      <feOffset dy="3" input="SourceAlpha"/>
      <feGaussianBlur stdDeviation="3" result="blur"/>
      <feFlood flood-opacity="0.161"/>
      <feComposite operator="in" in2="blur"/>
      <feComposite in="SourceGraphic"/>
    </filter>
    <linearGradient id="linear-gradient" x1="0.5" y1="1" x2="0.5" gradientUnits="objectBoundingBox">
      <stop offset="0" stop-color="gray" stop-opacity="0.251"/>
      <stop offset="0.54" stop-color="gray" stop-opacity="0.122"/>
      <stop offset="1" stop-color="gray" stop-opacity="0.102"/>
    </linearGradient>
  </defs>
  <g id="Group_130" data-name="Group 130" transform="translate(-584.656 -1310)">
    <g class="cls-9" transform="matrix(1, 0, 0, 1, 584.66, 1310)">
      <circle id="Ellipse_4-2" data-name="Ellipse 4" class="cls-1" cx="53.353" cy="53.353" r="53.353" transform="translate(9 6)"/>
    </g>
    <g id="Group_68" data-name="Group 68" transform="translate(606.461 1335.207)">
      <g id="undraw_questions_75e0" transform="translate(0 0)">
        <ellipse id="Ellipse_60" data-name="Ellipse 60" class="cls-2" cx="8.291" cy="0.817" rx="8.291" ry="0.817" transform="translate(49.391 66.014)"/>
        <path id="Path_301" data-name="Path 301" class="cls-2" d="M133.578,37.1c3.652-1.357,8.1-.19,11.894,1.513,11.924,5.349,20.611,15.5,27.512,25.846,2.5,3.746,4.873,7.656,5.812,11.837A17.843,17.843,0,0,1,167.235,96.7,34.72,34.72,0,0,1,158,98.424,49.133,49.133,0,0,1,140.914,97.1a54.142,54.142,0,0,1-11.4-4.964C119.4,86.514,110.159,79.216,103.5,70.3c-2.918-3.91-5.387-8.319-5.459-12.831s2.869-9.046,7.707-9.813a19.714,19.714,0,0,1,6.18.352,39.359,39.359,0,0,0,9.123.808c3.1-.227,7.14-1.44,7.706-4.4C129.361,41.233,129.931,38.454,133.578,37.1Z" transform="translate(-98.044 -36.109)"/>
        <path id="Path_302" data-name="Path 302" class="cls-3" d="M341.219,800.362s3.9-.235,3.441,2.5a.666.666,0,0,1-.347.7s-.006-.2-.4-.134a1.762,1.762,0,0,1-.424.021.884.884,0,0,1-.518-.214h0a3.094,3.094,0,0,1-1.523-2.246s-.316-.391-.3-.492l.658.281a1.182,1.182,0,0,0-.048.87s.021-.852.148-.833c.025,0,.342.162.342.162a1.946,1.946,0,0,0-.1,1.429s-.111-1.019.216-1.369l.464.271a2.043,2.043,0,0,0-.146,1.551,2.89,2.89,0,0,1,.243-1.486l.42.323a2,2,0,0,0-.166,1.421s.033-1.246.256-1.34a2.525,2.525,0,0,1,.424.458s-.291.611-.111.934c0,0,.111-.829.2-.834a2.772,2.772,0,0,1,.4.926,2,2,0,0,0-.316-.979,1.1,1.1,0,0,1,.561.29s-.057-.389-.651-.423a2.55,2.55,0,0,0-.384-.442,2.4,2.4,0,0,1,.949.11,1.066,1.066,0,0,0-1.057-.2l-.415-.338a3.412,3.412,0,0,1,1.108.011,1.35,1.35,0,0,0-1.219-.088l-.451-.27a4.087,4.087,0,0,1,1.058-.091,1.625,1.625,0,0,0-1.191.019l-.323-.145s.485-.1.628-.111.15-.054.15-.054a1.683,1.683,0,0,0-.913.1A3.75,3.75,0,0,1,341.219,800.362Z" transform="translate(-321.492 -738.208)"/>
        <ellipse id="Ellipse_61" data-name="Ellipse 61" class="cls-2" cx="2.762" cy="0.466" rx="2.762" ry="0.466" transform="translate(19.653 65.128)"/>
        <path id="Path_303" data-name="Path 303" class="cls-3" d="M276.921,777.638s2.2-.133,1.94,1.409a.374.374,0,0,1-.195.4s0-.114-.226-.075a.988.988,0,0,1-.238.011.49.49,0,0,1-.293-.12h0a1.754,1.754,0,0,1-.86-1.267s-.178-.221-.171-.277l.372.162a.668.668,0,0,0-.027.491s.012-.481.081-.47c.015,0,.193.093.193.093a1.1,1.1,0,0,0-.053.808s-.063-.575.121-.772l.261.153a1.155,1.155,0,0,0-.081.875,1.642,1.642,0,0,1,.137-.838l.237.184a1.11,1.11,0,0,0-.093.8s.019-.7.145-.755a1.442,1.442,0,0,1,.239.258s-.162.344-.062.526c0,0,.062-.467.114-.47a1.545,1.545,0,0,1,.227.522,1.132,1.132,0,0,0-.178-.552.616.616,0,0,1,.316.162s-.032-.219-.367-.239a1.428,1.428,0,0,0-.216-.249,1.352,1.352,0,0,1,.535.061.6.6,0,0,0-.6-.113l-.234-.191a1.937,1.937,0,0,1,.625.006.761.761,0,0,0-.688-.049l-.254-.153a2.31,2.31,0,0,1,.6-.051.913.913,0,0,0-.671.01l-.182-.081s.274-.054.354-.062.085-.031.085-.031a.955.955,0,0,0-.515.057A2.127,2.127,0,0,1,276.921,777.638Z" transform="translate(-262.42 -717.323)"/>
        <ellipse id="Ellipse_62" data-name="Ellipse 62" class="cls-2" cx="1.557" cy="0.264" rx="1.557" ry="0.264" transform="translate(14.459 61.99)"/>
        <path id="Path_304" data-name="Path 304" class="cls-3" d="M946.266,795.96s2.656-.162,2.344,1.7a.456.456,0,0,1-.236.479s0-.138-.272-.091a1.2,1.2,0,0,1-.289.014.594.594,0,0,1-.352-.146h0a2.106,2.106,0,0,1-1.037-1.529s-.215-.266-.206-.334l.448.191a.805.805,0,0,0-.032.592s.015-.58.1-.566c.018,0,.233.112.233.112a1.322,1.322,0,0,0-.065.97s-.075-.694.147-.931l.315.184a1.391,1.391,0,0,0-.1,1.057,2,2,0,0,1,.162-1.011l.286.223a1.369,1.369,0,0,0-.113.97s.023-.847.175-.912a1.739,1.739,0,0,1,.288.311s-.2.416-.075.636c0,0,.075-.566.137-.566a1.88,1.88,0,0,1,.275.631,1.361,1.361,0,0,0-.214-.666.75.75,0,0,1,.382.2s-.039-.264-.444-.288a1.72,1.72,0,0,0-.26-.3,1.635,1.635,0,0,1,.647.074.728.728,0,0,0-.72-.136l-.282-.23a2.33,2.33,0,0,1,.754.007.918.918,0,0,0-.83-.06l-.307-.184a2.8,2.8,0,0,1,.72-.062,1.1,1.1,0,0,0-.808.013l-.22-.1s.331-.066.428-.075.1-.037.1-.037a1.15,1.15,0,0,0-.621.069A2.7,2.7,0,0,1,946.266,795.96Z" transform="translate(-877.647 -734.163)"/>
        <ellipse id="Ellipse_63" data-name="Ellipse 63" class="cls-2" cx="1.88" cy="0.318" rx="1.88" ry="0.318" transform="translate(68.568 63.821)"/>
        <path id="Path_305" data-name="Path 305" class="cls-4" d="M695.545,407.809a5.767,5.767,0,0,1-.088-.862c0-.347-.471-.654-.471-.654s-.291-.673-.485-.773a5.939,5.939,0,0,1-.793-.981.8.8,0,0,0-.18-.475,6.823,6.823,0,0,1-.491-.741c-.081-.1-.04-.168-.162-.743-.006-.03-.014-.059-.023-.086a.114.114,0,0,0-.013-.037.97.97,0,0,0,.229-1,.4.4,0,0,0-.115-.178c-.137-.112-.355-.065-.5-.171l.15-.661c.036-.162.054-.366-.087-.454a.737.737,0,0,0-.167-.056.785.785,0,0,1-.446-.584,2,2,0,0,1-.049-.728c.027-.234.1-.462.121-.7a1.916,1.916,0,0,0-.3-1.24.954.954,0,0,0-.392-.37c-.15-.067-.323-.081-.463-.162-.3-.192-.285-.647-.525-.908a1.038,1.038,0,0,0-1.016-.171,3.065,3.065,0,0,1-1.057.2c-.231-.026-.448-.131-.68-.155a.717.717,0,0,0-.2.009v-.007a.432.432,0,0,0-.37.289.443.443,0,0,0-.011.118c0,.095.023.193.024.284a.27.27,0,0,1-.065.2c-.046.049-.114.075-.162.126a.2.2,0,0,0-.059.149c0,.144.18.271.3.329h0c-.032.032-.065.066-.095.1a2.13,2.13,0,0,0-.535,1.414A2.158,2.158,0,0,0,687.7,400.1l-.017.053a3,3,0,0,1-.119.306.606.606,0,0,0-.508.057,1.282,1.282,0,0,1-.8.119,10.906,10.906,0,0,0-1.475-.149c-.1.04-.3-.138-.431.1s-.191.366-.323.426-.361.247-.331.287-.331.277-.331.277a1.648,1.648,0,0,1-.492.366,2.888,2.888,0,0,0-.562.288l-.442.346s-.331.05-.23-.178-.181-.515-.181-.515a8.172,8.172,0,0,1-.562-1.374,6.993,6.993,0,0,0-.462-1.238l-.057-.006-.026-.074c-.085-.239-.195-.531-.279-.7-.162-.327-.261-.361-.261-.361s-1.947-1.462-3.211-1.016,2.308,1.773,2.629,1.912a.607.607,0,0,1,.25.389,1.663,1.663,0,0,0-.691.622,13.219,13.219,0,0,1,.793,2.139,8.223,8.223,0,0,0,.532,1.617,1.127,1.127,0,0,0,1.224.832s1.425.262,1.737,0a2.463,2.463,0,0,1,.743-.5.586.586,0,0,0,.281-.2,21.21,21.21,0,0,1-.7,3.229c-.231.258-2.274,3.594-1.541,4.19a14.644,14.644,0,0,0,1.836,1.213c.062.031.249-.281.516-.5v.172a12.788,12.788,0,0,0,.378,3.4,3.761,3.761,0,0,1,.191,1.743,1.374,1.374,0,0,0,.542.13c.01.039.021.081.031.121a16.168,16.168,0,0,0,.61,1.977,8.04,8.04,0,0,1,.381,1.734,12.044,12.044,0,0,1,.081,1.475,8.677,8.677,0,0,0,.2,1.294h0c-.081.929-.234,2.72-.26,3.367h0v.047a.187.187,0,0,1,0,.022v.04h0a.6.6,0,0,0,0,.122.4.4,0,0,1-.014.184,3.222,3.222,0,0,1-.218.519,2.487,2.487,0,0,0-.1.251.453.453,0,0,0-.234.333c-.1.386-.251,1.455-.251,1.455a2.634,2.634,0,0,1-.18.8.828.828,0,0,0,.612,1.2,1.236,1.236,0,0,0,1.224-.453l-.03-2.594v0a.393.393,0,0,0,.044-.07v-.007c.006-.012.012-.025.018-.04l.007-.019.013-.032a.058.058,0,0,1,0-.011,1.712,1.712,0,0,0,.073-.772v-.109a.32.32,0,0,1,0-.053v-.01l0-.032v-.014a.059.059,0,0,1,.007-.032.024.024,0,0,1,0-.008c.008-.037.018-.081.028-.116v-.009l.012-.039h0c.012-.041.026-.081.04-.125v-.008a.114.114,0,0,1,.014-.038v0c.015-.04.03-.081.044-.115l0-.01.013-.032,0-.01.031-.072h0l.237.732a1.849,1.849,0,0,1,.061.673c-.07.129.081.664.18.673l-.093.673a10.29,10.29,0,0,0-.09,1.12c-.007.043-.013.081-.018.107a2.428,2.428,0,0,0,.091.88,1.183,1.183,0,0,0,1.737.073s.11-.5,0-.594-.061-.456-.061-.456.05-.882.06-1.526a2.016,2.016,0,0,0-.526-1.213l-.03.027a1.9,1.9,0,0,1-.186-.678c.04-.228-.111-2.635-.111-2.635a14.286,14.286,0,0,0,.036-1.94h0c.013-.109.025-.217.037-.323.061-.517.11-.96.129-1.192h0v-.027c0-.062.007-.107.007-.128,0-.081,0-.173.008-.274.018-.278.062-.588.062-.588l.21-1.278a3.994,3.994,0,0,1,.392-.97l.028-.044h0l.027-.05,0-.007c.009-.017.018-.035.027-.053l0-.007c.032-.064.067-.137.1-.218,0-.006.006-.012.008-.019l.028-.061a.062.062,0,0,1,.011-.024c0-.008.017-.041.026-.061a.239.239,0,0,0,.011-.025c.011-.024.022-.049.032-.075l.015-.037c.007-.019.015-.037.023-.056l.019-.049c.006-.012.011-.024.015-.036l.022-.056c0-.008.007-.017.011-.025.057-.143.112-.285.162-.413h0l.044-.116c.514.032.863.06.863.06a11.853,11.853,0,0,0,.11-1.921,7.133,7.133,0,0,1,.127-1.536c.007-.04.014-.075.02-.107l.014.011c.251.2.432-.456.432-.456s-.068-.61-.162-1.35l-.01-.074a3.809,3.809,0,0,0,.439.067s.081-.007.192-.021a5.3,5.3,0,0,0,.965.437l.534-.986a4,4,0,0,1,.352-.585,5.331,5.331,0,0,0,.723-.951,3.341,3.341,0,0,1,.391-1.11A2.453,2.453,0,0,0,695.545,407.809Zm-2.228.753c-.211.089-.412.585-.421.733s-.231.8-.462.881a3.078,3.078,0,0,0-.683.506c-.066.006-.141.015-.22.027a7.706,7.706,0,0,0-.231-1.247c-.162-.3.177-1.248.177-1.248a3.021,3.021,0,0,1,.243-1.188c.209-.228.162-.8.162-.8s.05-.238.07-.346.3,0,.3,0h0a1.316,1.316,0,0,1,.623.742,4.259,4.259,0,0,0,.673,1.218s-.091.268,0,.4S693.528,408.472,693.317,408.561Z" transform="translate(-629.572 -365.638)"/>
        <path id="Path_306" data-name="Path 306" class="cls-5" d="M707,448.977a1.617,1.617,0,0,1,1.617-.762v1.157h-.7l-.55-.139Z" transform="translate(-657.769 -414.519)"/>
        <path id="Path_307" data-name="Path 307" class="cls-6" d="M707,448.977a1.617,1.617,0,0,1,1.617-.762v1.157h-.7l-.55-.139Z" transform="translate(-657.769 -414.519)"/>
        <path id="Path_308" data-name="Path 308" class="cls-7" d="M681.14,423.251l-.861.6s-.007-.12-.029-.285c-.043-.312-.139-.78-.347-.871-.316-.139-3.835-1.463-2.587-1.909s3.163,1.015,3.163,1.015.1.034.256.36c.081.171.192.463.275.7C681.088,423.08,681.14,423.251,681.14,423.251Z" transform="translate(-630.24 -389.248)"/>
        <path id="Path_309" data-name="Path 309" class="cls-5" d="M712.015,431.556l.1-.046.275.314-.225.479-.383-.154.089-.383Z" transform="translate(-654.237 -396.625)"/>
        <path id="Path_310" data-name="Path 310" class="cls-8" d="M786.9,810.994s-.247-.029-.346.356-.247,1.455-.247,1.455a2.628,2.628,0,0,1-.178.8.829.829,0,0,0,.6,1.2,1.216,1.216,0,0,0,1.206-.452l-.03-2.593Z" transform="translate(-730.426 -747.985)"/>
        <path id="Path_311" data-name="Path 311" class="cls-8" d="M818.146,812.44a2.012,2.012,0,0,1,.519,1.208c-.01.642-.06,1.522-.06,1.522s-.049.357.06.455,0,.593,0,.593a1.155,1.155,0,0,1-1.711-.073,2.471,2.471,0,0,1-.089-.879c.063-.344.239-1.893.239-1.893Z" transform="translate(-758.739 -749.314)"/>
        <path id="Path_312" data-name="Path 312" class="cls-7" d="M793.462,660.024a16.519,16.519,0,0,1-.761,1.838,3.955,3.955,0,0,0-.385.97l-.208,1.275a7.108,7.108,0,0,0-.07.86c.01.287-.514,4.468-.514,4.468l-.83,1.058a2.714,2.714,0,0,0-.306,1.051,1.526,1.526,0,0,1-.162.949s-.019.97-.049,1.186.109.831,0,.939-1.562.06-1.6-.119a5.272,5.272,0,0,1,.178-1.038l.128-.83s.257-.454.2-.6.108-.494.118-.524.277-.514.228-.7.311-4.176.311-4.176l1.018-7.147Z" transform="translate(-732.745 -608.72)"/>
        <path id="Path_313" data-name="Path 313" class="cls-6" d="M793.462,660.043s-.081.225-.192.52a10.073,10.073,0,0,1-.57,1.319,4.007,4.007,0,0,0-.386.97l-.208,1.276a7.182,7.182,0,0,0-.069.86c0,.113-.076.835-.173,1.667-.15,1.272-.341,2.8-.341,2.8l-.83,1.058s-.042.081-.095.209a1.941,1.941,0,0,0-.212.839,1.531,1.531,0,0,1-.162.949s-.02.97-.049,1.186.109.83,0,.939-1.562.06-1.6-.118a5.284,5.284,0,0,1,.178-1.038l.128-.831s.257-.454.2-.6.109-.494.119-.524.277-.514.228-.7c-.038-.143.162-2.485.255-3.6.031-.349.052-.576.052-.576l.876-6.149.071-.5.071-.5Z" transform="translate(-732.745 -608.739)"/>
        <path id="Path_314" data-name="Path 314" class="cls-7" d="M789.273,680.478a3.491,3.491,0,0,1-1.6.149c-.2-.119,0-1.592,0-1.592l.091-.672c-.1-.011-.247-.544-.178-.673a1.882,1.882,0,0,0-.059-.672l-.233-.728-.142-.445a19.77,19.77,0,0,1-.774-3.052,8.83,8.83,0,0,1-.2-1.289,12.21,12.21,0,0,0-.081-1.473,8.365,8.365,0,0,0-.375-1.73,16.31,16.31,0,0,1-.6-1.973c-.089-.342-.15-.588-.15-.588s1.494-.125,2.4-.169c.416-.02.709-.023.675.011a1.229,1.229,0,0,0-.041.477,12.463,12.463,0,0,0,.2,2.193,7.573,7.573,0,0,1,.217,1.908,6.01,6.01,0,0,0-.04.989,4.448,4.448,0,0,1,.175,1.073,14.507,14.507,0,0,1-.034,1.931s.148,2.4.108,2.63.316.94.316,1.078.1,1.078.1,1.078S789.266,680.37,789.273,680.478Z" transform="translate(-729.445 -614.306)"/>
        <path id="Path_315" data-name="Path 315" class="cls-7" d="M805.578,445.339l-.17.184-.111.12-.647.7-1.671.188-.889-.238-.22-.059s0-.446.04-.981c.057-.686.192-1.52.514-1.747a1.285,1.285,0,0,0,.376-.476,2.676,2.676,0,0,0,.162-.4c.007-.018.011-.035.017-.053a4.463,4.463,0,0,0,.157-.733s.213-.118.51-.255c.774-.361,2.11-.86,1.645.255a4.333,4.333,0,0,0-.175.5c-.007.025-.014.05-.019.074a1.623,1.623,0,0,0,.063,1.205h0a.757.757,0,0,0,.067.1.54.54,0,0,0,.112.114l.192,1.221.016.1Z" transform="translate(-744.97 -408.044)"/>
        <path id="Path_316" data-name="Path 316" class="cls-6" d="M817.709,442.576c-.088.212.043-.173,0,0-.352.251-1.183.964-1.649.964a1.3,1.3,0,0,1-.68-.179,4.413,4.413,0,0,0,.174-.785S818.352,441.033,817.709,442.576Z" transform="translate(-757.387 -408.721)"/>
        <path id="Path_317" data-name="Path 317" class="cls-7" d="M803.991,409.8a2.157,2.157,0,0,1-1.93,2.143c-.074.007-.15.012-.226.012a2.155,2.155,0,1,1,2.155-2.155Z" transform="translate(-742.957 -377.24)"/>
        <path id="Path_318" data-name="Path 318" class="cls-6" d="M796.125,491.871l-.307.8s-.25.01-.64.023c-1.315.042-4.214.1-4.343-.243a.861.861,0,0,1-.045-.266,5.211,5.211,0,0,1,.223-1.306s.138-1.582.138-1.651-.119-1.177-.119-1.177l.238-.889.662-.465s.3.455.475.494a1.234,1.234,0,0,1,.416.258s.583.356.771.158,1.651-1.068,1.651-1.068l.771.851Z" transform="translate(-734.785 -449.761)"/>
        <path id="Path_319" data-name="Path 319" class="cls-1" d="M796.153,493.391l-.307.8s-.25.011-.64.023h-.038c-.168.006-.36.011-.566.015a24.347,24.347,0,0,1-3.238-.081c-.283-.04-.468-.1-.5-.178a.716.716,0,0,1-.036-.147c0-.037-.008-.081-.01-.119a5.207,5.207,0,0,1,.223-1.306s.138-1.582.138-1.651-.119-1.177-.119-1.177l.238-.889.455-.318.207-.146a3.1,3.1,0,0,0,.227.3.606.606,0,0,0,.247.195,1.237,1.237,0,0,1,.416.258s.583.356.771.158a15,15,0,0,1,1.443-.943c.126-.077.208-.125.208-.125l.1.115.668.736Z" transform="translate(-734.813 -451.158)"/>
        <path id="Path_320" data-name="Path 320" class="cls-6" d="M717.53,447.816l-.861.6s-.007-.12-.029-.285a1.742,1.742,0,0,0,.758-.7C717.478,447.645,717.53,447.816,717.53,447.816Z" transform="translate(-666.63 -413.813)"/>
        <path id="Path_321" data-name="Path 321" class="cls-5" d="M711.639,450.763l-.188-.05a1.63,1.63,0,0,1-.485.366,2.83,2.83,0,0,0-.553.286l-.436.346s-.323.05-.227-.178-.178-.514-.178-.514a8.153,8.153,0,0,1-.554-1.374,6.911,6.911,0,0,0-.458-1.235,1.415,1.415,0,0,1-1.622.762,13.254,13.254,0,0,1,.781,2.135,8.207,8.207,0,0,0,.524,1.611,1.116,1.116,0,0,0,1.206.831s1.4.261,1.711,0a2.479,2.479,0,0,1,.728-.5.6.6,0,0,0,.276-.2V451.88Z" transform="translate(-657.714 -414.714)"/>
        <path id="Path_322" data-name="Path 322" class="cls-6" d="M743.3,491.33s.247.92.089,1.019Z" transform="translate(-691.135 -454.164)"/>
        <path id="Path_323" data-name="Path 323" class="cls-6" d="M795.188,558.359c-1.315.042-4.214.095-4.343-.242a.86.86,0,0,1-.045-.266l4.3.226Z" transform="translate(-734.795 -515.306)"/>
        <path id="Path_324" data-name="Path 324" class="cls-6" d="M790.181,660.024s-.081.225-.192.52c-.546-.033-1.268-.068-1.955-.073-.243,0-.48,0-.7.008a5.32,5.32,0,0,0-1.152.128,3.053,3.053,0,0,1-1.027.133c-.089-.342-.15-.588-.15-.588s1.494-.125,2.4-.169l.071-.5Z" transform="translate(-729.464 -608.72)"/>
        <path id="Path_325" data-name="Path 325" class="cls-8" d="M780.243,564.214l-.168.356s-.023.106-.053.274a7,7,0,0,0-.125,1.536,12.155,12.155,0,0,1-.109,1.918,23.449,23.449,0,0,0-4.705,0,2.157,2.157,0,0,1-1.593,0,3.823,3.823,0,0,0-.187-1.74,12.873,12.873,0,0,1-.373-3.4,2.991,2.991,0,0,1,.1-1.046,31.236,31.236,0,0,0,1.146-2.936l.212.011.566.03,3.218.17.505.027.053.162Z" transform="translate(-718.369 -516.529)"/>
        <path id="Path_326" data-name="Path 326" class="cls-5" d="M866.309,590.758l.03.317s-1.594-.519-1.513-1.157,0-.566,0-.566l1.281.108Z" transform="translate(-802.833 -544.26)"/>
        <path id="Path_327" data-name="Path 327" class="cls-6" d="M866.309,590.758l.03.317s-1.594-.519-1.513-1.157,0-.566,0-.566l1.281.108Z" transform="translate(-802.833 -544.26)"/>
        <path id="Path_328" data-name="Path 328" class="cls-6" d="M753.7,491.567a1.421,1.421,0,0,0,.561.292.365.365,0,0,1-.162-.081c-.114-.081-.222-.169-.332-.255a1.047,1.047,0,0,0-.309-.213A1.7,1.7,0,0,0,753.7,491.567Z" transform="translate(-700.473 -454.146)"/>
        <path id="Path_329" data-name="Path 329" class="cls-6" d="M751.762,495.149a.714.714,0,0,1,.123.195,1.179,1.179,0,0,1-.009.612l-.255-.616c-.044-.105-.089-.21-.142-.31-.023-.043-.17-.222-.154-.259C751.37,494.666,751.714,495.09,751.762,495.149Z" transform="translate(-698.509 -457.311)"/>
        <path id="Path_330" data-name="Path 330" class="cls-6" d="M833.284,539.367a.823.823,0,0,0,.465-.217c-.263.033-.512.137-.77.191a1.145,1.145,0,0,1-.718-.066A1.766,1.766,0,0,0,833.284,539.367Z" transform="translate(-772.903 -498.118)"/>
        <path id="Path_331" data-name="Path 331" class="cls-6" d="M821.079,510.562a.18.18,0,0,1-.133-.033q-.3-.17-.584-.354a3.877,3.877,0,0,1-.572-.395A2.907,2.907,0,0,0,821.079,510.562Z" transform="translate(-761.441 -471.122)"/>
        <path id="Path_332" data-name="Path 332" class="cls-6" d="M836.4,543.169a1.229,1.229,0,0,0,.309-.025.414.414,0,0,0,.254-.167.145.145,0,0,0-.107.017,1.814,1.814,0,0,1-.993.119A1.433,1.433,0,0,0,836.4,543.169Z" transform="translate(-776.212 -501.633)"/>
        <path id="Path_333" data-name="Path 333" class="cls-6" d="M790.741,601.2a3.249,3.249,0,0,1-.631.124,3.8,3.8,0,0,1-.5-.01l-.808-.051-.4-.026c-.048,0-.243,0-.146-.1.049-.047.318-.017.388-.019q.2-.006.4-.007c.267,0,.536,0,.8.016C790.146,601.141,790.442,601.163,790.741,601.2Z" transform="translate(-732.427 -555.069)"/>
        <path id="Path_334" data-name="Path 334" class="cls-6" d="M786.7,606.265a3.254,3.254,0,0,0-.456.094,3.038,3.038,0,0,1-.477.019,2.661,2.661,0,0,1-.919-.188C785.467,606.221,786.085,606.24,786.7,606.265Z" transform="translate(-729.326 -559.738)"/>
        <path id="Path_335" data-name="Path 335" class="cls-6" d="M783.14,612.066a1.332,1.332,0,0,1,.176.049,2.069,2.069,0,0,0,1.051-.074.616.616,0,0,1-.4.221,1.847,1.847,0,0,1-.776.028c-.081-.016-.284-.045-.323-.129C782.8,612.037,783.064,612.054,783.14,612.066Z" transform="translate(-727.495 -565.115)"/>
        <path id="Path_336" data-name="Path 336" class="cls-6" d="M804.219,618.228a2.614,2.614,0,0,1,.3.081,2.557,2.557,0,0,0,1.168-.124,5.436,5.436,0,0,1,1.414-.131,1.4,1.4,0,0,0-.3.1c-.109.033-.22.064-.331.091-.218.053-.438.1-.661.129a6.8,6.8,0,0,1-1.356.059,1.964,1.964,0,0,1-.743-.094A.818.818,0,0,1,804.219,618.228Z" transform="translate(-746.661 -570.64)"/>
        <path id="Path_337" data-name="Path 337" class="cls-6" d="M776.072,464.2a5.218,5.218,0,0,1-.129,1.326c-.047.129-.12.368-.2.636-.087.3-.181.629-.254.889l-.121.435s-.334,2.72-.42,4.016a.318.318,0,0,1,0,.068c0,.073-.013.149-.025.227a7.272,7.272,0,0,1-1.675,3.43,1.11,1.11,0,0,0-.314.216,3,3,0,0,1,.1-1.046,31.205,31.205,0,0,0,1.146-2.936l.212.011c0-.037-.008-.081-.01-.119a5.21,5.21,0,0,1,.223-1.306s.138-1.582.138-1.651-.119-1.177-.119-1.177l.238-.889.455-.319c.057-.686.191-1.52.514-1.747a1.284,1.284,0,0,0,.376-.476c.064.009-.053-.048-.053-.048Z" transform="translate(-718.369 -428.805)"/>
        <path id="Path_338" data-name="Path 338" class="cls-5" d="M748.183,462.76a.589.589,0,0,0-.5.057,1.251,1.251,0,0,1-.792.119,10.731,10.731,0,0,0-1.455-.149c-.1.04-.3-.138-.425.1s-.187.365-.316.424-.357.247-.323.287-.323.277-.323.277l.721,2.344a21.483,21.483,0,0,1-.692,3.222c-.227.257-2.244,3.589-1.522,4.182a14.377,14.377,0,0,0,1.809,1.213c.081.04.365-.494.761-.662a7.178,7.178,0,0,0,1.7-3.658c.076-1.265.425-4.083.425-4.083s.425-1.542.573-1.958a5.224,5.224,0,0,0,.128-1.326Z" transform="translate(-690.307 -427.875)"/>
        <path id="Path_339" data-name="Path 339" class="cls-6" d="M839.483,484.514l-.168.356s-.023.106-.053.274a.151.151,0,0,1-.081-.036,5.589,5.589,0,0,1-1.77-3.016c-.051-.977-.027-1.82-.01-2.195,0-.118.01-.189.01-.2h0s1.127-1.365,1-1.848-.425-3.072-.425-3.072l-.044-.34-.075-.574-.179-1.389.186.044a.533.533,0,0,0,.112.114l.192,1.222.668.736.109,4.479-.307.8s-.25.011-.639.023h-.038Z" transform="translate(-777.609 -436.829)"/>
        <path id="Path_340" data-name="Path 340" class="cls-5" d="M841.336,476.45s-.276-.109-.3,0-.07.345-.07.345.049.574-.162.8a2.981,2.981,0,0,0-.243,1.186s-.333.949-.175,1.246a7.983,7.983,0,0,1,.235,1.293c.057.4.112.848.162,1.254.09.737.157,1.348.157,1.348s-.179.652-.426.454a5.583,5.583,0,0,1-1.769-3.015c-.049-.93-.029-1.739-.013-2.138.006-.169.013-.264.013-.264s1.127-1.365,1-1.849-.425-3.072-.425-3.072l-.052-.4-.056-.43-.013-.095-.179-1.374h0a6.149,6.149,0,0,1,1.287.4,4.422,4.422,0,0,0,1.051.356.791.791,0,0,1,.561.576c.009.028.015.057.022.087.119.574.081.643.162.742A22.225,22.225,0,0,1,841.336,476.45Z" transform="translate(-778.84 -436.158)"/>
        <path id="Path_341" data-name="Path 341" class="cls-6" d="M853.128,591.5c-.4-.081-1-.268-.99-.68.012-.386.476-.525.828-.574C853.022,590.653,853.078,591.1,853.128,591.5Z" transform="translate(-791.173 -545.087)"/>
        <path id="Path_342" data-name="Path 342" class="cls-7" d="M855.053,590.3c-.016.035-.081.065-.173.091a4.659,4.659,0,0,1-.657.107s-1.374-.109-1.355-.732c.015-.447.635-.566.984-.593a2.284,2.284,0,0,1,.232-.01S855.112,590.177,855.053,590.3Z" transform="translate(-791.844 -544.093)"/>
        <path id="Path_343" data-name="Path 343" class="cls-6" d="M865.4,590.3c-.016.035-.081.065-.173.091-.358-.479-.858-1.095-1.1-1.149l.074-.069a2.281,2.281,0,0,1,.232-.01S865.455,590.177,865.4,590.3Z" transform="translate(-802.187 -544.093)"/>
        <path id="Path_344" data-name="Path 344" class="cls-5" d="M865.73,497.69l.4.06a7.012,7.012,0,0,0,.485.741.809.809,0,0,1,.178.475,6.081,6.081,0,0,0,.781.978c.188.1.475.771.475.771s.465.306.465.652a5.812,5.812,0,0,0,.089.86,2.439,2.439,0,0,1-.267.97,3.312,3.312,0,0,0-.386,1.106,5.239,5.239,0,0,1-.711.949,4,4,0,0,0-.346.584l-.524.989s-1.108-1.632-1.513-1.72a3.182,3.182,0,0,1,.682-.514c.227-.079.445-.728.455-.88s.208-.643.415-.728.317-.178.228-.317a.591.591,0,0,1,0-.4,4.269,4.269,0,0,1-.663-1.213,1.32,1.32,0,0,0-.613-.741l-.307-.752Z" transform="translate(-802.867 -460.01)"/>
        <path id="Path_345" data-name="Path 345" class="cls-6" d="M889.61,539.9a1.282,1.282,0,0,1,.8-.3.973.973,0,0,0-.522.2,1.227,1.227,0,0,0-.145.184c-.047.067-.428.552-.485.475C889.162,540.352,889.533,539.968,889.61,539.9Z" transform="translate(-825.277 -498.532)"/>
        <path id="Path_346" data-name="Path 346" class="cls-6" d="M882.73,519.663a.342.342,0,0,0,.282-.2,1.122,1.122,0,0,0,.088-.351,5.251,5.251,0,0,1,.122-.6.278.278,0,0,0-.017-.242.829.829,0,0,0-.087-.179,1.076,1.076,0,0,0-.124.378c-.037.134-.071.269-.1.4C882.874,518.936,882.74,519.663,882.73,519.663Z" transform="translate(-819.292 -478.761)"/>
        <path id="Path_347" data-name="Path 347" class="cls-6" d="M811.945,414.167a.842.842,0,0,1-.137.141c-.162.129-.376.237-.4.44a.471.471,0,0,1-.024.195c-.052.089-.179.081-.28.064a.484.484,0,0,1-.237-.087c-.106-.09-.116-.252-.2-.366a.5.5,0,0,0-.4-.179c-.151,0-.3.029-.453.036a1.243,1.243,0,0,1-.29-.019.911.911,0,0,1-.094-.019,1.209,1.209,0,0,1-.2-.067.851.851,0,0,1-.1-.045,1.275,1.275,0,0,1-.279-.194.694.694,0,0,1-.259-.525c.007-.124.063-.238.081-.36a1.128,1.128,0,0,0-.423-.929c-.1-.1-.207-.2-.307-.3a1.478,1.478,0,0,1-.361-.516,1.537,1.537,0,0,1-.065-.647,4.458,4.458,0,0,0,.019-.665,2.335,2.335,0,0,0-1.416-1.715l-.03-.015a2.155,2.155,0,1,1,2.9,3.153c-.007.025-.014.05-.019.074a1.623,1.623,0,0,0,.063,1.205h0a6.147,6.147,0,0,1,1.287.4,4.421,4.421,0,0,0,1.051.356.791.791,0,0,1,.565.578Z" transform="translate(-748.858 -377.255)"/>
        <path id="Path_348" data-name="Path 348" class="cls-8" d="M803.675,396.932c.044-.051.111-.077.157-.126.14-.152,0-.4.051-.6a.5.5,0,0,1,.556-.3c.228.023.441.129.669.154a2.946,2.946,0,0,0,1.042-.2,1,1,0,0,1,1,.17c.238.264.222.715.517.906a2.938,2.938,0,0,0,.457.162.938.938,0,0,1,.386.369,1.935,1.935,0,0,1,.293,1.238c-.025.234-.093.462-.121.7a2.029,2.029,0,0,0,.049.728.775.775,0,0,0,.439.582.741.741,0,0,1,.162.056c.14.087.121.293.086.453l-.144.664c.138.105.353.06.485.171a.405.405,0,0,1,.113.178.97.97,0,0,1-.29,1.062c-.162.129-.376.237-.4.439a.457.457,0,0,1-.024.195c-.051.089-.179.081-.28.064a.485.485,0,0,1-.236-.087c-.107-.091-.116-.252-.2-.366a.5.5,0,0,0-.4-.179c-.152,0-.3.029-.453.036a1.34,1.34,0,0,1-.953-.344.7.7,0,0,1-.26-.526c.007-.123.063-.238.081-.36a1.131,1.131,0,0,0-.423-.929,2.465,2.465,0,0,1-.669-.812,5.063,5.063,0,0,1-.046-1.307,2.334,2.334,0,0,0-1.416-1.716C803.756,397.325,803.5,397.13,803.675,396.932Z" transform="translate(-746.575 -366.361)"/>
        <path id="Path_349" data-name="Path 349" class="cls-6" d="M808.89,404.921c-.107-.091-.116-.252-.2-.366a.5.5,0,0,0-.4-.18c-.152,0-.3.029-.453.036a1.336,1.336,0,0,1-.956-.345.694.694,0,0,1-.259-.525c.007-.124.063-.238.081-.36a1.129,1.129,0,0,0-.423-.93,2.473,2.473,0,0,1-.669-.812,5.286,5.286,0,0,1-.045-1.307,2.338,2.338,0,0,0-1.416-1.716c-.157-.077-.411-.272-.238-.47.044-.051.111-.077.156-.126.14-.151,0-.4.052-.6a.331.331,0,0,1,.051-.111.431.431,0,0,0-.365.289c-.049.2.089.449-.051.6-.045.049-.112.075-.157.125-.174.2.081.394.238.47a2.336,2.336,0,0,1,1.416,1.716,5.068,5.068,0,0,0,.046,1.308,2.44,2.44,0,0,0,.669.812,1.119,1.119,0,0,1,.423.929,3.1,3.1,0,0,0-.081.36.694.694,0,0,0,.259.525,1.333,1.333,0,0,0,.956.345c.152-.007.3-.04.454-.036a.5.5,0,0,1,.4.179c.081.114.09.276.2.366a.485.485,0,0,0,.236.087c.1.019.229.025.28-.063a.218.218,0,0,0,.023-.116A.465.465,0,0,1,808.89,404.921Z" transform="translate(-746.502 -367.561)"/>
        <path id="Path_350" data-name="Path 350" class="cls-3" d="M568.98,64.165h-5.592v-5.51h5.6Zm-.081-8.308h-5.43c0-8.563,8.139-8.063,8.139-13.48A5.4,5.4,0,0,0,566.182,37a5.538,5.538,0,0,0-5.425,5.459H555.33a10.852,10.852,0,0,1,21.7-.085c0,6.774-8.139,7.545-8.139,13.48Z" transform="translate(-518.361 -31.61)"/>
        <path id="Path_351" data-name="Path 351" class="cls-2" d="M339.215,318.412h-1.442v-1.424h1.442Zm-.022-2.142h-1.4c0-2.207,2.1-2.078,2.1-3.476a1.392,1.392,0,0,0-1.4-1.386,1.429,1.429,0,0,0-1.4,1.407h-1.4a2.8,2.8,0,1,1,5.6-.022c0,1.746-2.1,1.945-2.1,3.475Z" transform="translate(-316.487 -287.498)"/>
        <path id="Path_352" data-name="Path 352" class="cls-2" d="M474.221,440.859h-1.442v-1.42h1.442Zm-.021-2.142h-1.4c0-2.208,2.1-2.079,2.1-3.476a1.391,1.391,0,0,0-1.4-1.386,1.428,1.428,0,0,0-1.4,1.408h-1.4a2.8,2.8,0,1,1,5.6-.022C476.3,436.988,474.2,437.188,474.2,438.718Z" transform="translate(-440.573 -400.049)"/>
        <path id="Path_353" data-name="Path 353" class="cls-2" d="M567.41,250.461h-1.045v-1.028h1.045Zm-.015-1.553H566.38c0-1.6,1.521-1.506,1.521-2.518a1.009,1.009,0,0,0-1.014-1,1.035,1.035,0,0,0-1.014,1.02H564.86a2.028,2.028,0,1,1,4.055-.016C568.913,247.655,567.394,247.8,567.394,248.908Z" transform="translate(-527.12 -227.169)"/>
        <path id="Path_354" data-name="Path 354" class="cls-2" d="M800.815,298.869h-.591v-.582h.591Zm-.009-.877h-.577c0-.9.859-.851.859-1.424a.566.566,0,0,0-.572-.566.585.585,0,0,0-.573.576h-.573a1.146,1.146,0,0,1,2.292-.009C801.665,297.28,800.806,297.365,800.806,297.992Z" transform="translate(-742.672 -274.127)"/>
        <path id="Path_355" data-name="Path 355" class="cls-2" d="M912.611,626.34h-.591v-.582h.591Zm-.009-.877h-.573c0-.9.86-.851.86-1.424a.57.57,0,0,0-.573-.566.585.585,0,0,0-.573.576h-.573a1.146,1.146,0,0,1,2.292-.009c0,.714-.856.8-.856,1.422Z" transform="translate(-845.433 -575.124)"/>
      </g>
    </g>
  </g>
</svg>
