<svg xmlns="http://www.w3.org/2000/svg" xmlns:xlink="http://www.w3.org/1999/xlink" viewBox="0 0 124.706 124.706">
  <defs>
    <style>
      .cls-1 {
        fill: #fff;
      }

      .cls-2, .cls-3 {
        fill: #a9001d;
      }

      .cls-15, .cls-2, .cls-5 {
        opacity: 0.1;
      }

      .cls-16, .cls-4 {
        fill: none;
        stroke-miterlimit: 10;
      }

      .cls-4 {
        stroke: #565987;
      }

      .cls-6 {
        fill: #ffd037;
      }

      .cls-7 {
        fill: #a8a8a8;
      }

      .cls-8 {
        opacity: 0.2;
      }

      .cls-9 {
        fill: #65617d;
      }

      .cls-10 {
        fill: #3f3d56;
      }

      .cls-11 {
        fill: #be6f72;
      }

      .cls-12 {
        fill: #fbbebe;
      }

      .cls-13 {
        fill: #e3e8f4;
      }

      .cls-14 {
        fill: #f86d70;
      }

      .cls-16 {
        stroke: #3f3d56;
      }

      .cls-17 {
        filter: url(#Ellipse_4);
      }
    </style>
    <filter id="Ellipse_4" x="0" y="0" width="124.706" height="124.706" filterUnits="userSpaceOnUse">
      <feOffset dy="3" input="SourceAlpha"/>
      <feGaussianBlur stdDeviation="3" result="blur"/>
      <feFlood flood-opacity="0.161"/>
      <feComposite operator="in" in2="blur"/>
      <feComposite in="SourceGraphic"/>
    </filter>
  </defs>
  <g id="Group_129" data-name="Group 129" transform="translate(-1236.656 -1310)">
    <g id="Group_60" data-name="Group 60" transform="translate(1245.656 1316)">
      <g class="cls-17" transform="matrix(1, 0, 0, 1, -9, -6)">
        <circle id="Ellipse_4-2" data-name="Ellipse 4" class="cls-1" cx="53.353" cy="53.353" r="53.353" transform="translate(9 6)"/>
      </g>
    </g>
    <g id="Group_67" data-name="Group 67" transform="translate(1257.393 1333.073)">
      <g id="undraw_mobile_testing_reah_2_" data-name="undraw_mobile_testing_reah (2)" transform="translate(0 0)">
        <path id="Path_219" data-name="Path 219" class="cls-2" d="M205.617,338.681a30.686,30.686,0,0,0-10.164-1.837c-5.146.134-10.094,2.532-12.534,6.076-2.063,3-2.338,6.533-3.238,9.873a49.166,49.166,0,0,1-5.462,11.838c-1.207,2.051-2.481,4.145-2.69,6.4-.288,3.129,1.608,6.257,4.6,8.354a21.831,21.831,0,0,0,10.963,3.475,14.4,14.4,0,0,0,6.242-.734c2-.807,3.467-2.284,5.478-3.082a14.77,14.77,0,0,1,6.126-.726,34.084,34.084,0,0,1,7.987,1.369c2.914.872,5.621,2.126,8.529,3.011a17.825,17.825,0,0,0,9.137.673,17.417,17.417,0,0,0,7.017-3.978,76.288,76.288,0,0,0,8.964-8.789,20.9,20.9,0,0,0,4.3-6.764c1.542-4.687-.524-9.993-5.145-13.221-3.828-2.675-8.979-3.856-14.022-4.574-4.6-.661-9.921-.726-14.149-2.41C213.515,342.025,209.847,340.05,205.617,338.681Z" transform="translate(-168.487 -310.268)"/>
        <ellipse id="Ellipse_40" data-name="Ellipse 40" class="cls-2" cx="2.073" cy="0.284" rx="2.073" ry="0.284" transform="translate(76.349 43.816)"/>
        <ellipse id="Ellipse_41" data-name="Ellipse 41" class="cls-2" cx="2.073" cy="0.284" rx="2.073" ry="0.284" transform="translate(68.41 44.621)"/>
        <ellipse id="Ellipse_42" data-name="Ellipse 42" class="cls-2" cx="2.073" cy="0.284" rx="2.073" ry="0.284" transform="translate(59.058 43.531)"/>
        <ellipse id="Ellipse_43" data-name="Ellipse 43" class="cls-2" cx="1.473" cy="0.203" rx="1.473" ry="0.203" transform="translate(72.186 46.995)"/>
        <ellipse id="Ellipse_44" data-name="Ellipse 44" class="cls-2" cx="1.473" cy="0.203" rx="1.473" ry="0.203" transform="translate(63.946 46.792)"/>
        <path id="Path_220" data-name="Path 220" class="cls-3" d="M833.753,380.829s2.908-9.53-.455-13.346a6.328,6.328,0,0,0-6.648-2.16,2.36,2.36,0,0,0-1.525,1.267c-.448.964-.366,2.529,2.789,4.356,5.283,3.059,5.612,7.255,5.612,7.255Z" transform="translate(-763.316 -335.988)"/>
        <path id="Path_221" data-name="Path 221" class="cls-4" d="M849.2,382.73s8.57,2.68,6.648,14.155" transform="translate(-785.411 -352.044)"/>
        <path id="Path_222" data-name="Path 222" class="cls-4" d="M896.067,393.44a1.9,1.9,0,0,0-.807,1.99" transform="translate(-827.274 -361.794)"/>
        <path id="Path_223" data-name="Path 223" class="cls-4" d="M858.79,396.754a1.485,1.485,0,0,1,1.6-.329" transform="translate(-794.141 -364.401)"/>
        <path id="Path_224" data-name="Path 224" class="cls-4" d="M896.56,440.016s1.266-.642,1.594.162" transform="translate(-828.524 -403.972)"/>
        <path id="Path_225" data-name="Path 225" class="cls-4" d="M921.679,457.373s-.952-.075-.969.379" transform="translate(-850.508 -419.989)"/>
        <path id="Path_226" data-name="Path 226" class="cls-3" d="M872.5,472.63s-3.408-6.926-4.34-6.775c-.448.072-.649.509-.742.948a2.787,2.787,0,0,0,.186,1.686A7.47,7.47,0,0,0,872.5,472.63Z" transform="translate(-801.945 -427.713)"/>
        <path id="Path_227" data-name="Path 227" class="cls-4" d="M876.53,480.54s3.574,5.182,4.264,5.41" transform="translate(-810.29 -441.083)"/>
        <line id="Line_7" data-name="Line 7" class="cls-4" x2="0.834" transform="translate(65.912 40.266)"/>
        <line id="Line_8" data-name="Line 8" class="cls-4" x2="1.308" y2="0.056" transform="translate(66.911 42.162)"/>
        <line id="Line_9" data-name="Line 9" class="cls-4" x1="0.142" y2="0.681" transform="translate(67.565 40.646)"/>
        <line id="Line_10" data-name="Line 10" class="cls-4" x1="0.025" y2="0.619" transform="translate(69.071 42.718)"/>
        <path id="Path_228" data-name="Path 228" class="cls-3" d="M923.52,472.63s3.408-6.926,4.34-6.775c.448.072.649.509.742.948a2.787,2.787,0,0,1-.186,1.686A7.471,7.471,0,0,1,923.52,472.63Z" transform="translate(-853.066 -427.713)"/>
        <path id="Path_229" data-name="Path 229" class="cls-4" d="M928.344,480.54s-3.574,5.182-4.264,5.41" transform="translate(-853.576 -441.083)"/>
        <line id="Line_11" data-name="Line 11" class="cls-4" x1="0.834" transform="translate(74.263 40.266)"/>
        <line id="Line_12" data-name="Line 12" class="cls-4" x1="1.308" y2="0.056" transform="translate(72.79 42.162)"/>
        <line id="Line_13" data-name="Line 13" class="cls-4" x2="0.142" y2="0.681" transform="translate(73.303 40.646)"/>
        <line id="Line_14" data-name="Line 14" class="cls-4" x2="0.026" y2="0.619" transform="translate(71.912 42.718)"/>
        <path id="Path_230" data-name="Path 230" class="cls-3" d="M856.279,549.951a.6.6,0,0,1-.194-.292.261.261,0,0,1,.135-.3.381.381,0,0,1,.359.127.478.478,0,0,0,.348.168.53.53,0,0,1-.163-.5.208.208,0,0,1,.045-.1c.069-.073.195-.041.277.016a1.035,1.035,0,0,1,.338.864,1.678,1.678,0,0,0,0-.359.365.365,0,0,1,.134-.315.4.4,0,0,1,.2-.048.424.424,0,0,1,.331.094.331.331,0,0,1-.014.406,1.287,1.287,0,0,1-.342.269.752.752,0,0,0-.245.233.3.3,0,0,0-.018.041h-.741A2.043,2.043,0,0,1,856.279,549.951Z" transform="translate(-791.671 -503.416)"/>
        <path id="Path_231" data-name="Path 231" class="cls-3" d="M1000.949,518.848a.588.588,0,0,1-.194-.292.26.26,0,0,1,.135-.3.382.382,0,0,1,.359.125.48.48,0,0,0,.349.168.528.528,0,0,1-.164-.5.2.2,0,0,1,.046-.1c.069-.074.194-.042.276.016a1.029,1.029,0,0,1,.338.864,1.632,1.632,0,0,0,0-.359.365.365,0,0,1,.134-.315.409.409,0,0,1,.2-.047.42.42,0,0,1,.331.09.327.327,0,0,1-.013.405,1.278,1.278,0,0,1-.342.274.751.751,0,0,0-.245.233.21.21,0,0,0-.018.041h-.741A2.067,2.067,0,0,1,1000.949,518.848Z" transform="translate(-923.367 -475.103)"/>
        <path id="Path_232" data-name="Path 232" class="cls-3" d="M952.729,549.951a.6.6,0,0,1-.194-.292.261.261,0,0,1,.136-.3.381.381,0,0,1,.359.127.478.478,0,0,0,.348.168.531.531,0,0,1-.164-.5.218.218,0,0,1,.046-.1c.069-.073.195-.041.277.016a1.035,1.035,0,0,1,.338.864,1.671,1.671,0,0,0,0-.359.365.365,0,0,1,.134-.315.4.4,0,0,1,.2-.048.423.423,0,0,1,.331.094.331.331,0,0,1-.013.406,1.289,1.289,0,0,1-.342.269.752.752,0,0,0-.245.233.288.288,0,0,0-.018.041h-.741A2.038,2.038,0,0,1,952.729,549.951Z" transform="translate(-879.471 -503.416)"/>
        <path id="Path_233" data-name="Path 233" class="cls-3" d="M811.721,496.58s-.278.363.128.911.74,1.012.605,1.353c0,0-.613-1.018-1.111-1.032S811.172,497.193,811.721,496.58Z" transform="translate(-750.725 -455.684)"/>
        <path id="Path_234" data-name="Path 234" class="cls-5" d="M811.721,496.58a.434.434,0,0,0-.057.114c-.486.571-.745,1.1-.278,1.118.436.013.959.791,1.083.986a.137.137,0,0,1-.014.045s-.613-1.018-1.111-1.032S811.172,497.193,811.721,496.58Z" transform="translate(-750.725 -455.684)"/>
        <path id="Path_235" data-name="Path 235" class="cls-6" d="M812.29,500.91c0,.128.014.231.032.231s.031-.1.031-.231-.018-.067-.035-.067S812.29,500.783,812.29,500.91Z" transform="translate(-751.811 -459.552)"/>
        <path id="Path_236" data-name="Path 236" class="cls-6" d="M809.616,502.558c.112.062.211.1.219.083s-.075-.078-.187-.139-.068-.017-.077,0S809.5,502.5,809.616,502.558Z" transform="translate(-749.315 -461.047)"/>
        <path id="Path_237" data-name="Path 237" class="cls-3" d="M826.652,496.58s.278.363-.128.911-.74,1.012-.6,1.353c0,0,.612-1.018,1.11-1.032S827.2,497.193,826.652,496.58Z" transform="translate(-764.19 -455.684)"/>
        <path id="Path_238" data-name="Path 238" class="cls-5" d="M826.808,496.58a.441.441,0,0,1,.057.114c.486.571.745,1.1.278,1.118-.436.013-.959.791-1.083.986a.384.384,0,0,0,.015.045s.612-1.018,1.11-1.032S827.357,497.193,826.808,496.58Z" transform="translate(-764.346 -455.684)"/>
        <path id="Path_239" data-name="Path 239" class="cls-6" d="M839.514,500.91c0,.128-.014.231-.032.231s-.031-.1-.031-.231.018-.067.035-.067S839.514,500.783,839.514,500.91Z" transform="translate(-776.535 -459.552)"/>
        <path id="Path_240" data-name="Path 240" class="cls-6" d="M839.913,502.558c-.112.062-.211.1-.219.083s.075-.078.187-.139.068-.017.077,0S840.025,502.5,839.913,502.558Z" transform="translate(-776.757 -461.047)"/>
        <path id="Path_241" data-name="Path 241" class="cls-7" d="M809.816,517.043a2.836,2.836,0,0,1-1.01-.19c-.234-.167-1.195-.366-1.255-.1s-1.166,1.329-.291,1.336a7.417,7.417,0,0,0,2.271-.279C809.764,517.669,809.816,517.043,809.816,517.043Z" transform="translate(-746.927 -473.93)"/>
        <path id="Path_242" data-name="Path 242" class="cls-8" d="M807.242,522.245a7.418,7.418,0,0,0,2.271-.279c.179-.108.248-.5.269-.676h.025s-.048.628-.282.769a7.467,7.467,0,0,1-2.271.279c-.253,0-.34-.09-.335-.225C806.957,522.194,807.054,522.244,807.242,522.245Z" transform="translate(-746.921 -478.178)"/>
        <circle id="Ellipse_45" data-name="Ellipse 45" class="cls-2" cx="1.94" cy="1.94" r="1.94" transform="translate(9.628 3.487)"/>
        <circle id="Ellipse_46" data-name="Ellipse 46" class="cls-2" cx="1.94" cy="1.94" r="1.94" transform="translate(43.179 0.425)"/>
        <circle id="Ellipse_47" data-name="Ellipse 47" class="cls-2" cx="1.94" cy="1.94" r="1.94" transform="translate(73.953 8.089)"/>
        <circle id="Ellipse_48" data-name="Ellipse 48" class="cls-2" cx="3.251" cy="3.251" r="3.251" transform="translate(0 19.962)"/>
        <circle id="Ellipse_49" data-name="Ellipse 49" class="cls-2" cx="3.251" cy="3.251" r="3.251" transform="translate(3.116 36.015)"/>
        <circle id="Ellipse_50" data-name="Ellipse 50" class="cls-2" cx="3.251" cy="3.251" r="3.251" transform="translate(64.003 21.856)"/>
        <path id="Path_243" data-name="Path 243" class="cls-9" d="M559.263,384.007c-.115.011-.231.005-.345.023a1.573,1.573,0,0,0-.538.216,4.154,4.154,0,0,0-1.925,1.978.27.27,0,0,0-.025.175.3.3,0,0,0,.1.124l.318.289a.448.448,0,0,0,.141.1.46.46,0,0,0,.26-.008,4.583,4.583,0,0,0,2.412-1.083c.291-.309.559-.735.986-.747a4.548,4.548,0,0,1,.524.09.383.383,0,0,0,.431-.227.476.476,0,0,0-.029-.254l-.264-.878c-.072-.24-.8-.253-1.037-.21C559.9,383.658,559.653,383.972,559.263,384.007Z" transform="translate(-518.892 -352.813)"/>
        <path id="Path_244" data-name="Path 244" class="cls-9" d="M593.922,419.29a7.388,7.388,0,0,1-.038.9,2.633,2.633,0,0,1-.223.677,4.445,4.445,0,0,1-.61.96,1.891,1.891,0,0,1-.835.628.88.88,0,0,1-.96-.254,1.271,1.271,0,0,1-.167-.826,5.058,5.058,0,0,1,.459-2.058c.136-.269.309-.526.448-.8a4.427,4.427,0,0,1,.958-1.622,3.149,3.149,0,0,0,1,.274c.134.014.516.023.56.195.031.116-.221.439-.269.553A3.777,3.777,0,0,0,593.922,419.29Z" transform="translate(-550.445 -383.15)"/>
        <path id="Path_245" data-name="Path 245" class="cls-10" d="M580.16,253.54a3.075,3.075,0,0,1,.269.836c.018.179,0,.359,0,.538a3.5,3.5,0,0,0,.122.726l.5,2.045a2.62,2.62,0,0,1,.11.932,4.9,4.9,0,0,0-.1.619,2.406,2.406,0,0,0,.075.469,2.889,2.889,0,0,1-.075,1.426.213.213,0,0,0-.015.11c.013.058.069.094.12.122a5.123,5.123,0,0,0,1.731.577,16.951,16.951,0,0,0,1.139-4.067c.127-.847.189-1.7.353-2.544a.208.208,0,0,1,.058-.129c.061-.051.153-.019.225.015a20.094,20.094,0,0,1,2.638,1.525,3.3,3.3,0,0,0,.609-2.727,5.651,5.651,0,0,0-.448-1.173,6.622,6.622,0,0,0-.762-1.28,5.836,5.836,0,0,0-2.646-1.728c-.611-.221-1.239-.384-1.867-.551-.352-.094-.941-.4-1.282-.162a2.835,2.835,0,0,0-.744,1.256,4.626,4.626,0,0,0-.292,1.515A4.281,4.281,0,0,0,580.16,253.54Z" transform="translate(-540.238 -230.334)"/>
        <path id="Path_246" data-name="Path 246" class="cls-10" d="M605.591,308.978c-.187.2-.03.531-.065.807a1.116,1.116,0,0,1-.132.354l-.858,1.685a3.127,3.127,0,0,0-.319.807c-.117.608.124,1.291-.185,1.829a1.929,1.929,0,0,0-.3.517,4.16,4.16,0,0,0-.015.436,2.893,2.893,0,0,1-.161.485,3.376,3.376,0,0,0-.083.477,2.807,2.807,0,0,1-1.008,1.743,1.6,1.6,0,0,1-1.112.379.967.967,0,0,1-.879-.7.921.921,0,0,0-.106-.391c-.118-.155-.368-.161-.482-.32l.441-.726a1.715,1.715,0,0,0,.3-.723c.027-.322-.128-.643-.073-.961.048-.273.244-.5.3-.772a2.327,2.327,0,0,0-.153-1.012,5.229,5.229,0,0,1,.241-2.511,11.824,11.824,0,0,1,1.173-3.162C603.293,307.85,604.369,308.456,605.591,308.978Z" transform="translate(-558.459 -283.306)"/>
        <path id="Path_247" data-name="Path 247" class="cls-3" d="M593.913,129.416a1.462,1.462,0,0,1,.019.6c-.031.448.064.9.042,1.351a8.034,8.034,0,0,1-.258,1.331c-.275,1.262-.209,2.577-.458,3.844-.308,1.569-1.094,3.031-1.249,4.624a3.214,3.214,0,0,1-.32,1.474,23.15,23.15,0,0,1-4.638-2.725,46.722,46.722,0,0,0,.586-7.057,3.029,3.029,0,0,1,.059-.85,2.62,2.62,0,0,1,.319-.662c.347-.564.729-1.106,1.11-1.647a1.7,1.7,0,0,1,2.171-.884l1.53.28C593.144,129.157,593.777,129.045,593.913,129.416Z" transform="translate(-546.771 -120.827)"/>
        <path id="Path_248" data-name="Path 248" class="cls-11" d="M519.732,204.388a4.781,4.781,0,0,0-.682-.566c.318-.387.256-.948.334-1.444a4.766,4.766,0,0,1,.29-.939c.032-.085.078-.179.167-.2a.294.294,0,0,1,.16.025c.269.1.83.09,1.039.264.252.212.021.655-.073.919C520.9,202.623,519.865,204.522,519.732,204.388Z" transform="translate(-484.869 -186.826)"/>
        <path id="Path_249" data-name="Path 249" class="cls-9" d="M485.767,385.971a1.858,1.858,0,0,1,.259.717.712.712,0,0,1-.289.668,1,1,0,0,1-.786.009,4.093,4.093,0,0,1-2.48-2.242,1.109,1.109,0,0,0-.651-.771,1.908,1.908,0,0,1-.856-.832.892.892,0,0,1,.248-1.088.917.917,0,0,1,.7-.09,2.721,2.721,0,0,1,.665.29,6.636,6.636,0,0,1,1.076.6,6.944,6.944,0,0,1,.74.782,11,11,0,0,1,.738.942C485.209,385.056,485.829,385.884,485.767,385.971Z" transform="translate(-450.123 -351.661)"/>
        <path id="Path_250" data-name="Path 250" class="cls-9" d="M437.022,375.83a6.208,6.208,0,0,1-.238,1.332,1.232,1.232,0,0,1-.37.653,1.355,1.355,0,0,1-.566.207.406.406,0,0,1-.5-.221,3.84,3.84,0,0,1-.717-1.3,3.131,3.131,0,0,1,.311-2.095,2.143,2.143,0,0,1,.48-.7,1.838,1.838,0,0,1,.881-.4c.331-.066.737-.208.761.195a18.711,18.711,0,0,1-.038,2.319Z" transform="translate(-407.952 -343.403)"/>
        <path id="Path_251" data-name="Path 251" class="cls-10" d="M417.411,214.19c.619.32,1.306.727,1.435,1.412a9.9,9.9,0,0,1-.048,1.271,10.053,10.053,0,0,1,.16,1.108,5.262,5.262,0,0,1-.09.525,8.469,8.469,0,0,0-.035,1,18.357,18.357,0,0,1-.4,2.221,6.506,6.506,0,0,0-.06,1.606c.03.346.09.691.09,1.039a4.553,4.553,0,0,1-.062.748,7.461,7.461,0,0,1-.717,2.23,5.923,5.923,0,0,0-.325,2.9.717.717,0,0,1-.048.387c-.113.205-.395.235-.628.215a3.408,3.408,0,0,1-2.242-1.135.575.575,0,0,1-.163-.3c-.02-.192.134-.35.246-.508a3.712,3.712,0,0,0,.327-1.928,4.214,4.214,0,0,1,.34-1.395,2.621,2.621,0,0,0,.275-.786,1.983,1.983,0,0,0-.134-.763l-.269-.854a25.038,25.038,0,0,0-1.468-3.9,1.951,1.951,0,0,0-.83,1.166c-.235.845.1,1.788-.221,2.6a2.376,2.376,0,0,0-.132.349,1.4,1.4,0,0,0-.022.313,25.479,25.479,0,0,0,.16,2.616.808.808,0,0,0,.108.374c.053.076.13.133.187.205a.973.973,0,0,1,.09.743l-.179,1.2a.325.325,0,0,1-.058.169.321.321,0,0,1-.152.082,4.25,4.25,0,0,1-1.763.161,1.17,1.17,0,0,1-.48-.237c-.015-.179.208-.3.216-.477a.411.411,0,0,0-.137-.274,2.1,2.1,0,0,1-.728-1.28c0-.132.031-.264.027-.4a4.831,4.831,0,0,0-.326-.953,3.4,3.4,0,0,1,.084-1.232,6.366,6.366,0,0,0-.09-1.669l-.3-2.03a5.434,5.434,0,0,0-.187-.931,7.29,7.29,0,0,0-.4-.873c-.287-.583-.523-1.189-.758-1.794a1.635,1.635,0,0,1-.139-.519,1.265,1.265,0,0,1,.343-.835,2.611,2.611,0,0,1,1.435-.87.628.628,0,0,1,.288-.012.773.773,0,0,1,.223.117,5.365,5.365,0,0,0,4.741.562.391.391,0,0,0,.359-.01,4.592,4.592,0,0,0,.776-.538A4.62,4.62,0,0,1,417.411,214.19Z" transform="translate(-383.379 -198.619)"/>
        <path id="Path_252" data-name="Path 252" class="cls-10" d="M309.772,458.381a1.227,1.227,0,0,0,.212.378,6.328,6.328,0,0,1,.986,1.256c.044.106.076.217.117.325a2.135,2.135,0,0,0,.583.845,3.588,3.588,0,0,0,.643.426,2.594,2.594,0,0,0,1.275.4,1.384,1.384,0,0,0,.269-.032,1.457,1.457,0,0,0,.4-.147.826.826,0,0,0,.481-.8.73.73,0,0,0-.058-.179,1.89,1.89,0,0,0-.164-.259,1.947,1.947,0,0,0-.529-.56,5.89,5.89,0,0,1-.787-.378,1.238,1.238,0,0,1-.227-.274,3.459,3.459,0,0,1-.448-1.016,1.573,1.573,0,0,0-.31-.761,1.9,1.9,0,0,0-1-.313.76.76,0,0,1-.381-.019c-.12-.06-.161-.145-.306-.134a.629.629,0,0,0-.315.137A1.059,1.059,0,0,0,309.772,458.381Z" transform="translate(-294.328 -419.779)"/>
        <path id="Path_253" data-name="Path 253" class="cls-12" d="M319.716,463.333a1.387,1.387,0,0,0,.383.826c.15.129.359.21.433.392a.639.639,0,0,1-.145.578,2.127,2.127,0,0,1-.578.53.863.863,0,0,1-.635.155,1.061,1.061,0,0,1-.455-.3,3.157,3.157,0,0,1-.793-.96c-.179-.4-.188-.867-.384-1.263a4.149,4.149,0,0,1-.359-.68.423.423,0,0,1,0-.276.389.389,0,0,1,.352-.209,1.223,1.223,0,0,1,.421.09,9.252,9.252,0,0,0,1.24.347c.168.031.269.031.359.193a1.934,1.934,0,0,1,.161.574Z" transform="translate(-301.086 -424.323)"/>
        <path id="Path_254" data-name="Path 254" class="cls-12" d="M355.648,498.987a.987.987,0,0,0-.139.334.746.746,0,0,0-.01.282,1.453,1.453,0,0,0,.4-.147.826.826,0,0,0,.481-.8.726.726,0,0,0-.058-.179.25.25,0,0,0-.239.074A1.983,1.983,0,0,0,355.648,498.987Z" transform="translate(-335.977 -457.407)"/>
        <path id="Path_255" data-name="Path 255" class="cls-10" d="M320.993,422.458a.441.441,0,0,0-.033.269c.041.179.225.283.391.364l1.577.771a3.312,3.312,0,0,1,.319.169,4.7,4.7,0,0,1,.71.612,1.863,1.863,0,0,0,.789.489,1.334,1.334,0,0,0,.9-.118,1.851,1.851,0,0,0,.411-.279,2.519,2.519,0,0,0,.3-.308.664.664,0,0,0,.161-.29.636.636,0,0,0-.147-.461,2.127,2.127,0,0,0-.179-.222,4.219,4.219,0,0,0-2.421-1.138,6.892,6.892,0,0,1-.977-.282,2.286,2.286,0,0,0-1-.132A.99.99,0,0,0,320.993,422.458Z" transform="translate(-304.537 -387.692)"/>
        <path id="Path_256" data-name="Path 256" class="cls-5" d="M320.993,422.458a.441.441,0,0,0-.033.269c.041.179.225.283.391.364l1.577.771a3.312,3.312,0,0,1,.319.169,4.7,4.7,0,0,1,.71.612,1.863,1.863,0,0,0,.789.489,1.334,1.334,0,0,0,.9-.118,1.851,1.851,0,0,0,.411-.279,2.519,2.519,0,0,0,.3-.308.664.664,0,0,0,.161-.29.636.636,0,0,0-.147-.461,2.127,2.127,0,0,0-.179-.222,4.219,4.219,0,0,0-2.421-1.138,6.892,6.892,0,0,1-.977-.282,2.286,2.286,0,0,0-1-.132A.99.99,0,0,0,320.993,422.458Z" transform="translate(-304.537 -387.692)"/>
        <path id="Path_257" data-name="Path 257" class="cls-12" d="M353,431.007a1.793,1.793,0,0,1,.3.457.511.511,0,0,1,.067.365.533.533,0,0,1-.164.215l-.157.145a.627.627,0,0,1-.163.122.653.653,0,0,1-.269.04,1,1,0,0,1-.609-.126.674.674,0,0,1-.169-.786,1.7,1.7,0,0,1,.555-.652C352.574,430.639,352.877,430.871,353,431.007Z" transform="translate(-332.601 -395.748)"/>
        <path id="Path_258" data-name="Path 258" class="cls-12" d="M375.96,439.745a.8.8,0,0,0,.04.444c.039.135.078.269.117.406v.005a2.522,2.522,0,0,0,.3-.308.664.664,0,0,0,.16-.29.636.636,0,0,0-.147-.461,2.127,2.127,0,0,0-.179-.222c-.042.055-.079.109-.109.143A.792.792,0,0,0,375.96,439.745Z" transform="translate(-354.598 -403.559)"/>
        <path id="Path_259" data-name="Path 259" class="cls-10" d="M328.458,310.532a6.764,6.764,0,0,0-.008,2.393,4.368,4.368,0,0,1-.02,1.818,1.462,1.462,0,0,0-.131.665c.076.424.587.587,1.011.667a1,1,0,0,0,.374.022.888.888,0,0,0,.341-.179,3.726,3.726,0,0,0,1.312-1.744,6.449,6.449,0,0,0,.261-1.458,10.2,10.2,0,0,0,.045-2.49c-.036-.242-.09-.482-.112-.725a5.241,5.241,0,0,1,.07-1.269,20.464,20.464,0,0,1,.7-3.062,4.125,4.125,0,0,1-2.482-.448c.147.079-.022,1.337-.039,1.514a10.276,10.276,0,0,1-.284,1.56C329.243,308.751,328.685,309.582,328.458,310.532Z" transform="translate(-311.216 -281.03)"/>
        <path id="Path_260" data-name="Path 260" class="cls-5" d="M328.458,310.532a6.764,6.764,0,0,0-.008,2.393,4.368,4.368,0,0,1-.02,1.818,1.462,1.462,0,0,0-.131.665c.076.424.587.587,1.011.667a1,1,0,0,0,.374.022.888.888,0,0,0,.341-.179,3.726,3.726,0,0,0,1.312-1.744,6.449,6.449,0,0,0,.261-1.458,10.2,10.2,0,0,0,.045-2.49c-.036-.242-.09-.482-.112-.725a5.241,5.241,0,0,1,.07-1.269,20.464,20.464,0,0,1,.7-3.062,4.125,4.125,0,0,1-2.482-.448c.147.079-.022,1.337-.039,1.514a10.276,10.276,0,0,1-.284,1.56C329.243,308.751,328.685,309.582,328.458,310.532Z" transform="translate(-311.216 -281.03)"/>
        <path id="Path_261" data-name="Path 261" class="cls-10" d="M324.142,294.336a7,7,0,0,1,.125,3.263,16.28,16.28,0,0,0-.317,3.274,3.648,3.648,0,0,1-.03,1.284,2.809,2.809,0,0,1-.275.573l-2.862,4.949a.89.89,0,0,1-.717.448,2.078,2.078,0,0,1-.891-.191,1.6,1.6,0,0,1-.519-.288.614.614,0,0,1-.219-.526c.128-.859.321-1.739.464-2.6a4.5,4.5,0,0,1,.622-1.647c.221-.359.494-.681.685-1.054a4.382,4.382,0,0,0-.065-3.5c-.423-1.125-1.054-2.168-1.39-3.318a3.8,3.8,0,0,1-.169-.986,2.63,2.63,0,0,1,.75-1.871.657.657,0,0,1,.259-.179.726.726,0,0,1,.353.006C321.539,292.285,323.615,292.8,324.142,294.336Z" transform="translate(-302.244 -269.406)"/>
        <path id="Path_262" data-name="Path 262" class="cls-12" d="M606.775,133.135a1.8,1.8,0,0,1-.291,1.13,3.2,3.2,0,0,1-3.883,1.244,6.2,6.2,0,0,1-1.5-1.047,1.336,1.336,0,0,1-.4-.465.905.905,0,0,1,.3-.978,2.567,2.567,0,0,1,.98-.465C603.149,132.192,606.5,131.049,606.775,133.135Z" transform="translate(-559.154 -123.723)"/>
        <path id="Path_263" data-name="Path 263" class="cls-10" d="M635.667,131.534a25.165,25.165,0,0,0,3.8,2.295,1.842,1.842,0,0,1,1.008.9,1.744,1.744,0,0,1,.027.738,4.979,4.979,0,0,1-.286,1.4,9.244,9.244,0,0,1-.9,1.414,18.324,18.324,0,0,1-1.518,2.521,24.638,24.638,0,0,1,1.1,4.524.208.208,0,0,1-.013.126.218.218,0,0,1-.07.064l-1.116.732a1.257,1.257,0,0,0-.322.269c-.2.257-.171.617-.293.916a1.19,1.19,0,0,1-.691.628,2.126,2.126,0,0,1-.95.1,2.208,2.208,0,0,1-1.134-.4,3.135,3.135,0,0,1-.682-.815,3.171,3.171,0,0,1-.359-.654,2.948,2.948,0,0,1-.122-1.041,11,11,0,0,1,.191-1.994c.052-.261.117-.518.158-.781.083-.529.066-1.069.127-1.6a10.774,10.774,0,0,1,.4-1.764,9.081,9.081,0,0,0,.233-1.085,11.916,11.916,0,0,1,.523-1.883l.359-1.059c.076-.229.153-.456.244-.68a5.29,5.29,0,0,0,.443-1.268c.064-.485-.46-1.061-.283-1.516C635.548,131.568,635.626,131.5,635.667,131.534Z" transform="translate(-588.727 -123.368)"/>
        <path id="Path_264" data-name="Path 264" class="cls-10" d="M647.171,164.42a1.018,1.018,0,0,1,.474.638,3.613,3.613,0,0,1,.14,1.812,3.246,3.246,0,0,0-.072.463,3.091,3.091,0,0,0,.053.538c.09.686,0,1.383.03,2.075a5.011,5.011,0,0,1-.126,2.308,3.3,3.3,0,0,1-1.033,1.137,20.672,20.672,0,0,1-4.948,2.855,1.3,1.3,0,0,0,.108-1.354,2.518,2.518,0,0,0-.987-1.012,6.355,6.355,0,0,0,1.484-.53,12.883,12.883,0,0,0,2.541-1.867.773.773,0,0,0,.264-.334c.081-.269-.142-.525-.3-.76a3.216,3.216,0,0,1-.163-2.485,6.432,6.432,0,0,1,1.122-2.549A2.521,2.521,0,0,1,647.171,164.42Z" transform="translate(-595.709 -153.313)"/>
        <path id="Path_265" data-name="Path 265" class="cls-12" d="M618.623,273.99a1.226,1.226,0,0,1-.308.339,1.017,1.017,0,0,1-.939-.016,2.74,2.74,0,0,1-.762-.485,1.2,1.2,0,0,0-.338-.251c-.235-.09-.563-.022-.7-.239a.126.126,0,0,1-.021-.077c.008-.078.11-.1.189-.1a2.348,2.348,0,0,0,1.038-.32,1,1,0,0,1-.255-.269.21.21,0,0,1-.043-.127.228.228,0,0,1,.078-.127,2,2,0,0,1,2.2-.366.437.437,0,0,1,.179.135.5.5,0,0,1,.066.179c.058.251.269.628.193.882A3.566,3.566,0,0,1,618.623,273.99Z" transform="translate(-572.722 -251.034)"/>
        <path id="Path_266" data-name="Path 266" class="cls-10" d="M571.17,133.509a11.722,11.722,0,0,0,2.077-4.625l.331-1.166.8-2.808c.118-.414.235-.829.313-1.251a11.57,11.57,0,0,0,.138-2.215,2.4,2.4,0,0,0-.207-.89c-.078-.194-.116-.4-.179-.6a2.993,2.993,0,0,0-.36-.788.826.826,0,0,0-.162-.194.944.944,0,0,0-.367-.149,3.228,3.228,0,0,0-.878-.134,1.089,1.089,0,0,0-.8.34,4.136,4.136,0,0,0-.329.592,2.315,2.315,0,0,0-.146.248,1.253,1.253,0,0,0-.081.407q-.07.847-.119,1.7c-.015.257-.029.517-.019.775.008.2.03.4.051.6l.213,1.959c.049.46.014.891.056,1.351a10.809,10.809,0,0,1-.385,3.318,5.967,5.967,0,0,1-.49,1.516c-.221.416-.553.839-.465,1.3a4.521,4.521,0,0,1,.125.475.955.955,0,0,0,.03.3.359.359,0,0,0,.383.179A.889.889,0,0,0,571.17,133.509Z" transform="translate(-531.385 -111.684)"/>
        <path id="Path_267" data-name="Path 267" class="cls-12" d="M564.3,213.635c.034.257.008.518.021.778a5.242,5.242,0,0,0,.179.986,1.493,1.493,0,0,0,.521.96,1.638,1.638,0,0,1,.227.143.221.221,0,0,1,.074.24l-.247-.041a.25.25,0,1,1-.344.359.583.583,0,0,1-.022.24.2.2,0,0,1-.179.135.288.288,0,0,1-.128-.054l-.644-.4a1.188,1.188,0,0,1-.464-.448l-.282-.424a1.012,1.012,0,0,1-.146-.269c-.1-.359.188-.757.036-1.1a1.47,1.47,0,0,0-.161-.235,2.455,2.455,0,0,1-.269-1.614c.012-.187.046-.41.215-.491a.442.442,0,0,1,.421.074,1.788,1.788,0,0,0,.377.238c.09.031.188.034.278.066.126.044.242.215.326.317A1.051,1.051,0,0,1,564.3,213.635Z" transform="translate(-524.381 -196.967)"/>
        <path id="Path_268" data-name="Path 268" class="cls-11" d="M467.958,86.028a1.6,1.6,0,0,1-.316.472.611.611,0,0,1-.52.179.919.919,0,0,1-.477-.359,4.712,4.712,0,0,1-1.386-3.663.842.842,0,0,1,.718-1.045l1.368-.511a.53.53,0,0,1,.269-.049c.214.036.293.294.352.5a3.14,3.14,0,0,0,.511,1.04c.307.409.995.96.6,1.47A11.284,11.284,0,0,0,467.958,86.028Z" transform="translate(-435.895 -77.421)"/>
        <path id="Path_269" data-name="Path 269" class="cls-13" d="M433.508,87.893a2.936,2.936,0,0,1,.773,2.261,19.894,19.894,0,0,1-.386,2.431,4.137,4.137,0,0,0,.2,2.421,6.088,6.088,0,0,1,.37.762,2.391,2.391,0,0,1,.071.819,2.338,2.338,0,0,1-.163.847,2.676,2.676,0,0,1-.96.986,9.041,9.041,0,0,1-2.449,1.407,7.5,7.5,0,0,1-1.894.3,6.025,6.025,0,0,1-1.3-.037,3.522,3.522,0,0,1-1.969-1.042,1.1,1.1,0,0,1-.223-.308,1.279,1.279,0,0,1-.078-.466q-.032-.883.011-1.767a7.766,7.766,0,0,1,.23-1.664c.171-.628.468-1.216.693-1.828.784-2.126.7-4.546,1.794-6.531.235-.429.628-.88,1.112-.812a.373.373,0,0,1,.246.113.517.517,0,0,1,.09.276,8.142,8.142,0,0,0,.735,2.826c.179.342.448.862.862.953s.657-.3.879-.583a7.158,7.158,0,0,1,1.358-1.362Z" transform="translate(-399.696 -81.619)"/>
        <path id="Path_270" data-name="Path 270" class="cls-10" d="M509.8,88.593a1.789,1.789,0,0,1,.34.239,1.374,1.374,0,0,1,.366,1.014,7.877,7.877,0,0,1-.143,1.1,14.878,14.878,0,0,0,.036,3,1.449,1.449,0,0,1-.029.482c-.044.151-.135.283-.193.43a8.844,8.844,0,0,0-.143,1.379c-.108.483-.476.923-.407,1.413.028.192.12.369.16.559a.491.491,0,0,1-.159.522c-.164.1-.4.028-.6.084a1.837,1.837,0,0,0-.231.1,1.137,1.137,0,0,1-.96-.059,2.91,2.91,0,0,1-.776-.615,3.189,3.189,0,0,1-.822-1.2,3.284,3.284,0,0,1,.213-2.078,5.32,5.32,0,0,0,.479-2.056,9.066,9.066,0,0,0-.224-1.172,7.5,7.5,0,0,1-.1-1.641,2.92,2.92,0,0,1,.212-1.179,1.624,1.624,0,0,1,1.284-.879A2.831,2.831,0,0,1,509.8,88.593Z" transform="translate(-473.123 -83.77)"/>
        <path id="Path_271" data-name="Path 271" class="cls-5" d="M527.893,147.1a2.733,2.733,0,0,0,.152.842,3.351,3.351,0,0,0,.2-1.175,23.087,23.087,0,0,1,.717-3.993,2.321,2.321,0,0,0-.482.9,7.908,7.908,0,0,0-.589,3.429Z" transform="translate(-492.91 -133.604)"/>
        <path id="Path_272" data-name="Path 272" class="cls-10" d="M385.854,83.9a10.935,10.935,0,0,0-1.226.538,9.157,9.157,0,0,1-1.36.366,4.665,4.665,0,0,0-2.755,1.614,11.267,11.267,0,0,0-.986,2.184,18.027,18.027,0,0,0-.826,1.835,7.069,7.069,0,0,0-.166,2.607,5.357,5.357,0,0,0,.456,2.079c.17.334.405.632.576.966.2.4.312.843.482,1.256a2.005,2.005,0,0,0,.816,1.04l.655-.383c.977-.571,1.953-1.143,2.9-1.764a5.615,5.615,0,0,0,2.1-2.04,4.568,4.568,0,0,0,.327-2.561c-.1-.867-.33-1.716-.448-2.58a10.389,10.389,0,0,1,.067-3.274c.09-.488.328-.992.378-1.478C386.895,83.789,386.228,83.806,385.854,83.9Z" transform="translate(-356.915 -79.968)"/>
        <path id="Path_273" data-name="Path 273" class="cls-12" d="M397.262,232.073a6.275,6.275,0,0,0,1.849.9,3.97,3.97,0,0,1,1.235.9.82.82,0,0,1,.283.769.857.857,0,0,1-.561.436,1.277,1.277,0,0,1-.888.094,3.19,3.19,0,0,1-.455-.282c-.376-.223-.849-.224-1.235-.43-.543-.291-.814-.93-1.325-1.275-.28-.188-.666-.343-.7-.679a.821.821,0,0,1,.075-.352c.1-.274.279-1.217.672-1.192C396.644,230.983,396.944,231.846,397.262,232.073Z" transform="translate(-372.371 -213.88)"/>
        <path id="Path_274" data-name="Path 274" class="cls-12" d="M338.451,170.85a4.29,4.29,0,0,0,.941,1.561,1.969,1.969,0,0,1,.606,1.143,1.2,1.2,0,0,1-.628,1.012,2.659,2.659,0,0,1-1.2.308,3.018,3.018,0,0,1-.992-.069,5.8,5.8,0,0,1-2.033-1.49,6.252,6.252,0,0,1-1.107-1.022,1.263,1.263,0,0,1-.128-1.412,2.04,2.04,0,0,1,.359-.359,6,6,0,0,0,1.237-1.484,1.6,1.6,0,0,1,.483-.6,1.427,1.427,0,0,1,1.093-.011c.394.1,1.5.3,1.58.807.031.206-.224.527-.263.749A1.984,1.984,0,0,0,338.451,170.85Z" transform="translate(-316.187 -156.861)"/>
        <path id="Path_275" data-name="Path 275" class="cls-14" d="M324.478,185.831a3.789,3.789,0,0,1,.289.668c.273.951-.215,1.93-.448,2.891a16.874,16.874,0,0,0-.186,3.786,2.224,2.224,0,0,1-.485,1.619,1.5,1.5,0,0,0-.309.317,1.313,1.313,0,0,0-.1.3,1.53,1.53,0,0,1-2.217.913c-.34-.189-.635-.517-1.024-.527a2.967,2.967,0,0,0-.365.04,2.5,2.5,0,0,1-1.13-.246.737.737,0,0,1-.239-.127c-.065-.06-.108-.141-.168-.205-.221-.239-.6-.2-.919-.264a1.287,1.287,0,0,1-.975-.975,2.515,2.515,0,0,1,.044-.939l.24-1.386a12.761,12.761,0,0,0,.209-1.54,6.457,6.457,0,0,0-.149-1.741,13.948,13.948,0,0,1-.321-1.4,3.416,3.416,0,0,1,.628-2.4.746.746,0,0,1,.5-.359.839.839,0,0,1,.481.164q1.94,1.148,3.907,2.248a4.622,4.622,0,0,0,1.126.5c.12.03.292.018.309-.1a.227.227,0,0,0-.035-.132c-.224-.431-.549-.8-.807-1.212a2.056,2.056,0,0,1-.381-1.374c.1-.66.717-1.1,1.219-.579A8.491,8.491,0,0,1,324.478,185.831Z" transform="translate(-300.187 -170.717)"/>
        <path id="Path_276" data-name="Path 276" class="cls-12" d="M339.655,289.106a9.649,9.649,0,0,1,3.1.543,1.637,1.637,0,0,0,.974.216,1.3,1.3,0,0,0,.448-.24,10.258,10.258,0,0,0,1.146-.978c-.036-.2-.3-.223-.5-.221a3,3,0,0,1-1.4-.335,2.351,2.351,0,0,0-.448-.209,2.584,2.584,0,0,0-1.288.216,4.98,4.98,0,0,1-1.947-.028L338,287.812a.624.624,0,0,0-.474.058.58.58,0,0,0-.169.3c-.213.717-.111.778.6.822Z" transform="translate(-319.379 -265.622)"/>
        <circle id="Ellipse_51" data-name="Ellipse 51" class="cls-5" cx="2.87" cy="2.87" r="2.87" transform="translate(41.236 5.293)"/>
        <circle id="Ellipse_52" data-name="Ellipse 52" class="cls-12" cx="2.87" cy="2.87" r="2.87" transform="translate(41.216 5.169)"/>
        <path id="Path_277" data-name="Path 277" class="cls-10" d="M602.224,81.341a1.53,1.53,0,0,1,.6.533,2.668,2.668,0,0,1,.153.5c.157.538.575,1.005.6,1.566a1.767,1.767,0,0,1-.955,1.47.708.708,0,0,1-.411.138,1.319,1.319,0,0,1-.421-.166c-.589-.262-1.248.07-1.873.222a3.361,3.361,0,0,1-1.955-.115,1.85,1.85,0,0,1-.874-.605.959.959,0,0,1-.107-1.012c.09-.16.239-.3.229-.486a2.516,2.516,0,0,0-.09-.316.726.726,0,0,1,.152-.484,7.01,7.01,0,0,1,1.552-1.755,1.11,1.11,0,0,1,.621-.3c.472-.021.877.331,1.362.333A2.548,2.548,0,0,1,602.224,81.341Z" transform="translate(-555.716 -76.946)"/>
        <circle id="Ellipse_53" data-name="Ellipse 53" class="cls-5" cx="2.959" cy="2.959" r="2.959" transform="translate(30.561 1.513)"/>
        <circle id="Ellipse_54" data-name="Ellipse 54" class="cls-11" cx="2.959" cy="2.959" r="2.959" transform="translate(30.613 1.441)"/>
        <path id="Path_278" data-name="Path 278" class="cls-10" d="M477.347,46.638a1.977,1.977,0,0,0,1.4.1,1.884,1.884,0,0,0,.735-.31.887.887,0,0,0,.37-.682c0-.3-.2-.571-.221-.872-.03-.378.217-.728.243-1.108a1.928,1.928,0,0,0-.344-1.049,5.874,5.874,0,0,0-1.121-1.557,2.053,2.053,0,0,0-1.77-.558,7.744,7.744,0,0,1-.909.269,3.832,3.832,0,0,1-.835-.094.958.958,0,0,0-.792.179c-.109.108-.179.259-.308.338a1.845,1.845,0,0,1-.269.1,1.247,1.247,0,0,0-.587.823l-.769,2.205a6.167,6.167,0,0,0,.849.4,1.027,1.027,0,0,1,.613.667c.044.234-.039.5.1.7a.607.607,0,0,0,.594.179,2.241,2.241,0,0,1,.647-.072c.538.082.738.412,1.236,0S476.885,46.378,477.347,46.638Z" transform="translate(-442.193 -40.566)"/>
        <circle id="Ellipse_55" data-name="Ellipse 55" class="cls-5" cx="2.69" cy="2.69" r="2.69" transform="translate(18.306 8.384)"/>
        <circle id="Ellipse_56" data-name="Ellipse 56" class="cls-12" cx="2.69" cy="2.69" r="2.69" transform="translate(18.41 8.238)"/>
        <path id="Path_279" data-name="Path 279" class="cls-10" d="M315.559,119.789a7.1,7.1,0,0,0-2.128-1.119,2.6,2.6,0,0,0-1.525-.122,3.858,3.858,0,0,0-2,1.047,3,3,0,0,0-.515.9,8.082,8.082,0,0,0,.065,2.08,4.175,4.175,0,0,1-.925,2.22,9.887,9.887,0,0,0-.844,2.38c-.1.263-.126.628.119.76.215.119.475-.03.674-.173l1.2-.865a.688.688,0,0,1,1.01.074l2.511,1.776a.77.77,0,0,0,.012-.653,2.539,2.539,0,0,1,.614.409.511.511,0,0,0,.673-.01.474.474,0,0,0-.131-.616c-.168-.158-.388-.252-.552-.414-.326-.324-.359-.835-.564-1.244a6.674,6.674,0,0,1-.489-.833,2.135,2.135,0,0,1,.269-1.518,2.926,2.926,0,0,1,1.1-1.477c.186-.1.391-.16.581-.251a3.134,3.134,0,0,0,1.3-1.242C316.216,120.466,315.9,120.054,315.559,119.789Z" transform="translate(-292.399 -111.491)"/>
        <path id="Path_280" data-name="Path 280" class="cls-5" d="M308.4,231.338c.257.164.548.269.8.44a.977.977,0,0,1,.482.736,1.294,1.294,0,0,1-.359.778l-2.185,2.867,1.114.3a2.909,2.909,0,0,0-.318.854.925.925,0,0,1-.567.669c-.269.069-.551-.073-.829-.057-.205.013-.4.109-.6.117a1.284,1.284,0,0,1-.731-.276,1.836,1.836,0,0,1-.976-1.393,2.1,2.1,0,0,1,.119-.587,6.97,6.97,0,0,1,2.559-4.25,1.151,1.151,0,0,1,.346-.239,1.46,1.46,0,0,1,.9.111c.3.086.671.1.842-.155" transform="translate(-289.314 -214.149)"/>
        <path id="Path_281" data-name="Path 281" class="cls-14" d="M307.361,229.3c.257.163.548.269.8.44a.981.981,0,0,1,.482.735,1.261,1.261,0,0,1-.359.779l-2.186,2.864,1.114.3a2.9,2.9,0,0,0-.318.854.923.923,0,0,1-.567.669c-.269.069-.551-.073-.829-.056-.205.012-.4.109-.6.117a1.284,1.284,0,0,1-.731-.276,1.831,1.831,0,0,1-.975-1.392,2.065,2.065,0,0,1,.118-.587,9.3,9.3,0,0,1,1.323-3,9.671,9.671,0,0,1,1.236-1.256,1.186,1.186,0,0,1,.346-.239,1.454,1.454,0,0,1,.9.112c.3.087.671.1.842-.155" transform="translate(-288.367 -212.292)"/>
        <g id="Group_65" data-name="Group 65" class="cls-15" transform="translate(41.161 5.671)">
          <path id="Path_282" data-name="Path 282" d="M597.178,118a1.848,1.848,0,0,0,.874.605,3.346,3.346,0,0,0,1.955.115c.628-.152,1.283-.484,1.873-.222a1.318,1.318,0,0,0,.421.167.717.717,0,0,0,.412-.139,2.122,2.122,0,0,0,.856-.935.228.228,0,0,0,.005.06,1.767,1.767,0,0,1-.955,1.47.708.708,0,0,1-.411.138,1.32,1.32,0,0,1-.421-.166c-.589-.262-1.248.07-1.873.222a3.361,3.361,0,0,1-1.955-.115,1.85,1.85,0,0,1-.874-.605.959.959,0,0,1-.107-1.012l.013-.022A1.1,1.1,0,0,0,597.178,118Z" transform="translate(-596.877 -116.326)"/>
          <path id="Path_283" data-name="Path 283" d="M599.657,103.976a.629.629,0,0,1-.156.371.565.565,0,0,1-.026-.09.691.691,0,0,1,.135-.457A.6.6,0,0,1,599.657,103.976Z" transform="translate(-599.237 -103.8)"/>
        </g>
        <path id="Path_284" data-name="Path 284" class="cls-5" d="M473.131,51.817l-.77,2.2a6.072,6.072,0,0,0,.849.4,1.025,1.025,0,0,1,.613.667c.044.234-.039.5.1.7a.609.609,0,0,0,.594.179,2.273,2.273,0,0,1,.647-.072c.538.082.738.412,1.236,0s.678.076,1.141.336a1.967,1.967,0,0,0,1.4.1,1.883,1.883,0,0,0,.735-.309,1.149,1.149,0,0,0,.09-.082,1,1,0,0,1-.3.373,1.884,1.884,0,0,1-.735.31,1.975,1.975,0,0,1-1.4-.1c-.463-.26-.653-.734-1.141-.336s-.7.077-1.236,0a2.244,2.244,0,0,0-.647.072.606.606,0,0,1-.594-.179c-.136-.2-.053-.465-.1-.7a1.026,1.026,0,0,0-.613-.667,6.166,6.166,0,0,1-.849-.4l.773-2.211a1.792,1.792,0,0,1,.368-.679,3,3,0,0,0-.16.387Z" transform="translate(-442.175 -50.456)"/>
        <g id="Group_66" data-name="Group 66" class="cls-15" transform="translate(15.221 7.97)">
          <path id="Path_285" data-name="Path 285" d="M359.813,138.164a.47.47,0,0,0,.574-.065.489.489,0,0,0-.131-.616c-.168-.159-.388-.252-.552-.414-.326-.323-.359-.834-.564-1.243a6.749,6.749,0,0,1-.489-.834,2.133,2.133,0,0,1,.269-1.517,2.926,2.926,0,0,1,1.1-1.477c.186-.1.391-.16.581-.251a3.135,3.135,0,0,0,1.3-1.243c.195-.4-.08-.8-.406-1.064.159.1.314.212.465.327.345.269.656.677.448,1.1a3.133,3.133,0,0,1-1.3,1.242c-.19.09-.4.151-.581.251a2.926,2.926,0,0,0-1.1,1.477,2.126,2.126,0,0,0-.269,1.518,6.669,6.669,0,0,0,.489.833c.208.409.239.92.564,1.244.164.162.385.256.552.414a.491.491,0,0,1,.131.616c-.138.183-.466.145-.673.01C360.082,138.38,359.956,138.257,359.813,138.164Z" transform="translate(-354.021 -129.44)"/>
          <path id="Path_286" data-name="Path 286" d="M307.982,207.233l1.2-.865a.686.686,0,0,1,1.01.074l2.511,1.776a.772.772,0,0,0,.012-.654,2.5,2.5,0,0,1,.6.4.67.67,0,0,0-.09-.033.77.77,0,0,1-.012.653l-2.511-1.776a.688.688,0,0,0-1.01-.074l-1.2.865c-.2.143-.459.292-.674.173a.394.394,0,0,1-.187-.346A1.3,1.3,0,0,0,307.982,207.233Z" transform="translate(-307.628 -199.304)"/>
        </g>
        <path id="Path_287" data-name="Path 287" class="cls-13" d="M582.561,272.591s-5.139.412-6.161-.317l4.7-.725Z" transform="translate(-537.076 -250.835)"/>
        <path id="Path_288" data-name="Path 288" class="cls-5" d="M582.561,272.591s-5.139.412-6.161-.317l4.7-.725Z" transform="translate(-537.076 -250.835)"/>
        <path id="Path_289" data-name="Path 289" class="cls-13" d="M574.96,264.216l-1.439-.911s-4.294,1.234-5.471.725l1.2-1.68,4.255.83Z" transform="translate(-529.475 -242.46)"/>
        <path id="Path_290" data-name="Path 290" class="cls-10" d="M553.1,128.378a2.527,2.527,0,0,0-.378.663c-.041.126-.062.258-.1.387a2.971,2.971,0,0,1-.448.889,5.142,5.142,0,0,0-1.106,2.036,3.435,3.435,0,0,0,.081,1.146,3.091,3.091,0,0,0,.212.724c.114.246.283.462.413.7a4.966,4.966,0,0,1,.3.725,3.547,3.547,0,0,0,.367-.538.692.692,0,0,1,.522-.343c.249,0,.455.206.7.239a.2.2,0,0,0,.115-.011c.09-.042.1-.163.09-.26-.071-.677-.458-1.345-.275-2,.169-.607.771-.986,1.088-1.531a3.517,3.517,0,0,0,.359-1.316,8.158,8.158,0,0,0,.119-1.636c-.017-.275-.236-2.015-.636-1.833-.139.063-.26.329-.347.448l-.359.508Z" transform="translate(-513.998 -118.704)"/>
        <path id="Path_291" data-name="Path 291" class="cls-13" d="M249.337,230.217l-2.885,2.349-3.712-.664,2.5-1.962Z" transform="translate(-220.971 -209.319)"/>
        <path id="Path_292" data-name="Path 292" class="cls-5" d="M250.5,228.587l-2.885,2.349-3.712-.664,2.5-1.962Z" transform="translate(-222.027 -207.836)"/>
        <path id="Path_293" data-name="Path 293" class="cls-13" d="M250.258,227.188l-2.885,2.348-3.713-.663,2.5-1.963Z" transform="translate(-221.808 -206.561)"/>
        <path id="Path_294" data-name="Path 294" class="cls-5" d="M251.188,224.167l-2.886,2.349-3.712-.664,2.5-1.962Z" transform="translate(-222.655 -203.812)"/>
        <path id="Path_295" data-name="Path 295" class="cls-13" d="M250.957,222.777l-2.885,2.349-3.712-.664,2.5-1.962Z" transform="translate(-222.446 -202.547)"/>
        <path id="Path_296" data-name="Path 296" class="cls-10" d="M872.628,623.525h0a.464.464,0,0,1,.666.381l.161,2.081-.952.172-.5-1.5Z" transform="translate(-806.166 -571.202)"/>
        <path id="Path_297" data-name="Path 297" class="cls-10" d="M353.879,467.321l-14.576,7.4a1.014,1.014,0,0,0,.007,1.811L370.7,492.283a3.81,3.81,0,0,0,3.581-.09l13.223-7.456a1.014,1.014,0,0,0-.06-1.794l-32.672-15.632A1.014,1.014,0,0,0,353.879,467.321Z" transform="translate(-320.738 -428.95)"/>
        <path id="Path_298" data-name="Path 298" class="cls-10" d="M338.831,536.56l-.456.339-.036,1.623a.675.675,0,0,0,.366.615l31.929,16.385a.475.475,0,0,0,.693-.422v-2.358Z" transform="translate(-320.363 -492.079)"/>
        <path id="Path_299" data-name="Path 299" class="cls-13" d="M353.865,446.336l-14.576,7.4a1.014,1.014,0,0,0,0,1.811l31.4,15.754a3.813,3.813,0,0,0,3.581-.09l13.223-7.457a1.014,1.014,0,0,0-.06-1.794l-32.672-15.631A1.015,1.015,0,0,0,353.865,446.336Z" transform="translate(-320.725 -409.846)"/>
        <path id="Path_300" data-name="Path 300" class="cls-10" d="M240.16,421.86l-16.06,8.155,27.6,13.8,16.562-8.407Z" transform="translate(-204.002 -384.028)"/>
        <ellipse id="Ellipse_57" data-name="Ellipse 57" class="cls-10" cx="1.694" cy="1.004" rx="1.694" ry="1.004" transform="translate(56.107 55.273)"/>
        <circle id="Ellipse_58" data-name="Ellipse 58" class="cls-10" cx="0.157" cy="0.157" r="0.157" transform="translate(26.747 40.279)"/>
        <circle id="Ellipse_59" data-name="Ellipse 59" class="cls-10" cx="0.188" cy="0.188" r="0.188" transform="translate(26.246 41.471)"/>
        <line id="Line_15" data-name="Line 15" class="cls-16" y1="0.878" x2="1.882" transform="translate(27.124 40.467)"/>
        <rect id="Rectangle_775" data-name="Rectangle 775" class="cls-3" width="9.364" height="3.229" rx="1.614" transform="translate(37.088 49.302) rotate(-30)"/>
        <rect id="Rectangle_776" data-name="Rectangle 776" class="cls-3" width="9.364" height="3.229" rx="1.614" transform="translate(41.841 51.724) rotate(-30)"/>
        <rect id="Rectangle_777" data-name="Rectangle 777" class="cls-3" width="9.364" height="3.229" rx="1.614" transform="translate(32.783 46.523) rotate(-30)"/>
      </g>
    </g>
  </g>
</svg>
