<svg xmlns="http://www.w3.org/2000/svg" xmlns:xlink="http://www.w3.org/1999/xlink" viewBox="0 0 124.706 124.706">
  <defs>
    <style>
      .cls-1 {
        fill: #fff;
      }

      .cls-19, .cls-2, .cls-25 {
        fill: #a9001d;
      }

      .cls-2, .cls-20, .cls-24 {
        opacity: 0.1;
      }

      .cls-3 {
        fill: none;
        stroke: #fff;
        stroke-miterlimit: 10;
        opacity: 0.03;
      }

      .cls-4 {
        fill: #3f3d56;
      }

      .cls-5 {
        fill: url(#linear-gradient);
      }

      .cls-6 {
        fill: #7cfcff;
      }

      .cls-7 {
        fill: url(#linear-gradient-2);
      }

      .cls-8 {
        fill: url(#linear-gradient-4);
      }

      .cls-9 {
        fill: url(#linear-gradient-5);
      }

      .cls-10 {
        fill: url(#linear-gradient-6);
      }

      .cls-11 {
        fill: #ffffa5;
      }

      .cls-12 {
        fill: #ff69b4;
      }

      .cls-13 {
        fill: url(#linear-gradient-23);
      }

      .cls-14 {
        fill: #ee8e9e;
      }

      .cls-15 {
        fill: #65617d;
      }

      .cls-16 {
        opacity: 0.05;
      }

      .cls-17 {
        fill: #e8eaf2;
      }

      .cls-18 {
        fill: #303d5c;
      }

      .cls-21 {
        fill: url(#linear-gradient-24);
      }

      .cls-22 {
        fill: #444053;
      }

      .cls-23 {
        fill: #efb7b9;
      }

      .cls-25 {
        opacity: 0.2;
      }

      .cls-26 {
        filter: url(#Ellipse_4);
      }
    </style>
    <filter id="Ellipse_4" x="0" y="0" width="124.706" height="124.706" filterUnits="userSpaceOnUse">
      <feOffset dy="3" input="SourceAlpha"/>
      <feGaussianBlur stdDeviation="3" result="blur"/>
      <feFlood flood-opacity="0.161"/>
      <feComposite operator="in" in2="blur"/>
      <feComposite in="SourceGraphic"/>
    </filter>
    <linearGradient id="linear-gradient" x1="0.5" y1="1" x2="0.5" gradientUnits="objectBoundingBox">
      <stop offset="0" stop-color="gray" stop-opacity="0.251"/>
      <stop offset="0.54" stop-color="gray" stop-opacity="0.122"/>
      <stop offset="1" stop-color="gray" stop-opacity="0.102"/>
    </linearGradient>
    <linearGradient id="linear-gradient-2" y1="1" y2="0" xlink:href="#linear-gradient"/>
    <linearGradient id="linear-gradient-4" y1="1" y2="0" xlink:href="#linear-gradient"/>
    <linearGradient id="linear-gradient-5" y1="1" y2="0" xlink:href="#linear-gradient"/>
    <linearGradient id="linear-gradient-6" y1="1" y2="0" xlink:href="#linear-gradient"/>
    <linearGradient id="linear-gradient-23" x1="-1.293" y1="1" x2="-1.293" y2="0" xlink:href="#linear-gradient"/>
    <linearGradient id="linear-gradient-24" x1="0.419" y1="1" x2="0.419" y2="0" xlink:href="#linear-gradient"/>
  </defs>
  <g id="Group_131" data-name="Group 131" transform="translate(-1236.656 -1680)">
    <g class="cls-26" transform="matrix(1, 0, 0, 1, 1236.66, 1680)">
      <circle id="Ellipse_4-2" data-name="Ellipse 4" class="cls-1" cx="53.353" cy="53.353" r="53.353" transform="translate(9 6)"/>
    </g>
    <g id="undraw_scrum_board_cesn_1_" data-name="undraw_scrum_board_cesn (1)" transform="translate(1255.26 1708.408)">
      <path id="Path_356" data-name="Path 356" class="cls-2" d="M99.307,71.791a23.978,23.978,0,0,1-.53,5.04q-.178.832-.414,1.631-.292,1-.668,1.932-.191.476-.4.936a14.283,14.283,0,0,1-.912,5.061A12.409,12.409,0,0,1,90.9,92.915a10.261,10.261,0,0,1-4.992,1.3H27.837A13.316,13.316,0,0,1,19.5,91.232a15.372,15.372,0,0,1-1.915-1.824,16.29,16.29,0,0,1-2.105-3.018,17.955,17.955,0,0,1-2.141-8.586A22.72,22.72,0,0,1,11.09,67.779a21.968,21.968,0,0,1,3.476-12.162,16.632,16.632,0,0,1,1.476-1.9,14.441,14.441,0,0,1,1.688-1.6,12.844,12.844,0,0,1,1.5-1.038c.216-.127.434-.247.655-.359q.291-.15.589-.279.357-.157.724-.288t.723-.23a10.223,10.223,0,0,1,1.067-.237q.449-.078.9-.115.357-.029.721-.034h.131c.267,0,.532.013.795.033.028-.064.058-.129.085-.193.1-.231.213-.46.323-.686a.026.026,0,0,0,0-.006c.019-.039.037-.075.057-.116.088-.184.181-.367.275-.548.043-.084.086-.167.13-.25.01-.019.019-.038.031-.058.045-.086.091-.172.137-.257q.347-.639.721-1.258c.022-.035.042-.07.064-.1.039-.064.075-.127.118-.19.1-.168.21-.335.317-.5.075-.117.15-.234.231-.349q.292-.438.6-.865t.638-.854c.03-.039.06-.075.091-.116l.32-.4h0l.044-.055h0l.116-.142c.172-.209.348-.416.524-.62a30.167,30.167,0,0,1,2.869-2.887c.04-.037.08-.075.12-.106.19-.166.383-.329.577-.489a30.227,30.227,0,0,1,3.326-2.4c.079-.051.16-.1.242-.15a30.248,30.248,0,0,1,3.182-1.693q.9-.413,1.816-.765c.406-.154.813-.3,1.226-.437q.957-.316,1.938-.573a30.33,30.33,0,0,1,5.86-.923q.9-.054,1.818-.054a30.441,30.441,0,0,1,8.762,1.28.306.306,0,0,0,.272.163h.252c.109.034.218.07.327.106q.916.3,1.806.666l.15.061a30.375,30.375,0,0,1,7.831,4.708q.263.216.518.44.31-.23.631-.44a11.535,11.535,0,0,1,2.612-1.287,10.386,10.386,0,0,1,5.86-.265,12.647,12.647,0,0,1,6.566,4.278,17.568,17.568,0,0,1,1.969,2.888c.041.075.082.15.122.225a20.341,20.341,0,0,1,1.254,2.887c.013.036.025.075.037.108a22.362,22.362,0,0,1,.771,2.886c.009.049.019.1.028.15a23.806,23.806,0,0,1,.369,2.887.623.623,0,0,0,.006.106q.047.753.048,1.523,0,.689-.038,1.365c0,.05-.006.1-.01.15-.007.131-.016.262-.026.392a15.383,15.383,0,0,1,1.6,1.744q.327.414.634.858A18.717,18.717,0,0,1,97.313,62.3,22.879,22.879,0,0,1,99.307,71.791Z" transform="translate(-11.09 -31.53)"/>
      <path id="Path_357" data-name="Path 357" class="cls-2" d="M204.37,776.276c0,1.112-3.439,2.127-9.091,2.894H142.251c-5.651-.767-9.09-1.782-9.09-2.894,0-.847,2-1.638,5.445-2.306h0l.1-.019c.974-.187,2.062-.363,3.251-.529l.091-.013h0q1.416-.2,3.012-.369l.1-.011q.616-.067,1.257-.13h0l.165-.016c3.112-.3,6.649-.542,10.486-.7h0q.806-.034,1.629-.063.915-.034,1.853-.06c.477-.014.96-.026,1.445-.037h.011c2.186-.052,4.445-.079,6.755-.079,5.712,0,11.11.164,15.894.455h.013c.736.045,1.458.092,2.162.143l.6.044q1.192.09,2.322.19h0C198.615,773.562,204.37,774.837,204.37,776.276Z" transform="translate(-124.017 -716.484)"/>
      <path id="Path_358" data-name="Path 358" class="cls-3" d="M272.845,133.048v2.272a.307.307,0,0,1-.307.308H268.38a30.168,30.168,0,0,1,2.869-2.887h1.29A.307.307,0,0,1,272.845,133.048Z" transform="translate(-249.109 -125.159)"/>
      <path id="Path_359" data-name="Path 359" class="cls-1" d="M232.637,125.772V159.9a.9.9,0,0,1-.9.9H170.809a.9.9,0,0,1-.9-.9V136.049q.449-.078.9-.115.357-.029.721-.034h.131c.267,0,.532.013.795.033.028-.064.058-.129.085-.193.1-.231.214-.46.323-.686a.028.028,0,0,0,0-.006c.019-.039.037-.075.057-.116.088-.184.18-.367.275-.548.043-.084.086-.167.13-.25.01-.019.019-.038.031-.058.045-.086.091-.172.137-.257q.347-.639.721-1.258c.022-.035.042-.07.064-.1.039-.064.075-.127.118-.19.1-.168.21-.335.317-.5.075-.117.15-.234.231-.349q.292-.438.6-.865t.638-.854c.03-.039.06-.075.091-.116l.32-.4h0l.044-.055h0l.116-.142c.172-.209.348-.416.524-.62a30.169,30.169,0,0,1,2.869-2.887c.04-.037.08-.075.12-.106.19-.166.383-.329.577-.489h38.813q.263.216.518.44.31-.23.631-.44h10.935A.9.9,0,0,1,232.637,125.772Z" transform="translate(-158.015 -117.888)"/>
      <path id="Path_360" data-name="Path 360" class="cls-4" d="M284.522,212.09v.849H229.88c.1-.168.21-.335.318-.5.075-.117.15-.234.23-.349Z" transform="translate(-213.493 -198.566)"/>
      <rect id="Rectangle_778" data-name="Rectangle 778" class="cls-4" width="32.345" height="0.849" transform="translate(59.309 9.374) rotate(90)"/>
      <rect id="Rectangle_779" data-name="Rectangle 779" class="cls-4" width="32.345" height="0.849" transform="translate(43.683 9.374) rotate(90)"/>
      <rect id="Rectangle_780" data-name="Rectangle 780" class="cls-4" width="32.345" height="0.849" transform="translate(28.057 9.374) rotate(90)"/>
      <path id="Path_361" data-name="Path 361" class="cls-5" d="M212.824,247.6v3.345H209.37v-2.373c.019-.039.037-.075.057-.116.089-.184.181-.367.276-.548.043-.084.085-.167.13-.25.01-.019.02-.038.031-.058Z" transform="translate(-194.519 -231.417)"/>
      <path id="Path_362" data-name="Path 362" class="cls-6" d="M213.505,248.342v3.23H210.17v-2.434c.089-.184.181-.367.276-.548.043-.084.085-.167.13-.25Z" transform="translate(-195.259 -232.101)"/>
      <rect id="Rectangle_781" data-name="Rectangle 781" class="cls-7" width="3.455" height="3.345" transform="translate(28.842 15.164)"/>
      <rect id="Rectangle_782" data-name="Rectangle 782" class="cls-6" width="3.336" height="3.23" transform="translate(28.902 15.222)"/>
      <rect id="Rectangle_783" data-name="Rectangle 783" class="cls-7" width="3.455" height="3.345" transform="translate(44.447 21.658)"/>
      <rect id="Rectangle_784" data-name="Rectangle 784" class="cls-6" width="3.336" height="3.23" transform="translate(44.507 21.716)"/>
      <rect id="Rectangle_785" data-name="Rectangle 785" class="cls-8" width="3.455" height="3.345" transform="translate(60.371 23.874)"/>
      <rect id="Rectangle_786" data-name="Rectangle 786" class="cls-6" width="3.336" height="3.23" transform="translate(60.43 23.932)"/>
      <rect id="Rectangle_787" data-name="Rectangle 787" class="cls-9" width="3.455" height="3.345" transform="translate(64.637 26.039)"/>
      <rect id="Rectangle_788" data-name="Rectangle 788" class="cls-6" width="3.336" height="3.23" transform="translate(64.697 26.097)"/>
      <rect id="Rectangle_789" data-name="Rectangle 789" class="cls-10" width="3.455" height="3.345" transform="translate(69.988 20.253)"/>
      <rect id="Rectangle_790" data-name="Rectangle 790" class="cls-6" width="3.336" height="3.23" transform="translate(70.047 20.311)"/>
      <rect id="Rectangle_791" data-name="Rectangle 791" class="cls-8" width="3.455" height="3.345" transform="translate(68.905 24.947)"/>
      <rect id="Rectangle_792" data-name="Rectangle 792" class="cls-6" width="3.336" height="3.23" transform="translate(68.964 25.004)"/>
      <rect id="Rectangle_793" data-name="Rectangle 793" class="cls-7" width="3.455" height="3.345" transform="translate(33.555 15.164)"/>
      <rect id="Rectangle_794" data-name="Rectangle 794" class="cls-6" width="3.336" height="3.23" transform="translate(33.615 15.222)"/>
      <rect id="Rectangle_795" data-name="Rectangle 795" class="cls-10" width="3.455" height="3.345" transform="translate(17.412 23.273)"/>
      <rect id="Rectangle_796" data-name="Rectangle 796" class="cls-11" width="3.336" height="3.23" transform="translate(17.471 23.331)"/>
      <rect id="Rectangle_797" data-name="Rectangle 797" class="cls-9" width="3.455" height="3.345" transform="translate(31.335 19.986)"/>
      <rect id="Rectangle_798" data-name="Rectangle 798" class="cls-11" width="3.336" height="3.23" transform="translate(31.395 20.044)"/>
      <rect id="Rectangle_799" data-name="Rectangle 799" class="cls-8" width="3.455" height="3.345" transform="translate(49.344 17.987)"/>
      <rect id="Rectangle_800" data-name="Rectangle 800" class="cls-11" width="3.336" height="3.23" transform="translate(49.403 18.045)"/>
      <rect id="Rectangle_801" data-name="Rectangle 801" class="cls-9" width="3.455" height="3.345" transform="translate(67.574 15.641)"/>
      <rect id="Rectangle_802" data-name="Rectangle 802" class="cls-11" width="3.336" height="3.23" transform="translate(67.634 15.699)"/>
      <rect id="Rectangle_803" data-name="Rectangle 803" class="cls-10" width="3.455" height="3.345" transform="translate(53.902 15.164)"/>
      <rect id="Rectangle_804" data-name="Rectangle 804" class="cls-11" width="3.336" height="3.23" transform="translate(53.962 15.222)"/>
      <rect id="Rectangle_805" data-name="Rectangle 805" class="cls-7" width="3.455" height="3.345" transform="translate(53.706 21.658)"/>
      <rect id="Rectangle_806" data-name="Rectangle 806" class="cls-11" width="3.336" height="3.23" transform="translate(53.766 21.716)"/>
      <rect id="Rectangle_807" data-name="Rectangle 807" class="cls-9" width="3.455" height="3.345" transform="translate(38.195 16.78)"/>
      <rect id="Rectangle_808" data-name="Rectangle 808" class="cls-11" width="3.336" height="3.23" transform="translate(38.255 16.837)"/>
      <rect id="Rectangle_809" data-name="Rectangle 809" class="cls-9" width="3.455" height="3.345" transform="translate(19.837 17.856)"/>
      <rect id="Rectangle_810" data-name="Rectangle 810" class="cls-12" width="3.336" height="3.23" transform="translate(19.897 17.914)"/>
      <rect id="Rectangle_811" data-name="Rectangle 811" class="cls-10" width="3.455" height="3.345" transform="translate(21.565 21.658)"/>
      <rect id="Rectangle_812" data-name="Rectangle 812" class="cls-12" width="3.336" height="3.23" transform="translate(21.624 21.716)"/>
      <rect id="Rectangle_813" data-name="Rectangle 813" class="cls-8" width="3.455" height="3.345" transform="translate(35.896 22.202)"/>
      <rect id="Rectangle_814" data-name="Rectangle 814" class="cls-12" width="3.336" height="3.23" transform="translate(35.955 22.259)"/>
      <rect id="Rectangle_815" data-name="Rectangle 815" class="cls-9" width="3.455" height="3.345" transform="translate(61.182 15.641)"/>
      <rect id="Rectangle_816" data-name="Rectangle 816" class="cls-12" width="3.336" height="3.23" transform="translate(61.242 15.699)"/>
      <rect id="Rectangle_817" data-name="Rectangle 817" class="cls-7" width="3.455" height="3.345" transform="translate(64.239 20.253)"/>
      <rect id="Rectangle_818" data-name="Rectangle 818" class="cls-12" width="3.336" height="3.23" transform="translate(64.299 20.311)"/>
      <rect id="Rectangle_819" data-name="Rectangle 819" class="cls-7" width="3.455" height="3.345" transform="translate(44.749 15.164)"/>
      <rect id="Rectangle_820" data-name="Rectangle 820" class="cls-12" width="3.336" height="3.23" transform="translate(44.809 15.222)"/>
      <rect id="Rectangle_821" data-name="Rectangle 821" class="cls-8" width="3.455" height="3.345" transform="translate(48.953 24.947)"/>
      <rect id="Rectangle_822" data-name="Rectangle 822" class="cls-12" width="3.336" height="3.23" transform="translate(49.012 25.004)"/>
      <path id="Path_363" data-name="Path 363" class="cls-13" d="M707.548,255.531a.661.661,0,0,0-.264-.443,2.626,2.626,0,0,0-.458-.265.375.375,0,0,1-.133-.1,1.2,1.2,0,0,1-.075-.144c-.09-.157-.285-.206-.437-.3a1.376,1.376,0,0,1-.512-.768c-.008-.02-.014-.039-.021-.058a2.041,2.041,0,0,0-.443-.833.951.951,0,0,0-1.189-.064.281.281,0,0,1-.168.083.317.317,0,0,1-.161-.087.657.657,0,0,0-.4-.111,3.821,3.821,0,0,1-.113-.835V251.6h0a.013.013,0,0,1,0-.005h0v-.208h.047a.538.538,0,0,0,.166-.019.455.455,0,0,0,.065-.024h0a.979.979,0,0,0,.414-.533c.06-.141.115-.285.162-.433.006-.019.011-.037.018-.057h0c.008-.03.018-.061.025-.091a.132.132,0,0,1,.008-.029c0-.01.005-.019.008-.028l.007-.031.038.027h0l.007,0,.082.058a3.1,3.1,0,0,0,.96.52h0a.087.087,0,0,0,.049-.01c.109-.06-.1-.283-.361-.51-.022-.019-.045-.038-.068-.058-.194-.164-.4-.323-.524-.414l-.112-.082a1.108,1.108,0,0,0,.276-.6,4.661,4.661,0,0,0,.07-.628v-.01a2.536,2.536,0,0,0-.06-.674,1.56,1.56,0,0,0-.749-1.038c-.112-.058-.24-.1-.351-.167-.021-.012-.04-.025-.059-.037h0a.525.525,0,0,1-.1-.083.344.344,0,0,1-.049-.067.2.2,0,0,1-.02-.035.448.448,0,0,0-.055-.107c-.075-.083-.2-.058-.309-.045h-.094c-.389.009-.764-.208-1.157-.208a2.949,2.949,0,0,0-1.175.42c-.075.035-.15.067-.217.1s-.11.054-.162.083h0c-.02.011-.04.023-.059.037h0a.83.83,0,0,0-.32.374.769.769,0,0,0-.158.3.739.739,0,0,0-.02.156,2.6,2.6,0,0,0-.777,1.85v.113a2.6,2.6,0,0,0,1.849,2.379h0c.029.009.059.018.09.025.008.025.018.051.026.075.016.049.031.1.042.145h0a.7.7,0,0,1,.018.075,2.034,2.034,0,0,1,.054.509v.045h0v.005a1.971,1.971,0,0,0-.562.225,1.084,1.084,0,0,0-.473.582.469.469,0,0,0-.015.055,1.505,1.505,0,0,0-.428-.075.456.456,0,0,0-.368.11.332.332,0,0,0-.068.142c-.051.046-.06.126-.1.187-.109.192-.394.129-.608.181a.417.417,0,0,0-.064.021h0c-.2.075-.375.255-.59.256a1.506,1.506,0,0,0-.258-.014l-.016,0c-.089.022-.16.145-.091.207a.293.293,0,0,0-.276.133c-.067.085-.109.187-.181.267a.28.28,0,0,0-.284-.11,1.027,1.027,0,0,0-.3.118.411.411,0,0,1-.133.046.573.573,0,0,1-.16-.014,1.288,1.288,0,0,0-.756.106c-.207.1-.407-.082-.635-.1a.352.352,0,0,1-.232-.075.1.1,0,0,1-.017-.019.352.352,0,0,1-.033-.058c-.015-.034-.025-.075-.037-.107a.91.91,0,0,0-.628-.581l-.038-.009a.662.662,0,0,0,.032-.132h0a.778.778,0,0,0-.488-.824.824.824,0,0,0-.285-.721,1.242,1.242,0,0,1-.136-.107l-.008-.006a.351.351,0,0,1-.052-.068h0a1.077,1.077,0,0,1-.079-.175c-.067-.178-.135-.356-.2-.535-.09-.018-.159-.055-.245-.07v-.055a1.779,1.779,0,0,0-.092-.537,2.483,2.483,0,0,0-.291-.578h0c-.019-.03-.038-.059-.059-.088h0c-.025-.04-.053-.075-.08-.117a2.318,2.318,0,0,0-.694-.7,2.691,2.691,0,0,0-.3-.136l-.524-.215a.247.247,0,0,0-.094-.025c-.126,0-.159.173-.109.292a.29.29,0,0,0,.022.04c.159.234.517.3.616.564a.361.361,0,0,0-.137.029.4.4,0,0,0-.234.261.214.214,0,0,1-.049.117c-.047.037-.118.016-.17.044-.093.049-.053.188-.063.293a1.32,1.32,0,0,1-.1.264.464.464,0,0,0-.011.213l0,.022h0a.264.264,0,0,0,.007.033.675.675,0,0,0,.092.207,1.677,1.677,0,0,0,.341.346c.085.07.172.142.264.206.026.018.052.035.075.052l-.008.014a.1.1,0,0,1-.013.032h0a.165.165,0,0,0-.009.093.15.15,0,0,0,.029.061h0a.58.58,0,0,0,.066.067,1.348,1.348,0,0,1,.411.741.459.459,0,0,1-.006.168h0a1.372,1.372,0,0,0-.067.34.525.525,0,0,0,.01.084h0a1.762,1.762,0,0,0,.118.387,2.523,2.523,0,0,0,.565.974,3.155,3.155,0,0,0,.634,1.56,5,5,0,0,0,1.067.935,2,2,0,0,0,.394.247,2.261,2.261,0,0,0,.391.106,20.068,20.068,0,0,0,3.269.382l.15.005h.008c0,.058.005.115.008.173q.038.864.035,1.729v.155a.871.871,0,0,1-.046.332.961.961,0,0,1-.156.225l-.044.055a1.732,1.732,0,0,0-.261,1.084v.007a1.667,1.667,0,0,0,.006.172,11.769,11.769,0,0,0,.184,1.535c.088.481.051,1,.12,1.486a2.409,2.409,0,0,0,.12.488l.271.729a.64.64,0,0,1,.054.215.354.354,0,0,1-.005.07h0a1.228,1.228,0,0,1-.179.362,1.252,1.252,0,0,0-.158.662v.019h0a.107.107,0,0,0,.018.054c.029.04.091.037.139.029a5.565,5.565,0,0,1,.588-.055h.021l-.021.025h0c-.022.031-.045.064-.067.1h0l-.01.018a2.242,2.242,0,0,0-.13.265,2.5,2.5,0,0,0-.172.476.437.437,0,0,0-.017.075c-.012.049-.023.1-.03.15a4.746,4.746,0,0,0-.054.779v.108c-.006.116-.012.234-.019.348a5.642,5.642,0,0,1-.089.92.757.757,0,0,0-.025.255v0a2.081,2.081,0,0,0,.048.339c.023.118.054.24.085.361v.012a1.306,1.306,0,0,0,.009.133v.006a2.2,2.2,0,0,0,.119.579v.1c0,.005,0,.01,0,.015h0c0,.054.007.109.012.163.016.158.043.315.075.473v.026q.225,1.248.457,2.495c.009.05.019.1.028.15q.252,1.335.524,2.666c.016.075.03.15.047.225.008.035.016.071.025.106s.021.086.032.129a3.7,3.7,0,0,0,.682,1.348,6.174,6.174,0,0,1,.711,1.14.127.127,0,0,1-.008.033h0c-.016.079-.034.158-.053.237l0,.018a20.69,20.69,0,0,0-.557,2.547c-.007.062-.012.124-.018.187a2.746,2.746,0,0,1-.165.83c-.032.075-.071.146-.105.22a.8.8,0,0,0-.08.272.2.2,0,0,0,0,.037.037.037,0,0,0,0,.01.009.009,0,0,0,0,0h0a.539.539,0,0,0,.075.265l-.01.008-.059.046-.037.031a2.391,2.391,0,0,1-.924.33,1,1,0,0,0-.76.568c-.006.02-.01.04-.015.061a.217.217,0,0,0,0,.03h0a.54.54,0,0,0-.007.092v.007a.079.079,0,0,0,0,.014.853.853,0,0,0,.374.625,2.07,2.07,0,0,0,.914.28,3.033,3.033,0,0,1,.936.215,6.235,6.235,0,0,0,.723.416c.016.005.031.008.048.013l-.014.008c-.036.022-.075.043-.109.062l-.058.032a2.738,2.738,0,0,1-.873.278c-.309.043-.674.063-.834.331h0a.051.051,0,0,0-.006.013h0a.176.176,0,0,0-.017.041v.006a.083.083,0,0,0-.007.018.1.1,0,0,0-.007.02.116.116,0,0,1,0,.017.321.321,0,0,0-.013.059.492.492,0,0,0,.005.156.7.7,0,0,0,.2.365,1.456,1.456,0,0,0,.7.307,12.512,12.512,0,0,0,1.73.215l.564.043.605.045c.143.009.286.018.429.025s.273.011.409.014h.213q.524,0,1.042-.044c.335-.03.666-.075,1-.133a.224.224,0,0,0,.162-.075l.01-.019a.058.058,0,0,0,0-.013.031.031,0,0,0,0-.007.138.138,0,0,0,0-.014.214.214,0,0,0,0-.022v-.053c0-.071,0-.142-.005-.213v-.087l0-.088c-.005-.085-.01-.172-.018-.257l-.009-.1v-.034a.618.618,0,0,0-.008-.075.128.128,0,0,0-.005-.044l-.013-.121c-.01-.088-.022-.176-.035-.264q-.041-.288-.1-.572v-.01c-.014-.064-.028-.128-.042-.192-.047-.2-.323.075-.477.248-.02-.1-.041-.193-.067-.286h0v-.011l.121-.058a.431.431,0,0,0,.225-.186.32.32,0,0,0,.024-.1.452.452,0,0,0,0-.063v-.049a3.012,3.012,0,0,0-.261-1.3,2.756,2.756,0,0,0-.515-.628c0-.048-.005-.1-.008-.144-.022-.476-.055-.953-.1-1.428a20.832,20.832,0,0,0-.4-2.582c-.053-.23-.107-.46-.174-.687h0a4.49,4.49,0,0,0-.581-1.3c-.05-.075-.1-.15-.159-.225q-.024-.421-.075-.843c-.045-.386-.1-.771-.168-1.153-.005-.036-.012-.075-.016-.11v-.006a.363.363,0,0,1,.018-.15.889.889,0,0,1,.15-.2A.852.852,0,0,0,703.1,277q0-.011,0-.022c0-.2-.029-.408-.043-.605,0-.055-.005-.11-.005-.166h0V276.2h0v-.025c0-.058,0-.115,0-.172a7.532,7.532,0,0,1,.225-1.312c.107-.449.216-.892.322-1.338h0q.064-.261.125-.524c.016-.062.031-.124.045-.186a3.307,3.307,0,0,1,.174-.567,5.449,5.449,0,0,1,.444-.715,4.009,4.009,0,0,0,.625-2.129h0a.01.01,0,0,0,0-.005v-.009a.077.077,0,0,0,0-.015v-.15h0a.74.74,0,0,0-.007-.118c.093.033.187.067.279.1a1.572,1.572,0,0,0,.012-.169v-.006c.008-.347-.068-.715-.075-1.064a.05.05,0,0,1,0-.01v-.01a1.847,1.847,0,0,1,.023-.342,1.346,1.346,0,0,1,.038-.155c.026-.021.052-.042.075-.064h0a2.153,2.153,0,0,0,.618-.765c.135-.3.174-.642.315-.942a3.032,3.032,0,0,0,.239-.506.813.813,0,0,0,.025-.169v-.009a5.6,5.6,0,0,0-.037-.565h0v-.091c.007-.52.331-1.007.367-1.514v-.007a1.221,1.221,0,0,0-.012-.255c-.04-.252-.174-.488-.2-.74h0a.6.6,0,0,1,0-.1,1.467,1.467,0,0,1,.118-.455,6.752,6.752,0,0,0,.539-2.147.018.018,0,0,0,0-.007v-.016a2.688,2.688,0,0,0-.046-.6c-.034-.191-.091-.38-.106-.571a1.227,1.227,0,0,1,0-.15c.012-.21.089-.416.109-.623h0a.856.856,0,0,0,0-.2.632.632,0,0,0-.067-.2h0a.625.625,0,0,0-.057-.09,3.41,3.41,0,0,0,.3-.584,1.089,1.089,0,0,0,.075-.24A.558.558,0,0,0,707.548,255.531Zm-5.124,33.047h0l-.008,0a.935.935,0,0,0-.25-.071c-.021,0-.043,0-.064-.006h0a1.237,1.237,0,0,0,.025-.212v-.21c0-.042,0-.085-.007-.127s-.008-.091-.011-.137h0a.2.2,0,0,1,0-.021c.01.028.02.057.032.085q.139.361.3.711Zm1.734-38.9Z" transform="translate(-638.707 -229.918)"/>
      <path id="Path_364" data-name="Path 364" class="cls-14" d="M830.686,308.433c-.01.38-.139.749-.159,1.128,1.123.055,2.224-.488,3.331-.321a1.535,1.535,0,0,1-.572-.918,3.794,3.794,0,0,1-.109-1.41.588.588,0,0,1,.013-.075,1.96,1.96,0,0,0,.119-.6c-.037-.193-.22-.155-.384-.144a14.546,14.546,0,0,0-1.493.193c-.129.022-1.383.336-1.4.3a5.937,5.937,0,0,1,.543,1.118A2.179,2.179,0,0,1,830.686,308.433Z" transform="translate(-768.692 -285.524)"/>
      <path id="Path_365" data-name="Path 365" class="cls-14" d="M689.63,292.579a1.624,1.624,0,0,0,.342.344c.085.07.172.141.263.2a1.125,1.125,0,0,0,.56.225,1.467,1.467,0,0,0,1-.367.661.661,0,0,0,.1-.382,1.767,1.767,0,0,0-.091-.535,2.977,2.977,0,0,0-.432-.781,2.3,2.3,0,0,0-.694-.694,2.681,2.681,0,0,0-.295-.136l-.524-.214a.263.263,0,0,0-.1-.025c-.14,0-.166.215-.086.33.159.233.516.3.616.562a.4.4,0,0,0-.374.288.206.206,0,0,1-.05.117c-.046.037-.118.016-.17.043-.092.049-.052.187-.061.292a1.324,1.324,0,0,1-.1.262A.557.557,0,0,0,689.63,292.579Z" transform="translate(-638.706 -270.844)"/>
      <path id="Path_366" data-name="Path 366" class="cls-15" d="M868.382,808.666a.4.4,0,0,0-.347-.052,12.928,12.928,0,0,1-1.953.158c-.082-.4.156-.789.232-1.19a1.043,1.043,0,0,1,.075-.3.691.691,0,0,1,.494-.3c.352-.075.9-.205,1.1.15A5.239,5.239,0,0,1,868.382,808.666Z" transform="translate(-802.028 -748.822)"/>
      <path id="Path_367" data-name="Path 367" class="cls-4" d="M796.815,786.756a2.06,2.06,0,0,0,.914.279,2.948,2.948,0,0,1,.936.213,6.167,6.167,0,0,0,.723.414,1.5,1.5,0,0,0,.749.012,1.107,1.107,0,0,0,.773-.42,1.281,1.281,0,0,0,.108-.784c-.023-.3-.045-.607-.067-.91a.445.445,0,0,0-.056-.22c-.215-.312-.736.131-1.015.13a1.954,1.954,0,0,1-1.236-.534.382.382,0,0,0-.1-.075c-.126-.057-.252.048-.365.139l-.037.03a2.4,2.4,0,0,1-.924.329,1,1,0,0,0-.76.565.446.446,0,0,0-.015.061A.8.8,0,0,0,796.815,786.756Z" transform="translate(-737.615 -728.422)"/>
      <path id="Path_368" data-name="Path 368" class="cls-16" d="M796.815,786.756a2.06,2.06,0,0,0,.914.279,2.948,2.948,0,0,1,.936.213,6.167,6.167,0,0,0,.723.414,1.5,1.5,0,0,0,.749.012,1.107,1.107,0,0,0,.773-.42,1.281,1.281,0,0,0,.108-.784c-.023-.3-.045-.607-.067-.91a.445.445,0,0,0-.056-.22c-.215-.312-.736.131-1.015.13a1.954,1.954,0,0,1-1.236-.534.382.382,0,0,0-.1-.075c-.126-.057-.252.048-.365.139l-.037.03a2.4,2.4,0,0,1-.924.329,1,1,0,0,0-.76.565.446.446,0,0,0-.015.061A.8.8,0,0,0,796.815,786.756Z" transform="translate(-737.615 -728.422)"/>
      <path id="Path_369" data-name="Path 369" class="cls-17" d="M796.47,786.83a2.061,2.061,0,0,0,.914.279,2.939,2.939,0,0,1,.936.213,6.107,6.107,0,0,0,.724.414,1.5,1.5,0,0,0,.749.012,1.241,1.241,0,0,0,.773-.524,1.283,1.283,0,0,0,.108-.784c-.023-.3-.045-.607-.068-.91a.443.443,0,0,0-.056-.22c-.215-.312-.736.131-1.015.13a1.953,1.953,0,0,1-1.236-.533.378.378,0,0,0-.1-.075c-.127-.057-.253.048-.365.139a2.614,2.614,0,0,0,.311.641,1.342,1.342,0,0,0,.974.61,3.167,3.167,0,0,1,.592.026c.191.051.369.246.3.432s-.3.225-.493.231a2.206,2.206,0,0,1-.8-.056c-.157-.052-.3-.139-.449-.2-.648-.269-1.467-.118-2-.572a1.144,1.144,0,0,0-.163-.125C795.963,786.251,796.222,786.66,796.47,786.83Z" transform="translate(-737.27 -728.395)"/>
      <path id="Path_370" data-name="Path 370" class="cls-16" d="M796.47,786.83a2.061,2.061,0,0,0,.914.279,2.939,2.939,0,0,1,.936.213,6.107,6.107,0,0,0,.724.414,1.5,1.5,0,0,0,.749.012,1.241,1.241,0,0,0,.773-.524,1.283,1.283,0,0,0,.108-.784c-.023-.3-.045-.607-.068-.91a.443.443,0,0,0-.056-.22c-.215-.312-.736.131-1.015.13a1.953,1.953,0,0,1-1.236-.533.378.378,0,0,0-.1-.075c-.127-.057-.253.048-.365.139a2.614,2.614,0,0,0,.311.641,1.342,1.342,0,0,0,.974.61,3.167,3.167,0,0,1,.592.026c.191.051.369.246.3.432s-.3.225-.493.231a2.206,2.206,0,0,1-.8-.056c-.157-.052-.3-.139-.449-.2-.648-.269-1.467-.118-2-.572a1.144,1.144,0,0,0-.163-.125C795.963,786.251,796.222,786.66,796.47,786.83Z" transform="translate(-737.27 -728.395)"/>
      <path id="Path_371" data-name="Path 371" class="cls-18" d="M803.994,532.424a3.984,3.984,0,0,1-.547,2.941,5.686,5.686,0,0,0-.443.712,3.268,3.268,0,0,0-.174.565l-.491,2.036a5.447,5.447,0,0,0-.225,1.674c.028.393.127.835-.115,1.146a.844.844,0,0,0-.15.2.512.512,0,0,0,0,.265,9.6,9.6,0,0,1-.016,4.454c-.407,1.3-.431,2.733-.777,4.045a.9.9,0,0,1-.216.449.7.7,0,0,1-.322.15,2.385,2.385,0,0,1-1.527-.241c-.335-.155-.7-.427-.667-.795a1.622,1.622,0,0,1,.186-.49,3.367,3.367,0,0,0,.184-1.011,20.472,20.472,0,0,1,.557-2.53,6.044,6.044,0,0,0,.167-2.567,22.44,22.44,0,0,0-1.648-5.08.607.607,0,0,0-.15-.225c-.067-.055-.157-.081-.214-.15a.659.659,0,0,1-.1-.266,2.91,2.91,0,0,0-.444-.7,3.671,3.671,0,0,1-.242-2.06,14.237,14.237,0,0,1,.027-2.048,1.916,1.916,0,0,1,1.148-1.573,2.479,2.479,0,0,1,1.007-.047A19.913,19.913,0,0,1,803.994,532.424Z" transform="translate(-737.761 -493.821)"/>
      <path id="Path_372" data-name="Path 372" class="cls-16" d="M803.994,532.424a3.984,3.984,0,0,1-.547,2.941,5.686,5.686,0,0,0-.443.712,3.268,3.268,0,0,0-.174.565l-.491,2.036a5.447,5.447,0,0,0-.225,1.674c.028.393.127.835-.115,1.146a.844.844,0,0,0-.15.2.512.512,0,0,0,0,.265,9.6,9.6,0,0,1-.016,4.454c-.407,1.3-.431,2.733-.777,4.045a.9.9,0,0,1-.216.449.7.7,0,0,1-.322.15,2.385,2.385,0,0,1-1.527-.241c-.335-.155-.7-.427-.667-.795a1.622,1.622,0,0,1,.186-.49,3.367,3.367,0,0,0,.184-1.011,20.472,20.472,0,0,1,.557-2.53,6.044,6.044,0,0,0,.167-2.567,22.44,22.44,0,0,0-1.648-5.08.607.607,0,0,0-.15-.225c-.067-.055-.157-.081-.214-.15a.659.659,0,0,1-.1-.266,2.91,2.91,0,0,0-.444-.7,3.671,3.671,0,0,1-.242-2.06,14.237,14.237,0,0,1,.027-2.048,1.916,1.916,0,0,1,1.148-1.573,2.479,2.479,0,0,1,1.007-.047A19.913,19.913,0,0,1,803.994,532.424Z" transform="translate(-737.761 -493.821)"/>
      <path id="Path_373" data-name="Path 373" class="cls-18" d="M795.066,540.8a4.306,4.306,0,0,0,.09.789q.472,2.648,1.006,5.283c.031.15.062.3.1.455a3.69,3.69,0,0,0,.682,1.341c1.483,1.849,1.611,4.534,2.416,6.763.054.15.109.3.166.449a10.993,10.993,0,0,0,.5,1.108.317.317,0,0,0,.1.133.307.307,0,0,0,.162.031,4.717,4.717,0,0,0,2.093-.474.435.435,0,0,0,.225-.184.449.449,0,0,0,.023-.213,3,3,0,0,0-.26-1.288,2.77,2.77,0,0,0-.515-.625,23.7,23.7,0,0,0-.5-4.132,5.7,5.7,0,0,0-.749-1.979c-.3-.432-.722-.858-.67-1.38.023-.225.119-.514-.067-.649-.082-.059-.2-.067-.257-.15a.281.281,0,0,1-.036-.129,3.19,3.19,0,0,1,.066-1.07,5.781,5.781,0,0,0,.159-.7.88.88,0,0,0-.175-.674c-.01-.476,0-.974-.007-1.446a2.7,2.7,0,0,1,.067-.807c.037-.125.091-.244.119-.375.1-.457-.15-1.005.15-1.368a2.07,2.07,0,0,1,.475-.334,1.744,1.744,0,0,0,.652-.937,5.358,5.358,0,0,0,.185-1.147,1.193,1.193,0,0,0,0-.248.44.44,0,0,0-.033-.124.759.759,0,0,0-.56-.34,18.08,18.08,0,0,0-4.269-.5c-.531-.363-.831-.233-1.057.15a3.978,3.978,0,0,0-.3.735c-.1.311-.109,2.053-.21,2.365C794.694,539.543,795.071,540.373,795.066,540.8Z" transform="translate(-736.104 -497.911)"/>
      <path id="Path_374" data-name="Path 374" class="cls-19" d="M882.88,385.586a4.239,4.239,0,0,1-.107.82,3.075,3.075,0,0,0,.109.715,5.221,5.221,0,0,1-.494,2.751,1.417,1.417,0,0,0-.117.449,4.559,4.559,0,0,0,.2.837c.1.6-.345,1.16-.355,1.766a3.332,3.332,0,0,1,.014.832,2.891,2.891,0,0,1-.239.5c-.141.3-.179.636-.315.936a3.159,3.159,0,0,1-1.266,1.225,1.31,1.31,0,0,1-.749-.462,1.141,1.141,0,0,1-.129-.405,10.58,10.58,0,0,1-.1-1.88,11.663,11.663,0,0,1,.089-1.612c.1-.683.322-1.341.481-2.013a18.912,18.912,0,0,1,.616-2.535,8.6,8.6,0,0,1,1.152-1.969c.172-.234.307-.569.64-.515A.7.7,0,0,1,882.88,385.586Z" transform="translate(-814.301 -358.547)"/>
      <path id="Path_375" data-name="Path 375" class="cls-16" d="M882.88,385.586a4.239,4.239,0,0,1-.107.82,3.075,3.075,0,0,0,.109.715,5.221,5.221,0,0,1-.494,2.751,1.417,1.417,0,0,0-.117.449,4.559,4.559,0,0,0,.2.837c.1.6-.345,1.16-.355,1.766a3.332,3.332,0,0,1,.014.832,2.891,2.891,0,0,1-.239.5c-.141.3-.179.636-.315.936a3.159,3.159,0,0,1-1.266,1.225,1.31,1.31,0,0,1-.749-.462,1.141,1.141,0,0,1-.129-.405,10.58,10.58,0,0,1-.1-1.88,11.663,11.663,0,0,1,.089-1.612c.1-.683.322-1.341.481-2.013a18.912,18.912,0,0,1,.616-2.535,8.6,8.6,0,0,1,1.152-1.969c.172-.234.307-.569.64-.515A.7.7,0,0,1,882.88,385.586Z" transform="translate(-814.301 -358.547)"/>
      <path id="Path_376" data-name="Path 376" class="cls-20" d="M830,306.554a5.949,5.949,0,0,1,.543,1.118,2.577,2.577,0,0,0,.616.075,2.375,2.375,0,0,0,1.852-1.039c.041-.186.3-.36.268-.506-.038-.193-.22-.155-.384-.144a14.553,14.553,0,0,0-1.493.193C831.273,306.273,830.021,306.586,830,306.554Z" transform="translate(-768.665 -285.487)"/>
      <circle id="Ellipse_64" data-name="Ellipse 64" class="cls-14" cx="2.585" cy="2.585" r="2.585" transform="translate(59.912 17.021)"/>
      <path id="Path_377" data-name="Path 377" class="cls-20" d="M801.9,536.056c.449-.026.9-.008,1.348.01a4.533,4.533,0,0,1,.836.086c.339.075.657.231.992.328a9.02,9.02,0,0,0,1.657.218,9.442,9.442,0,0,1,1.085.17.439.439,0,0,0-.033-.124.759.759,0,0,0-.559-.34,18.073,18.073,0,0,0-4.269-.5C802.425,535.542,802.125,535.672,801.9,536.056Z" transform="translate(-742.669 -497.93)"/>
      <path id="Path_378" data-name="Path 378" class="cls-19" d="M790.388,340.613c.113.13.264.274.431.232a.6.6,0,0,0,.168-.09,2.522,2.522,0,0,1,1.014-.29,14.974,14.974,0,0,0,2.089-.47,2.126,2.126,0,0,1,.618-.126,1.5,1.5,0,0,1,1.1.635c.277.341.469.741.739,1.086.192.246.42.464.6.719a3.162,3.162,0,0,1,.433,2.266,9.348,9.348,0,0,1-.737,2.239,7.957,7.957,0,0,1-.6,1.213,2.875,2.875,0,0,1-.232,1.8,1.755,1.755,0,0,0-.234.536,1.319,1.319,0,0,0,.016.392l.132.936c.04.285.08.57.132.853a2.444,2.444,0,0,1-.016,1.55c-.288.561.014,1.281-.061,1.907a9.591,9.591,0,0,0-2.519-.6,9.061,9.061,0,0,1-1.658-.217c-.335-.1-.652-.252-.992-.33a4.6,4.6,0,0,0-.837-.085,9.911,9.911,0,0,0-1.856.042c-.05.008-.11.011-.14-.029a.134.134,0,0,1-.019-.075,1.232,1.232,0,0,1,.159-.658.933.933,0,0,0,.184-.431.648.648,0,0,0-.054-.214l-.271-.725a372.631,372.631,0,0,1-.418-3.483,1.9,1.9,0,0,1,.255-1.257,1.416,1.416,0,0,0,.2-.276.827.827,0,0,0,.047-.33q.009-1.308-.075-2.615c.23-.412.469-.834.7-1.246a5.33,5.33,0,0,0,.646-1.506c.075-.357.069-.723.12-1.082a.468.468,0,0,1,.091-.253.463.463,0,0,1,.368-.109A1.616,1.616,0,0,1,790.388,340.613Z" transform="translate(-729.395 -316.776)"/>
      <path id="Path_379" data-name="Path 379" class="cls-20" d="M699.07,322.116a1.123,1.123,0,0,0,.559.225,1.467,1.467,0,0,0,1-.367.66.66,0,0,0,.1-.382.463.463,0,0,0-.111-.022,2.9,2.9,0,0,0-.867.035.982.982,0,0,0-.674.506Z" transform="translate(-647.541 -299.833)"/>
      <path id="Path_380" data-name="Path 380" class="cls-19" d="M708.261,328.583a1.832,1.832,0,0,1-.544.513,1.751,1.751,0,0,1-.849.13,20.3,20.3,0,0,1-3.546-.389,2.2,2.2,0,0,1-.39-.1,2.074,2.074,0,0,1-.395-.246,5.057,5.057,0,0,1-1.067-.931,3.133,3.133,0,0,1-.632-1.551,2.532,2.532,0,0,1-.565-.974,1.5,1.5,0,0,1-.129-.473c-.008-.167.1-.342.075-.507a1.341,1.341,0,0,0-.41-.738.267.267,0,0,1-.1-.13.21.21,0,0,1,.024-.127.975.975,0,0,1,.674-.506,2.9,2.9,0,0,1,.867-.034,2.215,2.215,0,0,1,.284.075l.2.533a.69.69,0,0,0,.133.243,1.312,1.312,0,0,0,.143.112.823.823,0,0,1,.285.718.771.771,0,0,1,.456.951.909.909,0,0,1,.667.587.439.439,0,0,0,.087.183.356.356,0,0,0,.233.075c.225.014.428.194.635.1a1.288,1.288,0,0,1,.751-.106.557.557,0,0,0,.161.014.439.439,0,0,0,.132-.046,1.083,1.083,0,0,1,.3-.118.28.28,0,0,1,.284.11c.075-.079.116-.181.182-.266a.291.291,0,0,1,.276-.132c-.069-.061,0-.184.091-.206a1.138,1.138,0,0,1,.276.011c.239,0,.422-.219.655-.276.214-.052.5.01.607-.181.039-.067.047-.159.112-.2a.215.215,0,0,1,.144-.017,1.418,1.418,0,0,1,.437.133,6.1,6.1,0,0,1-.064,2.672A2.368,2.368,0,0,1,708.261,328.583Z" transform="translate(-648.132 -300.708)"/>
      <path id="Path_381" data-name="Path 381" class="cls-20" d="M810.773,441.945l1.113,2.247c-.121-.207-.375-.288-.574-.421a1.523,1.523,0,0,1-.549-.738,4.539,4.539,0,0,1-.214-.912.82.82,0,0,1,0-.471C810.678,441.676,810.72,441.84,810.773,441.945Z" transform="translate(-750.636 -410.932)"/>
      <path id="Path_382" data-name="Path 382" class="cls-20" d="M851.039,465.625a9.812,9.812,0,0,0,.835.652,7.694,7.694,0,0,1,1.555,1.911,3.032,3.032,0,0,1,.318.583c-.052.046-.131,0-.183-.047l-.875-.768a1.971,1.971,0,0,1-.291-.3c-.15-.2-.219-.459-.357-.674a2.658,2.658,0,0,0-.531-.542c-.193-.167-1.124-.952-.9-1.255C850.773,465.271,850.907,465.5,851.039,465.625Z" transform="translate(-787.699 -432.709)"/>
      <path id="Path_383" data-name="Path 383" class="cls-19" d="M825.084,334.714a2.617,2.617,0,0,1,.925-.3,1.949,1.949,0,0,1,.589-.042c.182.023.357.093.54.1a2.37,2.37,0,0,0,.749-.157.886.886,0,0,1,.745.056.32.32,0,0,0,.162.086.282.282,0,0,0,.167-.082.954.954,0,0,1,1.189.063c.474.444.421,1.312.974,1.648.153.093.349.142.438.3a1.037,1.037,0,0,0,.075.143.383.383,0,0,0,.133.1,2.634,2.634,0,0,1,.458.263.656.656,0,0,1,.263.442.823.823,0,0,1-.081.374,3.484,3.484,0,0,1-3.387,2.166.538.538,0,0,1-.355-.111.671.671,0,0,1-.124-.2c-.261-.547-.749-.952-1.063-1.473-.186-.31-.3-.657-.5-.962a4.479,4.479,0,0,0-1.168-1.138,1.355,1.355,0,0,0-.828-.371c-.275.012-.476.027-.374-.311A1.079,1.079,0,0,1,825.084,334.714Z" transform="translate(-763.655 -311.525)"/>
      <path id="Path_384" data-name="Path 384" class="cls-16" d="M825.084,334.714a2.617,2.617,0,0,1,.925-.3,1.949,1.949,0,0,1,.589-.042c.182.023.357.093.54.1a2.37,2.37,0,0,0,.749-.157.886.886,0,0,1,.745.056.32.32,0,0,0,.162.086.282.282,0,0,0,.167-.082.954.954,0,0,1,1.189.063c.474.444.421,1.312.974,1.648.153.093.349.142.438.3a1.037,1.037,0,0,0,.075.143.383.383,0,0,0,.133.1,2.634,2.634,0,0,1,.458.263.656.656,0,0,1,.263.442.823.823,0,0,1-.081.374,3.484,3.484,0,0,1-3.387,2.166.538.538,0,0,1-.355-.111.671.671,0,0,1-.124-.2c-.261-.547-.749-.952-1.063-1.473-.186-.31-.3-.657-.5-.962a4.479,4.479,0,0,0-1.168-1.138,1.355,1.355,0,0,0-.828-.371c-.275.012-.476.027-.374-.311A1.079,1.079,0,0,1,825.084,334.714Z" transform="translate(-763.655 -311.525)"/>
      <path id="Path_385" data-name="Path 385" class="cls-4" d="M810.687,815.832a1.451,1.451,0,0,0,.694.306,12.644,12.644,0,0,0,1.729.213l.565.043c.551.041,1.1.084,1.657.086a11.382,11.382,0,0,0,2.037-.176.172.172,0,0,0,.187-.207,9.849,9.849,0,0,0-.25-2.045c-.064-.276-.559.342-.58.369a.572.572,0,0,1-.449.238,2.985,2.985,0,0,1-1.657-.622,2.1,2.1,0,0,0-.307-.19.887.887,0,0,0-.248-.075,1.5,1.5,0,0,0-.846.172c-.339.169-.637.41-.974.583a2.713,2.713,0,0,1-.873.276c-.308.043-.674.063-.833.33A.591.591,0,0,0,810.687,815.832Z" transform="translate(-750.603 -755.177)"/>
      <path id="Path_386" data-name="Path 386" class="cls-17" d="M810.2,816.049a1.45,1.45,0,0,0,.694.306,12.668,12.668,0,0,0,1.73.213l.565.043c.551.041,1.1.084,1.657.086a11.388,11.388,0,0,0,2.037-.176.225.225,0,0,0,.162-.075.929.929,0,0,0,.126-.231,10,10,0,0,0-.352-2.045c-.064-.276-.559.342-.581.369a.572.572,0,0,1-.449.238,2.984,2.984,0,0,1-1.657-.622,2.072,2.072,0,0,0-.307-.19.878.878,0,0,0-.248-.075,2.047,2.047,0,0,0,.962,1.054,5.12,5.12,0,0,0,2.022.188.276.276,0,0,1,.143.035c.082.054.087.17.085.268-.006.163-.027.354-.168.437a.478.478,0,0,1-.225.047,32.021,32.021,0,0,1-5.048-.177,2.79,2.79,0,0,1-.824-.183,2.108,2.108,0,0,1-.477-.307C809.838,815.423,810.018,815.874,810.2,816.049Z" transform="translate(-750.121 -755.292)"/>
      <path id="Path_387" data-name="Path 387" class="cls-4" d="M822.235,259.253c.01.267-.172.786.327.641.3-.087.382-.44.76-.361s.465.545.593.849a1.625,1.625,0,0,0,1.177.952.709.709,0,0,0,.324,0,.874.874,0,0,0,.483-.554,4.437,4.437,0,0,0,.214-.608,2.6,2.6,0,0,0,.075-.449h0a2.035,2.035,0,0,0,0-.309,2.507,2.507,0,0,0-.834-1.581,7.473,7.473,0,0,0-1.511-1.02,2.2,2.2,0,0,0-.558-.249,1.87,1.87,0,0,0-.589-.024,2.032,2.032,0,0,0-.749.176,1.058,1.058,0,0,0-.264.185.787.787,0,0,0-.225.381,1.392,1.392,0,0,0,.358,1.057A1.907,1.907,0,0,1,822.235,259.253Z" transform="translate(-760.744 -239.675)"/>
      <path id="Path_388" data-name="Path 388" class="cls-20" d="M719.77,353.83c.107-.269.557-1.013.426-1.27a3.391,3.391,0,0,0-.341.61C719.77,353.379,719.839,353.658,719.77,353.83Z" transform="translate(-666.691 -328.515)"/>
      <path id="Path_389" data-name="Path 389" class="cls-20" d="M821.659,262.312a1.4,1.4,0,0,1-.359-1.057.832.832,0,0,1,.291-.435.721.721,0,0,0-.075.184,1.393,1.393,0,0,0,.359,1.057,1.9,1.9,0,0,1,.418.912c.01.267-.173.786.327.641.3-.086.382-.44.76-.36s.464.544.592.849a1.627,1.627,0,0,0,1.181.952.706.706,0,0,0,.324,0,.482.482,0,0,0,.15-.075.657.657,0,0,1-.37.327.708.708,0,0,1-.324,0,1.627,1.627,0,0,1-1.176-.952c-.128-.3-.211-.769-.593-.849s-.462.275-.76.361c-.5.145-.318-.374-.327-.641A1.887,1.887,0,0,0,821.659,262.312Z" transform="translate(-760.597 -243.646)"/>
      <path id="Path_390" data-name="Path 390" class="cls-20" d="M822.83,257.81a2.349,2.349,0,0,0,.15.219,2.681,2.681,0,0,0,.354.366,2.746,2.746,0,0,0,.239.187,3.832,3.832,0,0,0,.482.288,8.866,8.866,0,0,0,1.545.553l1.032.3c.127.1.359.269.615.449a2.593,2.593,0,0,0,.075-.449h0a2.019,2.019,0,0,0,0-.309,2.507,2.507,0,0,0-.834-1.581,7.469,7.469,0,0,0-1.512-1.02,2.2,2.2,0,0,0-.558-.249,1.869,1.869,0,0,0-.589-.024,2.035,2.035,0,0,0-.749.176,1.063,1.063,0,0,0-.264.185.983.983,0,0,0-.133.28A.827.827,0,0,0,822.83,257.81Z" transform="translate(-761.879 -239.675)"/>
      <path id="Path_391" data-name="Path 391" class="cls-19" d="M822.856,250.841a2.324,2.324,0,0,0,.15.219,2.689,2.689,0,0,0,.353.366,2.783,2.783,0,0,0,.239.187,3.831,3.831,0,0,0,.482.288,8.922,8.922,0,0,0,1.545.553l1.032.3c.36.273,1.566,1.165,1.768,1.054.239-.131-1.069-1.058-1.069-1.058l-.061.046a.965.965,0,0,0,.336-.641,3.249,3.249,0,0,0,.01-1.308,1.553,1.553,0,0,0-.749-1.034,1.742,1.742,0,0,1-.509-.287.367.367,0,0,1-.05-.067.333.333,0,0,1-.019-.035.453.453,0,0,0-.055-.106c-.075-.083-.2-.058-.311-.045l-.034,0h-.058c-.388.009-.764-.208-1.156-.208a2.956,2.956,0,0,0-1.175.419c-.075.034-.15.066-.217.1a.939.939,0,0,0-.592.625A.807.807,0,0,0,822.856,250.841Z" transform="translate(-761.905 -232.777)"/>
      <path id="Path_392" data-name="Path 392" class="cls-20" d="M864.644,251.777a.176.176,0,0,0,.04.225.322.322,0,0,0,.163.058,1.167,1.167,0,0,0,.126.01.348.348,0,0,0,.168-.029.151.151,0,0,0,.029-.019.36.36,0,0,1-.049-.067c-.01.007-.02.006-.059,0a.9.9,0,0,1-.209-.036.205.205,0,0,1-.15-.15Z" transform="translate(-800.692 -235.274)"/>
      <path id="Path_393" data-name="Path 393" class="cls-20" d="M876.555,298.006a.481.481,0,0,1-.178.067.727.727,0,0,1-.138.022.768.768,0,0,1-.338-.1Z" transform="translate(-811.127 -278.042)"/>
      <path id="Path_394" data-name="Path 394" class="cls-21" d="M419.417,241.627l-.1-.214-.039.01.1.213.734,1.547a.945.945,0,0,0-.225.524.354.354,0,0,0,.019.112c.037.109.084.154.126.166v-.019a.472.472,0,0,1,0-.075v-.033a.074.074,0,0,1,0-.013v-.005h0a.126.126,0,0,0,0-.016h0a.015.015,0,0,1,0-.006v-.007l.009-.032,0-.009,0-.016c0-.01.007-.022.012-.032a.1.1,0,0,1,.006-.015l.009-.021c.009-.021.019-.041.029-.061a.594.594,0,0,1,.031-.055,1.305,1.305,0,0,1,.1-.142Zm.816,2.591h0a.092.092,0,0,1-.046,0h-.007l-.014,0a.108.108,0,0,1-.031-.019l-.011-.01a.28.28,0,0,1-.054-.085.273.273,0,0,0-.016.088.14.14,0,0,0,.068.131.255.255,0,0,1,.071.07h0a.005.005,0,0,0,0,0h0a.023.023,0,0,1,0-.007.014.014,0,0,1,0-.005.408.408,0,0,1,.032-.089c.008-.014.014-.028.023-.04a.132.132,0,0,1,.01-.017l.007-.01.011-.018A.132.132,0,0,1,420.233,244.219Zm0,0h0a.092.092,0,0,1-.046,0h-.007l-.014,0a.108.108,0,0,1-.031-.019l-.011-.01a.28.28,0,0,1-.054-.085.273.273,0,0,0-.016.088.14.14,0,0,0,.068.131.255.255,0,0,1,.071.07h0a.005.005,0,0,0,0,0h0a.023.023,0,0,1,0-.007.014.014,0,0,1,0-.005.408.408,0,0,1,.032-.089c.008-.014.014-.028.023-.04a.132.132,0,0,1,.01-.017l.007-.01.011-.018A.132.132,0,0,1,420.233,244.219Zm-.816-2.591-.1-.214-.039.01.1.213.734,1.547a.945.945,0,0,0-.225.524.354.354,0,0,0,.019.112c.037.109.084.154.126.166v-.019a.472.472,0,0,1,0-.075.04.04,0,0,1,0-.01v-.01h0a.017.017,0,0,0,0-.006h0v0a.02.02,0,0,1,0-.006h0a.044.044,0,0,1,0-.009h0a.121.121,0,0,1,0-.017.016.016,0,0,1,0-.006v-.007l.009-.032,0-.009,0-.017c0-.01.007-.022.012-.032a.1.1,0,0,1,.006-.015l.009-.021c.009-.021.019-.041.029-.061a.6.6,0,0,1,.031-.055,1.306,1.306,0,0,1,.1-.142Zm.816,2.591h0a.092.092,0,0,1-.046,0h-.007l-.014,0a.108.108,0,0,1-.031-.019l-.011-.01a.28.28,0,0,1-.054-.085.273.273,0,0,0-.016.088.14.14,0,0,0,.068.131.255.255,0,0,1,.071.07h0a.005.005,0,0,0,0,0h0a.023.023,0,0,1,0-.007.014.014,0,0,1,0-.005.408.408,0,0,1,.032-.089l.016-.031.007-.01a.132.132,0,0,1,.01-.017l.007-.01.011-.018A.132.132,0,0,1,420.233,244.219Zm-.816-2.591-.1-.214-.039.01.1.213.734,1.547a.945.945,0,0,0-.225.524.354.354,0,0,0,.019.112c.037.109.084.154.126.166v-.019a.472.472,0,0,1,0-.075.04.04,0,0,1,0-.01v-.01h0a.017.017,0,0,0,0-.006h0a.02.02,0,0,1,0-.006h0a.044.044,0,0,1,0-.009h0a.123.123,0,0,1,0-.017.015.015,0,0,1,0-.006v-.008l.009-.032,0-.009,0-.016c0-.01.007-.022.012-.032a.1.1,0,0,1,.006-.015l.009-.021c.009-.021.019-.041.029-.061a.6.6,0,0,1,.031-.055,1.309,1.309,0,0,1,.1-.142Zm.816,2.591h0a.092.092,0,0,1-.046,0h-.007l-.014,0a.108.108,0,0,1-.031-.019l-.011-.01a.28.28,0,0,1-.054-.085.273.273,0,0,0-.016.088.14.14,0,0,0,.068.131.255.255,0,0,1,.071.07h0a.005.005,0,0,0,0,0h0a.018.018,0,0,1,0-.006.018.018,0,0,1,0-.006.408.408,0,0,1,.032-.089l.016-.031.007-.01a.132.132,0,0,1,.01-.017l.007-.01.011-.018A.131.131,0,0,1,420.233,244.219Zm-.816-2.591-.1-.214-.039.01.1.213.734,1.547a.945.945,0,0,0-.225.524.354.354,0,0,0,.019.112c.037.109.084.154.126.166v-.019a.472.472,0,0,1,0-.075.04.04,0,0,1,0-.01v-.01h0a.017.017,0,0,0,0-.006h0a.02.02,0,0,1,0-.006h0a.044.044,0,0,1,0-.009h0a.123.123,0,0,1,0-.017.015.015,0,0,1,0-.006v-.008l.009-.032,0-.009,0-.016c0-.01.007-.022.012-.032a.1.1,0,0,1,.006-.015l.009-.021c.009-.021.019-.041.029-.061a.6.6,0,0,1,.031-.055,1.309,1.309,0,0,1,.1-.142Zm.816,2.591h0a.092.092,0,0,1-.046,0h-.007l-.014,0a.108.108,0,0,1-.031-.019l-.011-.01a.28.28,0,0,1-.054-.085.273.273,0,0,0-.016.088.14.14,0,0,0,.068.131.255.255,0,0,1,.071.07h0a.005.005,0,0,0,0,0h0a.018.018,0,0,1,0-.006.018.018,0,0,1,0-.006.408.408,0,0,1,.032-.089l.016-.031.007-.01a.132.132,0,0,1,.01-.017l.007-.01.011-.018A.131.131,0,0,1,420.233,244.219Zm-.816-2.591-.1-.214-.039.01.1.213.734,1.547a.945.945,0,0,0-.225.524.354.354,0,0,0,.019.112c.037.109.084.154.126.166v-.019a.472.472,0,0,1,0-.075.04.04,0,0,1,0-.01v-.01h0a.017.017,0,0,0,0-.006h0a.02.02,0,0,1,0-.006h0a.044.044,0,0,1,0-.009h0a.123.123,0,0,1,0-.017.015.015,0,0,1,0-.006v-.008l.009-.032,0-.009,0-.016c0-.01.007-.022.012-.032a.1.1,0,0,1,.006-.015l.009-.021c.009-.021.019-.041.029-.061a.6.6,0,0,1,.031-.055,1.309,1.309,0,0,1,.1-.142Zm.816,2.591h0a.092.092,0,0,1-.046,0h-.007l-.014,0a.108.108,0,0,1-.031-.019l-.011-.01a.28.28,0,0,1-.054-.085.273.273,0,0,0-.016.088.14.14,0,0,0,.068.131.255.255,0,0,1,.071.07h0a.005.005,0,0,0,0,0h0a.018.018,0,0,1,0-.006.018.018,0,0,1,0-.006.408.408,0,0,1,.032-.089l.016-.031.007-.01a.132.132,0,0,1,.01-.017l.007-.01.011-.018A.131.131,0,0,1,420.233,244.219Zm-.816-2.591-.1-.214-.039.01.1.213.734,1.547a.945.945,0,0,0-.225.524.354.354,0,0,0,.019.112c.037.109.084.154.126.166v-.019a.472.472,0,0,1,0-.075.04.04,0,0,1,0-.01v-.01h0a.017.017,0,0,0,0-.006h0a.02.02,0,0,1,0-.006h0a.044.044,0,0,1,0-.009h0a.123.123,0,0,1,0-.017.015.015,0,0,1,0-.006v-.008l.009-.032,0-.009,0-.016c0-.01.007-.022.012-.032a.1.1,0,0,1,.006-.015l.009-.021c.009-.021.019-.041.029-.061a.6.6,0,0,1,.031-.055,1.309,1.309,0,0,1,.1-.142Zm.816,2.591h0a.092.092,0,0,1-.046,0h-.007l-.014,0a.108.108,0,0,1-.031-.019l-.011-.01a.28.28,0,0,1-.054-.085.273.273,0,0,0-.016.088.14.14,0,0,0,.068.131.255.255,0,0,1,.071.07h0a.005.005,0,0,0,0,0h0a.018.018,0,0,1,0-.006.018.018,0,0,1,0-.006.408.408,0,0,1,.032-.089l.016-.031.007-.01a.132.132,0,0,1,.01-.017l.007-.01.011-.018A.131.131,0,0,1,420.233,244.219Zm-.816-2.591-.1-.214-.039.01.1.213.734,1.547a.945.945,0,0,0-.225.524.354.354,0,0,0,.019.112c.037.109.084.154.126.166v-.019a.472.472,0,0,1,0-.075.04.04,0,0,1,0-.01v-.01h0a.017.017,0,0,0,0-.006h0a.02.02,0,0,1,0-.006h0a.044.044,0,0,1,0-.009h0a.123.123,0,0,1,0-.017.015.015,0,0,1,0-.006v-.008l.009-.032,0-.009,0-.016c0-.01.007-.022.012-.032a.1.1,0,0,1,.006-.015l.009-.021c.009-.021.019-.041.029-.061a.6.6,0,0,1,.031-.055,1.309,1.309,0,0,1,.1-.142Zm.816,2.591h0a.092.092,0,0,1-.046,0h-.007l-.014,0a.108.108,0,0,1-.031-.019l-.011-.01a.28.28,0,0,1-.054-.085.273.273,0,0,0-.016.088.14.14,0,0,0,.068.131.255.255,0,0,1,.071.07h0a.005.005,0,0,0,0,0h0a.018.018,0,0,1,0-.006.018.018,0,0,1,0-.006.408.408,0,0,1,.032-.089l.016-.031.007-.01a.132.132,0,0,1,.01-.017l.007-.01.011-.018A.131.131,0,0,1,420.233,244.219Zm-.816-2.591-.1-.214-.039.01.1.213.734,1.547a.945.945,0,0,0-.225.524.354.354,0,0,0,.019.112c.037.109.084.154.126.166v-.019a.472.472,0,0,1,0-.075.04.04,0,0,1,0-.01v-.01h0a.017.017,0,0,0,0-.006h0a.02.02,0,0,1,0-.006h0a.044.044,0,0,1,0-.009h0a.123.123,0,0,1,0-.017.015.015,0,0,1,0-.006v-.008l.009-.032,0-.009,0-.016c0-.01.007-.022.012-.032a.1.1,0,0,1,.006-.015l.009-.021c.009-.021.019-.041.029-.061a.6.6,0,0,1,.031-.055,1.309,1.309,0,0,1,.1-.142Zm.816,2.591h0a.092.092,0,0,1-.046,0h-.007l-.014,0a.108.108,0,0,1-.031-.019l-.011-.01a.28.28,0,0,1-.054-.085.273.273,0,0,0-.016.088.14.14,0,0,0,.068.131.255.255,0,0,1,.071.07h0a.005.005,0,0,0,0,0h0a.018.018,0,0,1,0-.006.018.018,0,0,1,0-.006.408.408,0,0,1,.032-.089l.016-.031.007-.01a.132.132,0,0,1,.01-.017l.007-.01.011-.018A.131.131,0,0,1,420.233,244.219Zm-.816-2.591-.1-.214-.039.01.1.213.734,1.547a.945.945,0,0,0-.225.524.354.354,0,0,0,.019.112c.037.109.084.154.126.166v-.019a.472.472,0,0,1,0-.075.04.04,0,0,1,0-.01v-.01h0a.017.017,0,0,0,0-.006h0a.02.02,0,0,1,0-.006h0a.044.044,0,0,1,0-.009h0a.123.123,0,0,1,0-.017.015.015,0,0,1,0-.006v-.008l.009-.032,0-.009,0-.016c0-.01.007-.022.012-.032a.1.1,0,0,1,.006-.015l.009-.021c.009-.021.019-.041.029-.061a.6.6,0,0,1,.031-.055,1.309,1.309,0,0,1,.1-.142Zm.816,2.591h0a.092.092,0,0,1-.046,0h-.007l-.014,0a.108.108,0,0,1-.031-.019l-.011-.01a.28.28,0,0,1-.054-.085.273.273,0,0,0-.016.088.14.14,0,0,0,.068.131.255.255,0,0,1,.071.07h0a.005.005,0,0,0,0,0h0a.018.018,0,0,1,0-.006.018.018,0,0,1,0-.006.408.408,0,0,1,.032-.089l.016-.031.007-.01a.132.132,0,0,1,.01-.017l.007-.01.011-.018A.131.131,0,0,1,420.233,244.219Zm-.816-2.591-.1-.214-.039.01.1.213.734,1.547a.945.945,0,0,0-.225.524.354.354,0,0,0,.019.112c.037.109.084.154.126.166v-.019a.472.472,0,0,1,0-.075.04.04,0,0,1,0-.01v-.01h0a.017.017,0,0,0,0-.006h0v0a.02.02,0,0,1,0-.006h0a.044.044,0,0,1,0-.009h0a.121.121,0,0,1,0-.017.016.016,0,0,1,0-.006v-.007l.009-.032,0-.009,0-.017c0-.01.007-.022.012-.032a.1.1,0,0,1,.006-.015l.009-.021c.009-.021.019-.041.029-.061a.6.6,0,0,1,.031-.055,1.306,1.306,0,0,1,.1-.142Zm.816,2.591h0a.092.092,0,0,1-.046,0h-.007l-.013,0a.108.108,0,0,1-.031-.019l-.011-.01a.28.28,0,0,1-.054-.085.273.273,0,0,0-.016.088.14.14,0,0,0,.068.131.255.255,0,0,1,.071.07h0a.03.03,0,0,1,0-.012.018.018,0,0,1,0-.006.406.406,0,0,1,.032-.089l.016-.031.016-.027.007-.011.011-.018A.132.132,0,0,1,420.233,244.219Zm-.165-.465c0-.01.008-.022.012-.032s0-.01.006-.015a.111.111,0,0,1,.009-.021c.009-.021.02-.041.029-.061s.02-.037.031-.055a1.329,1.329,0,0,1,.1-.142l-.834-1.8-.1-.216-.039.01.1.213.734,1.547a.945.945,0,0,0-.225.524.354.354,0,0,0,.019.112c.037.109.084.154.126.166v-.019a.472.472,0,0,1,0-.075.044.044,0,0,1,0-.01v-.01a.16.16,0,0,1,0-.019h0l0-.022v-.019l.009-.032A.152.152,0,0,0,420.068,243.754Zm11.273-10.5a.633.633,0,0,0-.357-.228.534.534,0,0,0-.41.094c.034-.037.219-.239.374-.439.184-.234.33-.467.15-.428-.348.075-.992.853-.992.853l-.132.235h0l-.382.682-.04.075a2.057,2.057,0,0,0-.383.047l-.043.058a1.071,1.071,0,0,0-.195.369c-.018.15-.643.426-.9.574a1.86,1.86,0,0,0-.5.631,2.686,2.686,0,0,0-1.085.3,1.289,1.289,0,0,1-.807.144h0l-.059,0c-.066,0-.107-.01-.107-.01s-.239-.26-.422-.279a1.837,1.837,0,0,0-.349,0s-.1-.032-.237-.075l-.039-.011-.106-.028-.029-.008a.448.448,0,0,0,.038-.047.443.443,0,0,0,.05-.092h0a.375.375,0,0,0,.023-.2.564.564,0,0,0-.079-.2l-.07-.11a1.726,1.726,0,0,1-.231-.652h0a1.771,1.771,0,0,1,.169-1.074,2.579,2.579,0,0,1,.15-.249l.085-.119.053-.075.059-.083h0l.057-.08a2.1,2.1,0,0,0,.216-.378c.012-.026.021-.053.031-.08a.1.1,0,0,1,.008-.028c0-.009.012-.037.016-.055s.006-.022.008-.033a.424.424,0,0,0,.012-.051.186.186,0,0,1,.008-.035c0-.011.006-.034.008-.05a.129.129,0,0,1,.005-.037l0-.05a.3.3,0,0,0,0-.035h0v-.2a.18.18,0,0,0-.005-.05c-.005-.017,0-.028-.005-.042a.163.163,0,0,1-.006-.043l-.009-.043a.174.174,0,0,0-.008-.04l-.011-.045a.164.164,0,0,0-.01-.037c0-.012-.01-.031-.014-.045a.352.352,0,0,0-.013-.036c-.005-.015-.01-.03-.017-.045a.337.337,0,0,1-.013-.032,1.379,1.379,0,0,0-.157-.278l-.109-.136h0l-.029-.037a.167.167,0,0,0-.011-.019c-.007-.013-.014-.025-.019-.039-.055-.109-.1-.225-.146-.339-.013-.035-.028-.07-.042-.1,0-.008-.006-.015-.008-.022-.022-.054-.046-.106-.07-.159s-.039-.075-.059-.115c-.007-.012-.013-.023-.02-.035l-.047-.075-.023-.038-.05-.075-.022-.032c-.024-.034-.048-.067-.075-.1h0c-.026-.034-.055-.068-.082-.1l-.022-.025-.065-.075-.025-.028-.068-.075-.023-.024c-.106-.11-.219-.216-.333-.321l-.059-.053h0l-.208-.185-.075-.062c-.022-.019-.046-.039-.068-.058a1.873,1.873,0,0,0-.524-.339,1.673,1.673,0,0,0-.774-.079,2.636,2.636,0,0,0-1.18.413c-.028.018-.055.037-.083.058a2.186,2.186,0,0,0-.42.392c-.021.025-.04.05-.06.075s-.033.046-.049.07a4.362,4.362,0,0,0-.419.891,11.254,11.254,0,0,0-.877,3.331.3.3,0,0,1,0,.058q-.009.216,0,.434h0a.086.086,0,0,0,0,.011.529.529,0,0,0,0,.085c.027.43.112.86.177,1.288l-.044.016a.962.962,0,0,0-.622.6.01.01,0,0,1,0,0h0a.637.637,0,0,1,.008.1,1.4,1.4,0,0,1-.2.692l-.033.055h0a1.039,1.039,0,0,0-.192.561.313.313,0,0,0,.025.124h0v.007a.083.083,0,0,0,0,.013v.007h0a1.5,1.5,0,0,1-.266.472,15.518,15.518,0,0,0-.68,2.226.392.392,0,0,1,.033.162h0a.315.315,0,0,1-.031.129h0a.232.232,0,0,0,.027.207h0a.781.781,0,0,0,.12.162s.111-.037-.075.167l-.011.013h0a.215.215,0,0,0,.014.269.726.726,0,0,0,.164.163,33.3,33.3,0,0,0,1.819,2.874,3.716,3.716,0,0,1,.625,1s.031-.05.083-.128c.024-.039.055-.085.088-.134l.1.125h0l.194.254-.075.146h0a3.419,3.419,0,0,0-.2.449.113.113,0,0,0-.005.041.164.164,0,0,0,.049.106,5.75,5.75,0,0,0-1.2,3.54h0v.057a4.513,4.513,0,0,0,.436,1.694,3.621,3.621,0,0,1,.037.509h0a.229.229,0,0,1-.019.1.536.536,0,0,0,.007.207h0c.049.369.215,1.09.215,1.09v.38c.008.643.022,1.906-.005,2.18-.016.157-.031.284-.044.374-.018.129-.029.2-.029.2s-.007.047-.017.133c0,.031-.008.066-.013.106-.061.506-.2,1.735-.287,2.887,0,.05-.007.1-.01.15-.043.614-.066,1.2-.049,1.621v.064c0,.108.013.2.024.288.037.27.07.586.1.915a1.009,1.009,0,0,0,.01.106c.048.6.083,1.228.1,1.682v.088a.077.077,0,0,0,0,.019.029.029,0,0,0,0,.008v.3a1.184,1.184,0,0,0,0,.13.8.8,0,0,0,0,.1v.011h0a.011.011,0,0,1,0,.005v.009l.063.524.325,2.647.1.834.211,1.8.756-.143.008.082.025.279h0l.211-.02c0,.027,0,.054-.005.081-.036.626-.024,1.26-.024,1.26h.008c.231.043.455.075.674.094v.653h.35l-.046-.561-.006-.068h.007a7.4,7.4,0,0,0,1.4-.049l.042-.005.056.064.535.613a8.433,8.433,0,0,0,1.966-.15,2.243,2.243,0,0,0,1.439-1.087h0c.009-.084-.058-.122-.225-.081a5.234,5.234,0,0,1-1.761-.075c-.094-.216-.363-.835-.573-1.329l-.032-.075a1.622,1.622,0,0,0,.578-.688c.02-.093-.033-.135-.187-.082a2.158,2.158,0,0,1-.567.093h-.075l.01-.014a1.167,1.167,0,0,0,.159-.757,2.554,2.554,0,0,0-.036-.288h0v-.016a3.429,3.429,0,0,0-.09-.368.078.078,0,0,0-.007-.023c-.014-.043-.023-.067-.023-.067s.209-1.462.277-2.508a5.781,5.781,0,0,0,.012-.814h0a.01.01,0,0,0,0,0,.45.45,0,0,0-.049-.2.4.4,0,0,1-.062-.15.012.012,0,0,0,0-.005,3.384,3.384,0,0,1,.225-1.5,1.953,1.953,0,0,0,.091-.225,3.606,3.606,0,0,0,.2-.91,2.31,2.31,0,0,1,.11-.593,3.277,3.277,0,0,0,.461-1.64,4.481,4.481,0,0,0,0-.53,20.535,20.535,0,0,1,.114-2.339c.016-.15.036-.3.058-.454.034-.235.075-.469.123-.694a11.924,11.924,0,0,0-.03-3.032c0-.034-.007-.067-.01-.1a.035.035,0,0,1,0-.008c-.114-1.116-.275-2.157-.341-2.57h0l-.031-.186a3.533,3.533,0,0,0,.132-.8h0a.731.731,0,0,0-.068-.36.331.331,0,0,1-.041-.11h0a.122.122,0,0,1,0-.014,1.8,1.8,0,0,1-.015-.419h0a1.465,1.465,0,0,1,.012-.15V248l.009-.09c.007-.052.012-.1.02-.156a.622.622,0,0,0,.064-.031.491.491,0,0,0,.1-.07,2.561,2.561,0,0,0,.323-1.847.028.028,0,0,1,0-.007v-.022a14.814,14.814,0,0,0-.3-1.947h0a.124.124,0,0,0,0-.016c-.012-.04-.019-.067-.019-.067s0-.548-.032-1.076a.037.037,0,0,1,0-.009v-.013a2.132,2.132,0,0,0-.168-.923.576.576,0,0,1-.106-.33v-.005a.089.089,0,0,1,0-.013,7.461,7.461,0,0,1,0-1.1,2.171,2.171,0,0,0,.288-.946h0a1.542,1.542,0,0,0-.005-.18.1.1,0,0,0,0-.035.482.482,0,0,0-.008-.058,1.046,1.046,0,0,0-.051-.2q.094-.016.2-.043l.059-.015h0a28.741,28.741,0,0,0,2.828-1.079c.423-.15.551-.76.551-.76s.039-.033.1-.093a5.091,5.091,0,0,0,.849-1.031h0a3.047,3.047,0,0,0,.284-.592h0a2.189,2.189,0,0,0,.086-.322,1.031,1.031,0,0,0,.015-.107h0V234.8l.071-.064h0a3.732,3.732,0,0,0,.931-1.132A.385.385,0,0,0,431.341,233.255Zm-9.756,27.157c-.006.172-.018.33-.029.466h0c-.023.267-.048.443-.048.443a.309.309,0,0,0-.053.058.735.735,0,0,0-.082.163l-.018-.444S421.471,260.813,421.586,260.412Zm-2.606-18.926c-.005-.017-.011-.034-.016-.051h0l.082-.016h0c.07-.013.137-.031.206-.05l.026.055.1.213.734,1.547a.943.943,0,0,0-.225.524.351.351,0,0,0,.019.112c.037.109.084.154.126.166h0a.125.125,0,0,0,.108-.025.629.629,0,0,0-.075.139h0a.273.273,0,0,0-.016.088.14.14,0,0,0,.068.131.254.254,0,0,1,.071.07h0a.323.323,0,0,1,.049.145h0v.005h0a.371.371,0,0,1,0,.041v.024l-.1-.029-.216-.064a.265.265,0,0,1,.117-.084l-.668-1.468s-.142-.632-.326-1.257Zm1.5,29.558-.014-.075,0-.022.029-.005a.226.226,0,0,0,0,.023.341.341,0,0,0-.014.079Zm-1.061-29.416-.1-.214-.039.01.1.213.734,1.547a.945.945,0,0,0-.225.524.354.354,0,0,0,.019.112c.037.109.084.154.126.166v-.019a.472.472,0,0,1,0-.075.04.04,0,0,1,0-.01v-.01h0a.017.017,0,0,0,0-.006h0a.006.006,0,0,1,0,0,.02.02,0,0,1,0-.006h0a.044.044,0,0,1,0-.009h0a.066.066,0,0,0,0-.012v-.011h0v-.008l.009-.032,0-.009,0-.016c0-.01.008-.022.012-.032s0-.01.006-.015a.11.11,0,0,1,.009-.021c.009-.021.02-.041.029-.061a.6.6,0,0,1,.031-.055,1.306,1.306,0,0,1,.1-.142Zm.816,2.591h0a.092.092,0,0,1-.046,0h-.007l-.014,0a.108.108,0,0,1-.031-.019l-.011-.01a.28.28,0,0,1-.054-.085.273.273,0,0,0-.016.088.14.14,0,0,0,.068.131.255.255,0,0,1,.071.07h0a.03.03,0,0,1,0-.012.018.018,0,0,1,0-.006.406.406,0,0,1,.032-.089l.016-.031.007-.01a.134.134,0,0,1,.01-.017l.007-.011.011-.018A.132.132,0,0,1,420.233,244.219Zm-.816-2.591-.1-.214-.039.01.1.213.734,1.547a.945.945,0,0,0-.225.524.354.354,0,0,0,.019.112c.037.109.084.154.126.166v-.019a.472.472,0,0,1,0-.075.04.04,0,0,1,0-.01v-.01h0a.017.017,0,0,0,0-.006h0a.02.02,0,0,1,0-.006h0a.044.044,0,0,1,0-.009h0a.123.123,0,0,1,0-.017.015.015,0,0,1,0-.006v-.008l.009-.032,0-.009,0-.016c0-.01.007-.022.012-.032a.1.1,0,0,1,.006-.015l.009-.021c.009-.021.019-.041.029-.061a.6.6,0,0,1,.031-.055,1.309,1.309,0,0,1,.1-.142Zm.816,2.591h0a.092.092,0,0,1-.046,0h-.007l-.014,0a.108.108,0,0,1-.031-.019l-.011-.01a.28.28,0,0,1-.054-.085.273.273,0,0,0-.016.088.14.14,0,0,0,.068.131.255.255,0,0,1,.071.07h0a.005.005,0,0,0,0,0h0a.018.018,0,0,1,0-.006.018.018,0,0,1,0-.006.408.408,0,0,1,.032-.089l.016-.031.007-.01a.132.132,0,0,1,.01-.017l.007-.01.011-.018A.131.131,0,0,1,420.233,244.219Zm-.816-2.591-.1-.214-.039.01.1.213.734,1.547a.945.945,0,0,0-.225.524.354.354,0,0,0,.019.112c.037.109.084.154.126.166v-.019a.472.472,0,0,1,0-.075.04.04,0,0,1,0-.01v-.01h0a.017.017,0,0,0,0-.006h0a.02.02,0,0,1,0-.006h0a.044.044,0,0,1,0-.009h0a.123.123,0,0,1,0-.017.015.015,0,0,1,0-.006v-.008l.009-.032,0-.009,0-.016c0-.01.007-.022.012-.032a.1.1,0,0,1,.006-.015l.009-.021c.009-.021.019-.041.029-.061a.6.6,0,0,1,.031-.055,1.309,1.309,0,0,1,.1-.142Zm.816,2.591h0a.092.092,0,0,1-.046,0h-.007l-.014,0a.108.108,0,0,1-.031-.019l-.011-.01a.28.28,0,0,1-.054-.085.273.273,0,0,0-.016.088.14.14,0,0,0,.068.131.255.255,0,0,1,.071.07h0a.005.005,0,0,0,0,0h0a.018.018,0,0,1,0-.006.018.018,0,0,1,0-.006.408.408,0,0,1,.032-.089l.016-.031.007-.01a.132.132,0,0,1,.01-.017l.007-.01.011-.018A.131.131,0,0,1,420.233,244.219Zm-.816-2.591-.1-.214-.039.01.1.213.734,1.547a.945.945,0,0,0-.225.524.354.354,0,0,0,.019.112c.037.109.084.154.126.166v-.019a.472.472,0,0,1,0-.075.04.04,0,0,1,0-.01v-.01h0a.017.017,0,0,0,0-.006h0a.02.02,0,0,1,0-.006h0a.044.044,0,0,1,0-.009h0a.123.123,0,0,1,0-.017.015.015,0,0,1,0-.006v-.008l.009-.032,0-.009,0-.016c0-.01.007-.022.012-.032a.1.1,0,0,1,.006-.015l.009-.021c.009-.021.019-.041.029-.061a.6.6,0,0,1,.031-.055,1.309,1.309,0,0,1,.1-.142Zm.816,2.591h0a.092.092,0,0,1-.046,0h-.007l-.014,0a.108.108,0,0,1-.031-.019l-.011-.01a.28.28,0,0,1-.054-.085.273.273,0,0,0-.016.088.14.14,0,0,0,.068.131.255.255,0,0,1,.071.07h0a.005.005,0,0,0,0,0h0a.018.018,0,0,1,0-.006.018.018,0,0,1,0-.006.408.408,0,0,1,.032-.089l.016-.031.007-.01a.132.132,0,0,1,.01-.017l.007-.01.011-.018A.131.131,0,0,1,420.233,244.219Zm-.816-2.591-.1-.214-.039.01.1.213.734,1.547a.945.945,0,0,0-.225.524.354.354,0,0,0,.019.112c.037.109.084.154.126.166v-.019a.472.472,0,0,1,0-.075.04.04,0,0,1,0-.01v-.01h0a.017.017,0,0,0,0-.006h0a.02.02,0,0,1,0-.006h0a.044.044,0,0,1,0-.009h0a.123.123,0,0,1,0-.017.015.015,0,0,1,0-.006v-.008l.009-.032,0-.009,0-.016c0-.01.007-.022.012-.032a.1.1,0,0,1,.006-.015l.009-.021c.009-.021.019-.041.029-.061a.6.6,0,0,1,.031-.055,1.309,1.309,0,0,1,.1-.142Zm.816,2.591h0a.092.092,0,0,1-.046,0h-.007l-.014,0a.108.108,0,0,1-.031-.019l-.011-.01a.28.28,0,0,1-.054-.085.273.273,0,0,0-.016.088.14.14,0,0,0,.068.131.255.255,0,0,1,.071.07h0a.005.005,0,0,0,0,0h0a.018.018,0,0,1,0-.006.018.018,0,0,1,0-.006.408.408,0,0,1,.032-.089l.016-.031.007-.01a.132.132,0,0,1,.01-.017l.007-.01.011-.018A.131.131,0,0,1,420.233,244.219Zm-.816-2.591-.1-.214-.039.01.1.213.734,1.547a.945.945,0,0,0-.225.524.354.354,0,0,0,.019.112c.037.109.084.154.126.166v-.019a.472.472,0,0,1,0-.075.04.04,0,0,1,0-.01v-.01h0a.017.017,0,0,0,0-.006h0a.02.02,0,0,1,0-.006h0a.044.044,0,0,1,0-.009h0a.123.123,0,0,1,0-.017.015.015,0,0,1,0-.006v-.008l.009-.032,0-.009,0-.016c0-.01.007-.022.012-.032a.1.1,0,0,1,.006-.015l.009-.021c.009-.021.019-.041.029-.061a.6.6,0,0,1,.031-.055,1.309,1.309,0,0,1,.1-.142Zm.816,2.591h0a.092.092,0,0,1-.046,0h-.007l-.014,0a.108.108,0,0,1-.031-.019l-.011-.01a.28.28,0,0,1-.054-.085.273.273,0,0,0-.016.088.14.14,0,0,0,.068.131.255.255,0,0,1,.071.07h0a.005.005,0,0,0,0,0h0a.018.018,0,0,1,0-.006.018.018,0,0,1,0-.006.408.408,0,0,1,.032-.089l.016-.031.007-.01a.132.132,0,0,1,.01-.017l.007-.01.011-.018A.131.131,0,0,1,420.233,244.219Zm-.816-2.591-.1-.214-.039.01.1.213.734,1.547a.945.945,0,0,0-.225.524.354.354,0,0,0,.019.112c.037.109.084.154.126.166v-.019a.472.472,0,0,1,0-.075.04.04,0,0,1,0-.01v-.01h0a.017.017,0,0,0,0-.006h0a.02.02,0,0,1,0-.006h0a.044.044,0,0,1,0-.009h0a.123.123,0,0,1,0-.017.015.015,0,0,1,0-.006v-.008l.009-.032,0-.009,0-.016c0-.01.007-.022.012-.032a.1.1,0,0,1,.006-.015l.009-.021c.009-.021.019-.041.029-.061a.6.6,0,0,1,.031-.055,1.309,1.309,0,0,1,.1-.142Zm.816,2.591h0a.092.092,0,0,1-.046,0h-.007l-.014,0a.108.108,0,0,1-.031-.019l-.011-.01a.28.28,0,0,1-.054-.085.273.273,0,0,0-.016.088.14.14,0,0,0,.068.131.255.255,0,0,1,.071.07h0a.005.005,0,0,0,0,0h0a.018.018,0,0,1,0-.006.018.018,0,0,1,0-.006.408.408,0,0,1,.032-.089l.016-.031.007-.01a.132.132,0,0,1,.01-.017l.007-.01.011-.018A.131.131,0,0,1,420.233,244.219Zm-.816-2.591-.1-.214-.039.01.1.213.734,1.547a.945.945,0,0,0-.225.524.354.354,0,0,0,.019.112c.037.109.084.154.126.166v-.019a.472.472,0,0,1,0-.075.04.04,0,0,1,0-.01v-.01h0a.017.017,0,0,0,0-.006h0a.02.02,0,0,1,0-.006h0a.044.044,0,0,1,0-.009h0a.123.123,0,0,1,0-.017.015.015,0,0,1,0-.006v-.008l.009-.032,0-.009,0-.016c0-.01.007-.022.012-.032a.1.1,0,0,1,.006-.015l.009-.021c.009-.021.019-.041.029-.061a.6.6,0,0,1,.031-.055,1.309,1.309,0,0,1,.1-.142Zm.816,2.591h0a.092.092,0,0,1-.046,0h-.007l-.014,0a.108.108,0,0,1-.031-.019l-.011-.01a.28.28,0,0,1-.054-.085.273.273,0,0,0-.016.088.14.14,0,0,0,.068.131.255.255,0,0,1,.071.07h0a.005.005,0,0,0,0,0h0a.018.018,0,0,1,0-.006.018.018,0,0,1,0-.006.408.408,0,0,1,.032-.089l.016-.031.007-.01a.132.132,0,0,1,.01-.017l.007-.01.011-.018A.131.131,0,0,1,420.233,244.219Zm-.816-2.591-.1-.214-.039.01.1.213.734,1.547a.945.945,0,0,0-.225.524.354.354,0,0,0,.019.112c.037.109.084.154.126.166v-.019a.472.472,0,0,1,0-.075.04.04,0,0,1,0-.01v-.01h0a.017.017,0,0,0,0-.006h0a.02.02,0,0,1,0-.006h0a.044.044,0,0,1,0-.009h0a.123.123,0,0,1,0-.017.015.015,0,0,1,0-.006v-.008l.009-.032,0-.009,0-.016c0-.01.007-.022.012-.032a.1.1,0,0,1,.006-.015l.009-.021c.009-.021.019-.041.029-.061a.6.6,0,0,1,.031-.055,1.309,1.309,0,0,1,.1-.142Zm.816,2.591h0a.092.092,0,0,1-.046,0h-.007l-.014,0a.108.108,0,0,1-.031-.019l-.011-.01a.28.28,0,0,1-.054-.085.273.273,0,0,0-.016.088.14.14,0,0,0,.068.131.255.255,0,0,1,.071.07h0a.005.005,0,0,0,0,0h0a.023.023,0,0,1,0-.007.014.014,0,0,1,0-.005.408.408,0,0,1,.032-.089c.008-.014.014-.028.023-.04a.132.132,0,0,1,.01-.017l.007-.01.011-.018A.132.132,0,0,1,420.233,244.219Zm-.816-2.591-.1-.214-.039.01.1.213.734,1.547a.945.945,0,0,0-.225.524.354.354,0,0,0,.019.112c.037.109.084.154.126.166v-.019a.472.472,0,0,1,0-.075.04.04,0,0,1,0-.01v-.01h0a.017.017,0,0,0,0-.006h0v0a.02.02,0,0,1,0-.006h0a.044.044,0,0,1,0-.009h0a.121.121,0,0,1,0-.017.016.016,0,0,1,0-.006v-.007l.009-.032,0-.009,0-.017c0-.01.007-.022.012-.032a.1.1,0,0,1,.006-.015l.009-.021c.009-.021.019-.041.029-.061a.6.6,0,0,1,.031-.055,1.306,1.306,0,0,1,.1-.142Zm.816,2.591h0a.092.092,0,0,1-.046,0h-.007l-.014,0a.108.108,0,0,1-.031-.019l-.011-.01a.28.28,0,0,1-.054-.085.273.273,0,0,0-.016.088.14.14,0,0,0,.068.131.255.255,0,0,1,.071.07h0a.005.005,0,0,0,0,0h0a.023.023,0,0,1,0-.007.014.014,0,0,1,0-.005.408.408,0,0,1,.032-.089c.008-.014.014-.028.023-.04a.132.132,0,0,1,.01-.017l.007-.01.011-.018A.132.132,0,0,1,420.233,244.219Z" transform="translate(-386.296 -213.556)"/>
      <path id="Path_395" data-name="Path 395" class="cls-22" d="M467.3,782.961a5.113,5.113,0,0,0,1.665-.049c.542-.187-.168.805-.9,1.04a7.02,7.02,0,0,1-1.6.271l-.866-.814-.919.07.16.9-.285.027-.111-1.179Z" transform="translate(-430.485 -726.612)"/>
      <path id="Path_396" data-name="Path 396" class="cls-20" d="M467.3,782.961a5.113,5.113,0,0,0,1.665-.049c.542-.187-.168.805-.9,1.04a7.02,7.02,0,0,1-1.6.271l-.866-.814-.919.07.16.9-.285.027-.111-1.179Z" transform="translate(-430.485 -726.612)"/>
      <path id="Path_397" data-name="Path 397" class="cls-22" d="M480.989,811.34a6.218,6.218,0,0,0,2.022.129c.678-.165-.294.958-1.216,1.16a8.662,8.662,0,0,1-1.971.15l-.953-1.09-1.124-.019.092,1.112h-.35V811.34Z" transform="translate(-442.557 -752.933)"/>
      <path id="Path_398" data-name="Path 398" class="cls-20" d="M480.989,811.34a6.218,6.218,0,0,0,2.022.129c.678-.165-.294.958-1.216,1.16a8.662,8.662,0,0,1-1.971.15l-.953-1.09-1.124-.019.092,1.112h-.35V811.34Z" transform="translate(-442.557 -752.933)"/>
      <path id="Path_399" data-name="Path 399" class="cls-18" d="M440.981,469.75s-2.3,2.56-.921,5.452a2.076,2.076,0,0,1,.019.608,8.034,8.034,0,0,0,.221,1.289s.037,2.172,0,2.542-.075.571-.075.571a36.04,36.04,0,0,0-.349,5.211c.166,1.2.24,3.334.24,3.334l.682,5.747,3.537-.663-1.6-7.884-.055-1.4a5.242,5.242,0,0,0,.368-2.579c-.3-.866.075-11.9.075-11.9Z" transform="translate(-407.523 -436.928)"/>
      <path id="Path_400" data-name="Path 400" class="cls-16" d="M440.981,469.75s-2.3,2.56-.921,5.452a2.076,2.076,0,0,1,.019.608,8.034,8.034,0,0,0,.221,1.289s.037,2.172,0,2.542-.075.571-.075.571a36.04,36.04,0,0,0-.349,5.211c.166,1.2.24,3.334.24,3.334l.682,5.747,3.537-.663-1.6-7.884-.055-1.4a5.242,5.242,0,0,0,.368-2.579c-.3-.866.075-11.9.075-11.9Z" transform="translate(-407.523 -436.928)"/>
      <path id="Path_401" data-name="Path 401" class="cls-18" d="M452.916,483.33a6.262,6.262,0,0,1,.15,2.652c-.534.461-.24,4.476-.24,4.476a37.832,37.832,0,0,1-.607,4.419,9.219,9.219,0,0,0-.2,2.358,6.8,6.8,0,0,0,4.476-.571s-.866-1.971-.884-2.063c-.01-.052-.125.088-.16.129.018-.025.065-.089.16-.225.368-.516,0-1.511,0-1.511a17.04,17.04,0,0,0,.24-3.5c-.221-.3.037-1.381.166-1.639a3.632,3.632,0,0,0,.294-1.123,2.266,2.266,0,0,1,.111-.589,3.853,3.853,0,0,0,.461-2.156,17.883,17.883,0,0,1,.294-3.463c.331-1.529-.413-5.858-.413-5.858s.248-.847.064-1.16a1.6,1.6,0,0,1-.036-.794c.045-.393.128-.771.128-.771l-5.025-.892c-.106.176-.2.347-.291.511-1.662,3.071-.541,4.212-.541,4.212l1.066,3.287A23.821,23.821,0,0,0,452.916,483.33Z" transform="translate(-417.763 -438.13)"/>
      <path id="Path_402" data-name="Path 402" class="cls-23" d="M586.92,287.857l.718.61s.141-.112.33-.281c.449-.406,1.177-1.141.9-1.452a.545.545,0,0,0-.772-.13c.04-.043.874-.936.533-.864s-.995.848-.995.848l-.516.911Z" transform="translate(-543.791 -266.695)"/>
      <path id="Path_403" data-name="Path 403" class="cls-23" d="M440.614,415.35l.847.258-.644,1.124-.737-.958Z" transform="translate(-407.119 -384.241)"/>
      <circle id="Ellipse_65" data-name="Ellipse 65" class="cls-23" cx="2.413" cy="2.413" r="2.413" transform="translate(33.072 15.728)"/>
      <path id="Path_404" data-name="Path 404" class="cls-23" d="M445.324,276.973s-2.192,3.479-.111,3.779-2.8,2.413-2.8,2.413l-1.824-1.842s1.9-3.279,1.6-4.531S445.324,276.973,445.324,276.973Z" transform="translate(-408.421 -257.947)"/>
      <path id="Path_405" data-name="Path 405" class="cls-20" d="M462.82,471.631a11.39,11.39,0,0,0,1.485.344s2.714,1.205,3.7.809c.045-.393.128-.772.128-.772l-5.025-.892C463.006,471.3,462.908,471.467,462.82,471.631Z" transform="translate(-428.986 -438.195)"/>
      <path id="Path_406" data-name="Path 406" class="cls-19" d="M429.189,328.728l.491,1.015.554,1.143.075.163.657,1.423.835,1.8s-.3.35-.2.626c.086.258.221.146.238.13-.016.022-.194.261-.035.367s.11.35.11.35a12.718,12.718,0,0,0-.81,1.529c-.129.405,2.063.756,2.063.756s3.113,1.381,3.886.7,0-3.886,0-3.886a7.324,7.324,0,0,0-.2-2.007c-.2-.166-.106-1.443-.106-1.443a1.516,1.516,0,0,0,.166-1.529l.15-2.5s-.24-.258-.424-.276a1.84,1.84,0,0,0-.35,0s-.1-.033-.237-.075a2,2,0,0,0-.96-.112,7.917,7.917,0,0,1-1.915-.2,20.275,20.275,0,0,0-2.156-.2,2.131,2.131,0,0,0-.731.079.979.979,0,0,0-.706.62,1.263,1.263,0,0,1-.221.847C429.061,328.52,429.189,328.728,429.189,328.728Z" transform="translate(-397.849 -304.398)"/>
      <path id="Path_407" data-name="Path 407" class="cls-20" d="M586.92,309.616l.718.61s.141-.112.33-.281c.057-.622-.473-.7-.846-.688Z" transform="translate(-543.791 -288.454)"/>
      <path id="Path_408" data-name="Path 408" class="cls-19" d="M524.972,312.317l.313.019s.736.091.974-.13a2.724,2.724,0,0,1,1.087-.294,1.824,1.824,0,0,1,.5-.626c.258-.147.885-.424.9-.571a1.264,1.264,0,0,1,.24-.423s1.381-.332,1.179.755a4.231,4.231,0,0,1-1.321,2.025s-.129.608-.553.756-3.168,1.437-3.61,1.1S524.972,312.317,524.972,312.317Z" transform="translate(-486.079 -289.368)"/>
      <path id="Path_409" data-name="Path 409" class="cls-20" d="M429.371,328.2a1.274,1.274,0,0,0,.221-.847.978.978,0,0,1,.706-.62,1.815,1.815,0,0,1,.359-.07.978.978,0,0,0-.7.617,1.263,1.263,0,0,1-.221.847c-.3.479-.166.682-.166.682l.491,1.015.553,1.142.079.164.657,1.419.835,1.8s-.3.351-.2.627c.086.258.221.145.238.13-.016.021-.194.262-.035.367s.11.35.11.35a12.706,12.706,0,0,0-.81,1.529c-.129.405,2.063.755,2.063.755a10.085,10.085,0,0,0,3.33.885c-.993.389-3.7-.81-3.7-.81s-2.192-.35-2.063-.756a12.694,12.694,0,0,1,.81-1.528.351.351,0,0,0-.11-.35c-.166-.11.019-.345.035-.367-.017.016-.15.128-.238-.13-.092-.276.2-.626.2-.626l-.835-1.8-.657-1.423-.075-.163-.554-1.143-.491-1.015S429.076,328.677,429.371,328.2Z" transform="translate(-397.865 -304.555)"/>
      <path id="Path_410" data-name="Path 410" class="cls-19" d="M417.89,352.68l-.331.276a1.523,1.523,0,0,1-.276.5,15.263,15.263,0,0,0-.682,2.21.358.358,0,0,1,0,.3c-.075.15.15.369.15.369s.11-.037-.075.166.166.443.166.443a32.978,32.978,0,0,0,1.823,2.854,3.682,3.682,0,0,1,.626.995s.656-1.029.81-1.049l-.644-1.455a10.347,10.347,0,0,0-.774-2.4c-.331-.37.166-1.64.166-1.64Z" transform="translate(-386.215 -328.626)"/>
      <path id="Path_411" data-name="Path 411" class="cls-20" d="M428.223,332.255a1.339,1.339,0,0,0,1.193.354c.063-.008.127-.017.189-.029a2.746,2.746,0,0,0,.279-.065,2.91,2.91,0,0,0,.915-.449.63.63,0,0,1,.205-.118.433.433,0,0,1,.437.234c.094.15.138.327.234.475a1.093,1.093,0,0,0,.9.444,3.225,3.225,0,0,0,1.025-.2,3.057,3.057,0,0,1-.658-1.093,2.587,2.587,0,0,1-.052-.824,4.477,4.477,0,0,1,1.595-3.436c.184-.131.407-.286.468-.485a2,2,0,0,0-.96-.112,7.919,7.919,0,0,1-1.915-.2,20.3,20.3,0,0,0-2.156-.2,2.134,2.134,0,0,0-.731.079,4.6,4.6,0,0,1,.061,1.648,3.688,3.688,0,0,1-.365.97c-.094.184-.2.364-.3.545a4.069,4.069,0,0,0-.6,1.573A1.259,1.259,0,0,0,428.223,332.255Z" transform="translate(-396.763 -304.444)"/>
      <path id="Path_412" data-name="Path 412" class="cls-20" d="M470.434,436.587a1.3,1.3,0,0,0-.431-.037.794.794,0,0,0-.323.188l.947.005a1.255,1.255,0,0,0,.8-.157C471.253,436.416,470.678,436.618,470.434,436.587Z" transform="translate(-435.332 -406.184)"/>
      <path id="Path_413" data-name="Path 413" class="cls-4" d="M434.295,235.981a1.43,1.43,0,0,1,.164,1.387c-.15.356-.444.634-.623.977a1.762,1.762,0,0,0,.06,1.706.862.862,0,0,1,.15.306c.043.281-.248.482-.479.648a4.471,4.471,0,0,0-1.595,3.436,2.588,2.588,0,0,0,.051.824,3.057,3.057,0,0,0,.658,1.093,3.225,3.225,0,0,1-1.025.2,1.093,1.093,0,0,1-.9-.444c-.1-.15-.141-.325-.234-.475a.433.433,0,0,0-.435-.234.607.607,0,0,0-.206.118,2.915,2.915,0,0,1-1.384.545,1.334,1.334,0,0,1-1.192-.354,1.221,1.221,0,0,1-.225-.891c.1-1.115,1.04-1.992,1.259-3.09a10.512,10.512,0,0,0-.2-2.7,9.409,9.409,0,0,1,.877-3.895,4.131,4.131,0,0,1,.419-.885,2.477,2.477,0,0,1,1.8-1.01,1.683,1.683,0,0,1,.777.075,2.357,2.357,0,0,1,.666.456,4.481,4.481,0,0,1,1.189,1.354c.107.225.178.462.3.679Z" transform="translate(-395.911 -218.12)"/>
      <g id="Group_69" data-name="Group 69" class="cls-24" transform="translate(31.295 16.117)">
        <path id="Path_414" data-name="Path 414" d="M509.342,247.975c-.12-.217-.189-.456-.3-.679a2.722,2.722,0,0,0-.382-.576,3.237,3.237,0,0,1,.674.891c.1.216.174.449.287.66l-.145-.123a1.214,1.214,0,0,1,.1.16A1.653,1.653,0,0,1,509.342,247.975Z" transform="translate(-502.688 -246.72)"/>
        <path id="Path_415" data-name="Path 415" d="M429.909,392.145a2.9,2.9,0,0,0,1.384-.544.626.626,0,0,1,.206-.118.433.433,0,0,1,.436.234c.019.031.037.065.053.1a.3.3,0,0,0-.194-.019.608.608,0,0,0-.206.118,2.914,2.914,0,0,1-1.384.544,1.334,1.334,0,0,1-1.192-.354.918.918,0,0,1-.091-.137A1.536,1.536,0,0,0,429.909,392.145Z" transform="translate(-428.92 -380.633)"/>
        <path id="Path_416" data-name="Path 416" d="M476.4,278.309a3.227,3.227,0,0,0,1.025-.2,3.056,3.056,0,0,1-.658-1.093,2.585,2.585,0,0,1-.052-.824,4.472,4.472,0,0,1,1.6-3.436c.231-.165.524-.367.479-.649a.878.878,0,0,0-.15-.306,1.762,1.762,0,0,1-.061-1.706c.18-.343.472-.622.624-.978a1.435,1.435,0,0,0-.063-1.227,1.715,1.715,0,0,0,.162.15,1.647,1.647,0,0,0,.133.163,1.434,1.434,0,0,1,.062,1.228c-.15.356-.444.634-.623.977a1.762,1.762,0,0,0,.06,1.706.861.861,0,0,1,.15.306c.043.281-.248.482-.479.648a4.471,4.471,0,0,0-1.595,3.436,2.578,2.578,0,0,0,.051.824,3.058,3.058,0,0,0,.658,1.093,3.224,3.224,0,0,1-1.025.2,1.093,1.093,0,0,1-.9-.444c-.013-.02-.024-.04-.035-.06A1.255,1.255,0,0,0,476.4,278.309Z" transform="translate(-472.242 -266.304)"/>
      </g>
      <path id="Path_417" data-name="Path 417" class="cls-25" d="M252.019,179.57v1.573H245.19q.312-.433.638-.854c.03-.039.06-.075.091-.116l.32-.4h0l.044-.055h0l.116-.142Z" transform="translate(-227.656 -168.482)"/>
      <rect id="Rectangle_823" data-name="Rectangle 823" class="cls-25" width="7.176" height="1.571" transform="translate(31.317 11.088)"/>
      <rect id="Rectangle_824" data-name="Rectangle 824" class="cls-25" width="7.176" height="1.571" transform="translate(47.799 11.088)"/>
      <rect id="Rectangle_825" data-name="Rectangle 825" class="cls-25" width="7.176" height="1.571" transform="translate(61.738 11.088)"/>
    </g>
  </g>
</svg>
