<svg xmlns="http://www.w3.org/2000/svg" xmlns:xlink="http://www.w3.org/1999/xlink" viewBox="0 0 1323.415 1098">
  <defs>
    <style>
      .cls-1 {
        fill: url(#radial-gradient);
      }

      .cls-2 {
        fill: #fff;
      }

      .cls-3 {
        filter: url(#Shape_1);
      }
    </style>
    <radialGradient id="radial-gradient" cx="0.481" cy="0.5" r="1.162" gradientTransform="translate(0.083 0.199) scale(0.827 0.602)" gradientUnits="objectBoundingBox">
      <stop offset="0" stop-color="#a9001d"/>
      <stop offset="1" stop-color="#b30f26"/>
      <stop offset="1" stop-color="#d74548"/>
    </radialGradient>
    <filter id="Shape_1" x="0" y="0" width="1323.415" height="1098" filterUnits="userSpaceOnUse">
      <feOffset dy="3" input="SourceAlpha"/>
      <feGaussianBlur stdDeviation="3" result="blur"/>
      <feFlood flood-opacity="0.161"/>
      <feComposite operator="in" in2="blur"/>
      <feComposite in="SourceGraphic"/>
    </filter>
  </defs>
  <g id="Group_128" data-name="Group 128" transform="translate(12 6)">
    <g class="cls-3" transform="matrix(1, 0, 0, 1, -12, -6)">
      <path id="Shape_1-2" data-name="Shape 1" class="cls-1" d="M710.6,101l1269.641,1.706s135.016,255.87-169.521,343.748c0,0-256.593,55.493-134,321.655,0,0,165.911,255.924-53.563,378.768,0,0-137.74,76.777-351.135,0,0,0-249.079-99.81-567.371,30.711Z" transform="translate(-695.65 -95)"/>
    </g>
    <g id="Zig_Zag:_Green_short" data-name="Zig Zag: Green, short" transform="translate(796.188 178.313)">
      <path id="Path_758" data-name="Path 758" class="cls-2" d="M3.4,105.508l-2.324-2.241L19.84,83.759,0,63.089l19.84-20.67L0,21.749,20.919,0l2.324,2.241L4.483,21.749l19.84,20.67L4.483,63.089l19.84,20.67Z" transform="translate(-123.188 -83.313)"/>
    </g>
    <g id="Zig_Zag:_Green_short-2" data-name="Zig Zag: Green, short" transform="translate(871.188 570.313)">
      <path id="Path_758-2" data-name="Path 758" class="cls-2" d="M3.4,105.508l-2.324-2.241L19.84,83.759,0,63.089l19.84-20.67L0,21.749,20.919,0l2.324,2.241L4.483,21.749l19.84,20.67L4.483,63.089l19.84,20.67Z" transform="translate(-123.188 -83.313)"/>
    </g>
    <g id="Zig_Zag:_Green_short-3" data-name="Zig Zag: Green, short" transform="translate(1229.188 231.313)">
      <path id="Path_758-3" data-name="Path 758" class="cls-2" d="M3.4,105.508l-2.324-2.241L19.84,83.759,0,63.089l19.84-20.67L0,21.749,20.919,0l2.324,2.241L4.483,21.749l19.84,20.67L4.483,63.089l19.84,20.67Z" transform="translate(-123.188 -83.313)"/>
    </g>
    <g id="Zig_Zag:_Green_short-4" data-name="Zig Zag: Green, short" transform="translate(992.188 990.313)">
      <path id="Path_758-4" data-name="Path 758" class="cls-2" d="M3.4,105.508l-2.324-2.241L19.84,83.759,0,63.089l19.84-20.67L0,21.749,20.919,0l2.324,2.241L4.483,21.749l19.84,20.67L4.483,63.089l19.84,20.67Z" transform="translate(-123.188 -83.313)"/>
    </g>
    <g id="Zig_Zag:_Green_short-5" data-name="Zig Zag: Green, short" transform="translate(492.188 884.313)">
      <path id="Path_758-5" data-name="Path 758" class="cls-2" d="M3.4,105.508l-2.324-2.241L19.84,83.759,0,63.089l19.84-20.67L0,21.749,20.919,0l2.324,2.241L4.483,21.749l19.84,20.67L4.483,63.089l19.84,20.67Z" transform="translate(-123.188 -83.313)"/>
    </g>
    <g id="Squiggle:_Black_short" data-name="Squiggle: Black, short" transform="translate(-853.7 -754.3)">
      <path id="Path_765" data-name="Path 765" class="cls-2" d="M3.906,156.842H0c0-6.543,4-9.766,7.52-12.7,3.32-2.734,6.153-4.981,6.153-9.668s-2.832-7.032-6.153-9.668C4,121.88,0,118.657,0,112.114s4-9.766,7.52-12.7c3.32-2.734,6.153-4.981,6.153-9.668S10.84,82.718,7.52,80.081C4,77.152,0,73.929,0,67.386s4-9.766,7.52-12.7c3.32-2.734,6.153-4.981,6.153-9.668S10.84,37.99,7.52,35.353C4,32.228,0,28.907,0,22.364S4,12.6,7.52,9.668C10.84,7.032,13.672,4.688,13.672,0h3.906c0,6.543-4,9.766-7.52,12.7-3.32,2.734-6.153,4.981-6.153,9.668s2.832,7.032,6.153,9.668c3.516,2.93,7.52,6.153,7.52,12.7s-4,9.766-7.52,12.7C6.739,60.159,3.906,62.5,3.906,67.19s2.832,7.032,6.153,9.668c3.516,2.93,7.52,6.153,7.52,12.7s-4,9.766-7.52,12.7c-3.32,2.734-6.153,4.981-6.153,9.668s2.832,7.032,6.153,9.668c3.516,2.93,7.52,6.153,7.52,12.7s-4,9.766-7.52,12.7C6.739,149.811,3.906,152.155,3.906,156.842Z" transform="translate(1151.542 893.3) rotate(90)"/>
    </g>
    <g id="Squiggle:_Black_short-2" data-name="Squiggle: Black, short" transform="translate(-466.7 13.7)">
      <path id="Path_765-2" data-name="Path 765" class="cls-2" d="M3.906,156.842H0c0-6.543,4-9.766,7.52-12.7,3.32-2.734,6.153-4.981,6.153-9.668s-2.832-7.032-6.153-9.668C4,121.88,0,118.657,0,112.114s4-9.766,7.52-12.7c3.32-2.734,6.153-4.981,6.153-9.668S10.84,82.718,7.52,80.081C4,77.152,0,73.929,0,67.386s4-9.766,7.52-12.7c3.32-2.734,6.153-4.981,6.153-9.668S10.84,37.99,7.52,35.353C4,32.228,0,28.907,0,22.364S4,12.6,7.52,9.668C10.84,7.032,13.672,4.688,13.672,0h3.906c0,6.543-4,9.766-7.52,12.7-3.32,2.734-6.153,4.981-6.153,9.668s2.832,7.032,6.153,9.668c3.516,2.93,7.52,6.153,7.52,12.7s-4,9.766-7.52,12.7C6.739,60.159,3.906,62.5,3.906,67.19s2.832,7.032,6.153,9.668c3.516,2.93,7.52,6.153,7.52,12.7s-4,9.766-7.52,12.7c-3.32,2.734-6.153,4.981-6.153,9.668s2.832,7.032,6.153,9.668c3.516,2.93,7.52,6.153,7.52,12.7s-4,9.766-7.52,12.7C6.739,149.811,3.906,152.155,3.906,156.842Z" transform="translate(1151.542 893.3) rotate(90)"/>
    </g>
    <g id="Squiggle:_Black_short-3" data-name="Squiggle: Black, short" transform="translate(-856.7 57.7)">
      <path id="Path_765-3" data-name="Path 765" class="cls-2" d="M3.906,156.842H0c0-6.543,4-9.766,7.52-12.7,3.32-2.734,6.153-4.981,6.153-9.668s-2.832-7.032-6.153-9.668C4,121.88,0,118.657,0,112.114s4-9.766,7.52-12.7c3.32-2.734,6.153-4.981,6.153-9.668S10.84,82.718,7.52,80.081C4,77.152,0,73.929,0,67.386s4-9.766,7.52-12.7c3.32-2.734,6.153-4.981,6.153-9.668S10.84,37.99,7.52,35.353C4,32.228,0,28.907,0,22.364S4,12.6,7.52,9.668C10.84,7.032,13.672,4.688,13.672,0h3.906c0,6.543-4,9.766-7.52,12.7-3.32,2.734-6.153,4.981-6.153,9.668s2.832,7.032,6.153,9.668c3.516,2.93,7.52,6.153,7.52,12.7s-4,9.766-7.52,12.7C6.739,60.159,3.906,62.5,3.906,67.19s2.832,7.032,6.153,9.668c3.516,2.93,7.52,6.153,7.52,12.7s-4,9.766-7.52,12.7c-3.32,2.734-6.153,4.981-6.153,9.668s2.832,7.032,6.153,9.668c3.516,2.93,7.52,6.153,7.52,12.7s-4,9.766-7.52,12.7C6.739,149.811,3.906,152.155,3.906,156.842Z" transform="translate(1151.542 893.3) rotate(90)"/>
    </g>
  </g>
</svg>
