<svg width="1000" height="1000" xmlns="http://www.w3.org/2000/svg">

 <g>
  <title>background</title>
  <rect fill="none" id="canvas_background" height="402" width="582" y="-1" x="-1"/>
 </g>
 <g>
  <title>Layer 1</title>
  <path id="svg_1" d="m979.096,389.455c-3.556,-121.423 -106.906,-222.927 -228.33,-223.852c-53.325,-0.407 -106.656,-0.102 -159.985,-0.061c-48.23,0.036 -67.093,14.337 -79.401,60.346c-23.806,88.987 -47.526,177.997 -71.284,266.997c-25.39,95.113 -50.248,190.376 -76.625,285.215c-5.331,19.168 -0.876,23.474 17.549,22.399c21.619,-1.262 43.369,-0.296 65.062,-0.297c62.372,-0.002 76.679,-11.056 92.881,-71.422c34.411,-128.21 69.209,-256.318 102.925,-384.711c4.468,-17.014 11.259,-23.976 29.215,-22.676c21.58,1.563 43.365,0.046 65.051,0.449c47.301,0.881 83.747,35.95 84.768,81.137c1.019,45.123 -34.035,82.833 -80.566,85.762c-17.11,1.077 -34.363,-0.237 -51.499,0.592c-30.93,1.496 -53.22,18.013 -62.148,47.604c-9.125,30.245 -15.906,61.193 -24.809,91.512c-3.637,12.387 -0.56,16.378 11.879,16.191c26.206,-0.394 52.423,-0.119 78.635,-0.119c0,-0.195 0,-0.39 0.001,-0.584c23.495,0 47.068,1.246 70.473,-0.208c123.981,-7.704 220.107,-121.105 216.208,-254.274z" fill="#412e8d"/>
  <path id="svg_2" d="m434.348,321.789c-67.875,1.284 -136.51,-7.202 -203.503,3.248c-112.929,11.896 -201.141,113.342 -201.141,236.735c0,131.393 100.019,237.908 223.398,237.908l-0.011,-0.02c15.119,1.08 31.309,1.29 48.714,0.685c10.502,-0.365 18.61,-0.232 21.841,-13.76c8.184,-34.262 18.846,-67.932 27.045,-102.189c5.424,-22.664 -5.874,-36.939 -29.052,-38.552c-16.207,-1.128 -32.563,-0.015 -48.789,-0.971c-50.787,-2.988 -85.889,-37.586 -85.338,-83.489c0.565,-47.164 37.57,-82.53 88.513,-83.82c26.209,-0.663 52.461,0.364 78.668,-0.333c33.255,-0.885 55.097,-16.745 64.46,-48.033c9.062,-30.282 16.064,-61.174 24.466,-91.661c2.549,-9.249 3.675,-15.993 -9.271,-15.748z" fill="#412e8d"/>
 </g>
</svg>