<svg id="undraw_live_collaboration_2r4y" xmlns="http://www.w3.org/2000/svg" xmlns:xlink="http://www.w3.org/1999/xlink" viewBox="0 0 811 661.595">
  <defs>
    <style>
      .cls-1 {
        opacity: 0.5;
      }

      .cls-2 {
        fill: url(#linear-gradient);
      }

      .cls-3 {
        fill: #f5f5f5;
      }

      .cls-4 {
        fill: #e06f71;
      }

      .cls-5 {
        fill: #e0e0e0;
      }

      .cls-6 {
        fill: #fff;
      }

      .cls-7, .cls-8, .cls-9 {
        fill: none;
        stroke: #535461;
        stroke-miterlimit: 10;
      }

      .cls-8 {
        stroke-dasharray: 12.58 12.58;
      }

      .cls-9 {
        stroke-dasharray: 12.44 12.44;
      }

      .cls-10 {
        fill: #333;
      }

      .cls-11 {
        opacity: 0.1;
      }

      .cls-12 {
        fill: #fdb797;
      }
    </style>
    <linearGradient id="linear-gradient" x1="0.5" y1="1" x2="0.5" gradientUnits="objectBoundingBox">
      <stop offset="0" stop-color="gray" stop-opacity="0.251"/>
      <stop offset="0.54" stop-color="gray" stop-opacity="0.122"/>
      <stop offset="1" stop-color="gray" stop-opacity="0.102"/>
    </linearGradient>
  </defs>
  <g id="Group_49" data-name="Group 49" class="cls-1" transform="translate(0 18.233)">
    <rect id="Rectangle_748" data-name="Rectangle 748" class="cls-2" width="438.156" height="404.258" rx="4.5"/>
  </g>
  <rect id="Rectangle_749" data-name="Rectangle 749" class="cls-3" width="428.052" height="394.455" rx="4.5" transform="translate(5.344 21.366)"/>
  <rect id="Rectangle_750" data-name="Rectangle 750" class="cls-4" width="72.19" height="64.974" rx="4.5" transform="translate(38.339 86.34)"/>
  <rect id="Rectangle_751" data-name="Rectangle 751" class="cls-5" width="286.974" height="7.216" rx="3.44" transform="translate(132.178 86.34)"/>
  <rect id="Rectangle_752" data-name="Rectangle 752" class="cls-5" width="286.974" height="7.216" rx="3.44" transform="translate(132.178 107.998)"/>
  <rect id="Rectangle_753" data-name="Rectangle 753" class="cls-5" width="388.038" height="7.216" rx="3.44" transform="translate(31.113 186.605)"/>
  <rect id="Rectangle_754" data-name="Rectangle 754" class="cls-5" width="388.038" height="7.216" rx="3.44" transform="translate(31.113 208.254)"/>
  <rect id="Rectangle_755" data-name="Rectangle 755" class="cls-5" width="388.038" height="7.216" rx="3.44" transform="translate(31.113 237.138)"/>
  <rect id="Rectangle_756" data-name="Rectangle 756" class="cls-5" width="223.787" height="7.216" rx="3.44" transform="translate(31.113 258.786)"/>
  <rect id="Rectangle_757" data-name="Rectangle 757" class="cls-5" width="388.038" height="7.216" rx="3.44" transform="translate(31.113 287.595)"/>
  <rect id="Rectangle_758" data-name="Rectangle 758" class="cls-5" width="388.038" height="7.216" rx="3.44" transform="translate(31.113 309.253)"/>
  <rect id="Rectangle_759" data-name="Rectangle 759" class="cls-5" width="388.038" height="7.216" rx="3.44" transform="translate(31.113 338.127)"/>
  <rect id="Rectangle_760" data-name="Rectangle 760" class="cls-5" width="223.787" height="7.216" rx="3.44" transform="translate(31.113 359.785)"/>
  <g id="Group_50" data-name="Group 50" class="cls-1" transform="translate(66.131 111.649)">
    <rect id="Rectangle_761" data-name="Rectangle 761" class="cls-2" width="438.156" height="404.258" rx="4.5"/>
  </g>
  <rect id="Rectangle_762" data-name="Rectangle 762" class="cls-6" width="428.052" height="394.455" rx="4.5" transform="translate(71.475 114.782)"/>
  <rect id="Rectangle_763" data-name="Rectangle 763" class="cls-4" width="72.19" height="64.974" rx="4.5" transform="translate(104.461 179.756)"/>
  <rect id="Rectangle_764" data-name="Rectangle 764" class="cls-5" width="286.974" height="7.216" rx="3.44" transform="translate(198.309 179.756)"/>
  <rect id="Rectangle_765" data-name="Rectangle 765" class="cls-5" width="286.974" height="7.216" rx="3.44" transform="translate(198.309 201.414)"/>
  <rect id="Rectangle_766" data-name="Rectangle 766" class="cls-5" width="388.038" height="7.216" rx="3.44" transform="translate(97.245 280.021)"/>
  <rect id="Rectangle_767" data-name="Rectangle 767" class="cls-5" width="388.038" height="7.216" rx="3.44" transform="translate(97.245 301.679)"/>
  <rect id="Rectangle_768" data-name="Rectangle 768" class="cls-5" width="388.038" height="7.216" rx="3.44" transform="translate(97.245 330.553)"/>
  <rect id="Rectangle_769" data-name="Rectangle 769" class="cls-5" width="223.787" height="7.216" rx="3.44" transform="translate(97.245 352.211)"/>
  <rect id="Rectangle_770" data-name="Rectangle 770" class="cls-5" width="388.038" height="7.216" rx="3.44" transform="translate(97.245 381.01)"/>
  <rect id="Rectangle_771" data-name="Rectangle 771" class="cls-5" width="388.038" height="7.216" rx="3.44" transform="translate(97.245 402.668)"/>
  <rect id="Rectangle_772" data-name="Rectangle 772" class="cls-5" width="388.038" height="7.216" rx="3.44" transform="translate(97.245 431.542)"/>
  <rect id="Rectangle_773" data-name="Rectangle 773" class="cls-5" width="223.787" height="7.216" rx="3.44" transform="translate(97.245 453.2)"/>
  <line id="Line_1" data-name="Line 1" class="cls-7" y1="3.876" x2="4.102" transform="translate(504.288 256.491)"/>
  <line id="Line_2" data-name="Line 2" class="cls-8" y1="142.405" x2="150.487" transform="translate(516.989 105.947)"/>
  <line id="Line_3" data-name="Line 3" class="cls-7" y1="3.876" x2="4.093" transform="translate(671.775 97.997)"/>
  <line id="Line_4" data-name="Line 4" class="cls-7" x2="4.206" y2="3.773" transform="translate(505.821 402.668)"/>
  <line id="Line_5" data-name="Line 5" class="cls-9" x2="152.444" y2="136.854" transform="translate(518.739 414.259)"/>
  <line id="Line_6" data-name="Line 6" class="cls-7" x2="4.196" y2="3.763" transform="translate(675.539 555.027)"/>
  <g id="Group_51" data-name="Group 51" class="cls-1" transform="translate(565.451 418.314)">
    <circle id="Ellipse_29" data-name="Ellipse 29" class="cls-2" cx="121.641" cy="121.641" r="121.641"/>
  </g>
  <circle id="Ellipse_30" data-name="Ellipse 30" class="cls-3" cx="119.072" cy="119.072" r="119.072" transform="translate(568.02 420.215)"/>
  <path id="Path_205" data-name="Path 205" class="cls-10" d="M961.262,678.843c0,43.852-28.62,92.672-63.911,92.672s-63.911-48.829-63.911-92.672,28.62-66.113,63.911-66.113S961.262,634.981,961.262,678.843Z" transform="translate(-208.311 -128.83)"/>
  <path id="Path_206" data-name="Path 206" class="cls-4" d="M895.361,795.714a118.545,118.545,0,0,0,65.454-19.588c-4.384-23.982-21.084-25.346-21.084-25.346H847.7s-15.759,1.3-20.7,23.352a118.545,118.545,0,0,0,68.361,21.583Z" transform="translate(-207.93 -136.998)"/>
  <path id="Path_207" data-name="Path 207" class="cls-11" d="M709.61,621.29h36.824v31.367a16.5,16.5,0,0,1-16.5,16.5h-3.82a16.5,16.5,0,0,1-16.5-16.5V621.29Z" transform="translate(-41.984 -36.758)"/>
  <path id="Path_208" data-name="Path 208" class="cls-12" d="M712.8,619.84h30.53a3.152,3.152,0,0,1,3.152,3.152v28.225a16.5,16.5,0,0,1-16.5,16.5h-3.82a16.5,16.5,0,0,1-16.5-16.5V622.992a3.152,3.152,0,0,1,3.142-3.152Z" transform="translate(-41.987 -36.673)"/>
  <path id="Path_209" data-name="Path 209" class="cls-11" d="M878.68,734.2a53,53,0,0,0,36.824.1V729.78H878.68Z" transform="translate(-210.988 -135.755)"/>
  <circle id="Ellipse_31" data-name="Ellipse 31" class="cls-12" cx="52.781" cy="52.781" r="52.781" transform="translate(633.398 495.34)"/>
  <ellipse id="Ellipse_32" data-name="Ellipse 32" class="cls-12" cx="4.911" cy="9.211" rx="4.911" ry="9.211" transform="translate(629.569 536.662)"/>
  <ellipse id="Ellipse_33" data-name="Ellipse 33" class="cls-12" cx="4.911" cy="9.211" rx="4.911" ry="9.211" transform="translate(732.685 536.662)"/>
  <path id="Path_210" data-name="Path 210" class="cls-11" d="M848.61,648.7s29.881,40.87,98.28,26.9c0,0,7.64-9.3-10.961-37.85S865.545,613.84,848.61,648.7Z" transform="translate(-209.209 -129.206)"/>
  <path id="Path_211" data-name="Path 211" class="cls-10" d="M848.61,648s29.881,40.842,98.28,26.9c0,0,7.64-9.3-10.961-37.85S865.545,613.13,848.61,648Z" transform="translate(-209.209 -129.165)"/>
  <g id="Group_52" data-name="Group 52" class="cls-1" transform="translate(567.719 0)">
    <circle id="Ellipse_34" data-name="Ellipse 34" class="cls-2" cx="121.641" cy="121.641" r="121.641"/>
  </g>
  <circle id="Ellipse_35" data-name="Ellipse 35" class="cls-3" cx="119.072" cy="119.072" r="119.072" transform="translate(570.532 1.788)"/>
  <path id="Path_212" data-name="Path 212" class="cls-4" d="M897.769,351.094a118.545,118.545,0,0,0,65.454-19.588c-4.384-23.982-21.084-25.346-21.084-25.346h-92.07s-15.759,1.3-20.7,23.352a118.545,118.545,0,0,0,68.4,21.583Z" transform="translate(-208.071 -110.692)"/>
  <circle id="Ellipse_36" data-name="Ellipse 36" class="cls-10" cx="57.476" cy="57.476" r="57.476" transform="translate(630.971 60.872)"/>
  <path id="Path_213" data-name="Path 213" class="cls-11" d="M712,176.67h36.824v31.358a16.5,16.5,0,0,1-16.5,16.5H728.5a16.5,16.5,0,0,1-16.5-16.5Z" transform="translate(-42.125 -10.453)"/>
  <path id="Path_214" data-name="Path 214" class="cls-12" d="M715.171,175.22H745.7a3.152,3.152,0,0,1,3.152,3.152V206.6a16.5,16.5,0,0,1-16.5,16.5h-3.82A16.5,16.5,0,0,1,712,206.6V178.372a3.152,3.152,0,0,1,3.171-3.152Z" transform="translate(-42.125 -10.367)"/>
  <path id="Path_215" data-name="Path 215" class="cls-11" d="M881.1,289.582a53,53,0,0,0,36.824.1V285.16H881.1Z" transform="translate(-211.131 -109.45)"/>
  <circle id="Ellipse_37" data-name="Ellipse 37" class="cls-12" cx="52.781" cy="52.781" r="52.781" transform="translate(635.666 77.026)"/>
  <path id="Path_216" data-name="Path 216" class="cls-11" d="M860.78,184.505s22.241,45.16,84.995,18.93l-14.611-22.909-25.9-9.3Z" transform="translate(-209.929 -102.709)"/>
  <path id="Path_217" data-name="Path 217" class="cls-10" d="M860.78,183.8s22.241,45.16,84.995,18.93l-14.611-22.919-25.9-9.3Z" transform="translate(-209.929 -102.667)"/>
  <path id="Path_218" data-name="Path 218" class="cls-10" d="M860.5,179.1a30.491,30.491,0,0,1,7.527-12.3c10.349-10.265,27.407-12.428,36.138-24.132a6.831,6.831,0,0,1-3.133,9.634c8.355-.056,18.055-.79,22.787-7.677a15.646,15.646,0,0,1-2.634,16.521c7.414.339,15.326,5.372,15.806,12.777.32,4.93-2.775,9.606-6.831,12.438s-8.957,4.13-13.792,5.193C902.3,194.67,851.3,207.7,860.5,179.1Z" transform="translate(-209.847 -101.019)"/>
  <ellipse id="Ellipse_38" data-name="Ellipse 38" class="cls-12" cx="4.911" cy="9.211" rx="4.911" ry="9.211" transform="translate(630.727 120.549)"/>
  <ellipse id="Ellipse_39" data-name="Ellipse 39" class="cls-12" cx="4.911" cy="9.211" rx="4.911" ry="9.211" transform="translate(736.316 120.549)"/>
</svg>
