<svg xmlns="http://www.w3.org/2000/svg" xmlns:xlink="http://www.w3.org/1999/xlink" viewBox="0 0 711.445 672.895">
  <defs>
    <style>
      .cls-1, .cls-7 {
        fill: #f8f9fc;
      }

      .cls-1, .cls-14, .cls-6 {
        opacity: 0.1;
      }

      .cls-2 {
        fill: url(#linear-gradient);
      }

      .cls-3 {
        fill: #d38884;
      }

      .cls-4 {
        fill: #444053;
      }

      .cls-5 {
        fill: #b07473;
      }

      .cls-8 {
        fill: #67647e;
      }

      .cls-9 {
        fill: #585268;
      }

      .cls-10 {
        fill: #e1e7ef;
      }

      .cls-11 {
        fill: url(#linear-gradient-2);
      }

      .cls-12 {
        fill: #a27772;
      }

      .cls-13 {
        fill: #cc818c;
      }

      .cls-15 {
        fill: #f6f8fb;
      }

      .cls-16 {
        fill: url(#linear-gradient-3);
      }

      .cls-17 {
        fill: #65617d;
      }

      .cls-18 {
        fill: #fbbebe;
      }

      .cls-19 {
        opacity: 0.05;
      }

      .cls-20 {
        fill: #7c5c5c;
      }

      .cls-21 {
        fill: #a8a8a8;
      }

      .cls-22 {
        opacity: 0.2;
      }
    </style>
    <linearGradient id="linear-gradient" x1="0.5" y1="1" x2="0.5" gradientUnits="objectBoundingBox">
      <stop offset="0" stop-color="gray" stop-opacity="0.251"/>
      <stop offset="0.54" stop-color="gray" stop-opacity="0.122"/>
      <stop offset="1" stop-color="gray" stop-opacity="0.102"/>
    </linearGradient>
    <linearGradient id="linear-gradient-2" x1="0.5" x2="0.5" y2="0" xlink:href="#linear-gradient"/>
    <linearGradient id="linear-gradient-3" x1="0.5" x2="0.5" y2="0" xlink:href="#linear-gradient"/>
  </defs>
  <g id="undraw_team_spirit_hrr4_1_" data-name="undraw_team_spirit_hrr4 (1)" transform="translate(-249.178 -89.04)">
    <ellipse id="Ellipse_76" data-name="Ellipse 76" class="cls-1" cx="72.78" cy="16.34" rx="72.78" ry="16.34" transform="translate(496.445 682.924)"/>
    <ellipse id="Ellipse_77" data-name="Ellipse 77" class="cls-1" cx="131.3" cy="10.777" rx="131.3" ry="10.777" transform="translate(607.042 740.38)"/>
    <ellipse id="Ellipse_79" data-name="Ellipse 79" class="cls-1" cx="98.795" cy="16.34" rx="98.795" ry="16.34" transform="translate(312.555 636.681)"/>
    <path id="Path_533" data-name="Path 533" class="cls-2" d="M602.2,314.571c-2.09-14.067-14.869-46.892-14.869-46.892h0q-.334-1.451-.755-2.9c-9.065-31.151-21.613-33.86-21.613-33.86l-44.947-9.674a3.484,3.484,0,0,1,.967.9,6.247,6.247,0,0,0-.706.106,17.607,17.607,0,0,1-3.937-8.513c-.087-.464-.164-.967-.222-1.441a31.616,31.616,0,0,0-2.573-47.53c-.474-.368-.967-.726-1.441-1.064,2.119-2.254,2.186-5.389.6-8.523-3.541-7.353-11.242-12.006-19.155-14.279-6.046-1.732-12.577-2.293-18.594-.4a67.17,67.17,0,0,0-9.732,4.518c-5.969,2.98-12.577,5.34-17.037,10.245-1.045,1.142-2.012,2.6-1.7,4.112.232,1.122,1.122,1.993,1.693,2.989,1.287,2.235.967,5.05.087,7.488s-2.167,4.7-2.776,7.2-.377,5.437,1.5,7.227a31.837,31.837,0,0,0,2.806,1.935,14.714,14.714,0,0,1,2.68,3.009q2.67,3.579,5.321,7.188a74.039,74.039,0,0,1,6.666,10.129c1.325,2.612,2.351,5.4,4.121,7.74a11.475,11.475,0,0,0,1.77,1.858l-.522-.2a8.059,8.059,0,0,0,5.911,2.409h.271a1.625,1.625,0,0,0,1.084-.445c0,.329,0,.658,0,.967.106,3.454.087,7.13-.155,10.584l-.416-.213a3.628,3.628,0,0,0-3.87.406l-41.377,33.2s-9,12.306-7.74,33.551l-7.256,31.858s-9.065,27.03-2.09,46.331S425.21,404.92,425.21,404.92s2.786,21.932,6.975,23.721,6,2.757,6,2.757l.832,5.243h0s.281.513.774,1.374c3.047,5.3,14.337,24.012,20.9,22.009A83.882,83.882,0,0,1,461.75,475.4l6.491,43.583s4.528,11.851,4.247,18.062,5.282,15.063,5.282,15.063a28.782,28.782,0,0,0-2.786,20.268c2.651,11.609,6,65.089,6,65.089l4.837,12.964-.135,15.2a14.512,14.512,0,0,1-3,6.772c-3.135,3.405-2.9,7.343-10.458,12s-12.345,6.414-12.345,12.577a16.165,16.165,0,0,1-.232,2.564c-.7,4.528-2.051,6.985,11.841,8.3,16.321,1.548,27.2-9.094,27.2-9.094s2.4-4.353,13.7-6.114c0,0,3.87-.2,4.073-3.618.077-1.18.058-3.434,0-5.921-.184-4.731-.638-10.255-1.238-10.526-.755-.339-2.07-5.1-2.525-6.82h3.144s2.9-21.932,0-36.134-.281-24.273-.281-24.273l-.561-37.507s-3.87-4.141-.832-11.455,0-43.438,0-43.438,1.122-12.964,4.324-16,.155-18.991,0-19.823l5.708,19.146s2.506,38.059,7.817,44.947l1.529,17.24s10.874,15.866,8.784,24.408,2.235,39.442,2.235,39.442V653.88s-4.886,12.683,1.935,17.24l2.9-.116c-.967.9-1.712,2.254-2.844,3.425-1.306,1.345-2.051,6.463-2.467,10.864-.348,3.725-.464,6.927-.464,6.927A11.406,11.406,0,0,0,552,697.182c5.466.319,23.48,14.018,23.48,14.018s17.791,0,22.4-.967l.271-.068a6.047,6.047,0,0,0,3.473-2.835,7.256,7.256,0,0,0,.832-5.214c-.571-2.718-2.728-5.7-7.507-8.233-11.89-6.269-13.66-12.141-13.66-12.141l-7.807-11.716h1.113s-.687-12.412,7.807-26.343l-.551-61.364s3.483-21.1-2.506-32.554c0,0-.493-12.132,3.512-15.856s-5.331-41.368-5.331-41.368-1.935-20.21-4.208-38.649h0c9.413,8.929,19.175-23.218,20.819-28.936h.242l-.106-.416c.068-.271.106-.406.106-.406h0s-2.09-7.43-.561-5.921,5.3-4.141,5.3-4.141-.561-30.755,6-46.253S602.2,314.571,602.2,314.571Zm-28.056,19.571.048-.087c.968,18.778-.184,58.849-.184,58.849s-1.3,5.137-2.68,11.184l-.967-38.069h0l-.967-35.863ZM454.079,321.2s4.74,59.294,0,67.846c-1.345,2.438-2.477,6.772-3.415,11.716-1.567-4.112-4.886-13.767-3.7-18.884,1.538-6.617-3.067-24-3.067-24.408s-.416-9.674,2.9-16.756,1.142-10.148,1.142-10.148S450.731,318.953,454.079,321.2Z" transform="translate(-117.028 -50.275)"/>
    <path id="Path_534" data-name="Path 534" class="cls-3" d="M466.607,464.368c-4.131,18.159-20.558-9.3-24.3-15.885-.484-.861-.755-1.364-.755-1.364l1.78-8.349,9.413-3.87a26.29,26.29,0,0,1,4.218,2.748C462.118,441.7,469.789,450.3,466.607,464.368Z" transform="translate(-118.005 -59.901)"/>
    <path id="Path_535" data-name="Path 535" class="cls-3" d="M598.269,434.493a1.268,1.268,0,0,1-.106.406,2.06,2.06,0,0,1-.126.435c-1.616,5.669-11.193,37.585-20.442,28.723-10.12-9.674-5.2-32.041-5.2-32.041h.068l21.284-2.177,4.218,4.334h0Z" transform="translate(-122.227 -59.736)"/>
    <path id="Path_536" data-name="Path 536" class="cls-4" d="M582.068,591.639l.542,60.948c-8.349,13.834-7.662,26.121-7.662,26.121l-27.514,1.083c-6.714-4.518-1.935-17.1-1.935-17.1V631.3s-4.247-30.658-2.2-39.152-8.62-24.186-8.62-24.186l-1.509-17.114c-5.2-6.84-7.672-44.618-7.672-44.618l-5.582-19.078c.155.822,3.057,16.746,0,19.678s-4.247,15.876-4.247,15.876,3.009,35.872,0,43.119.813,11.367.813,11.367l.552,37.237s-2.6,9.994.271,24.089,0,35.872,0,35.872H487.791l.135-15.2-4.779-12.867s-3.289-53.112-5.892-64.615a28.869,28.869,0,0,1,2.728-20.123s-5.466-8.755-5.2-14.918-4.218-17.917-4.218-17.917L464.205,485.5a84.032,84.032,0,0,0-3.154-24.641c-3.7-12.325-9.171-28.481-9.171-28.481l6.182.551,31.19,2.777s75.837-5.1,79.233-.861a14.228,14.228,0,0,1,1.432,4.421c3.405,15.3,7.9,63.212,7.9,63.212s9.171,37.372,5.234,41.068-3.454,15.731-3.454,15.731C585.5,570.646,582.068,591.639,582.068,591.639Z" transform="translate(-118.341 -59.819)"/>
    <path id="Path_537" data-name="Path 537" class="cls-5" d="M518.29,705.454c-.213,3.4-4,3.6-4,3.6-11.087,1.741-13.447,6.056-13.447,6.056s-10.642,10.574-26.692,9.036c-13.641-1.316-12.315-3.744-11.609-8.243a17.058,17.058,0,0,0,.222-2.535c0-6.163,4.721-7.914,12.112-12.577s7.188-8.523,10.265-11.909,3.4-9.955,3.4-9.955c3.483-6.066,12.315.967,12.315.967.416,2.148,13.544,1.848,13.544,1.848s1.741,6.985,2.641,7.391c.59.271,1.035,5.747,1.209,10.448C518.348,702.049,518.367,704.284,518.29,705.454Z" transform="translate(-118.676 -67.767)"/>
    <path id="Path_538" data-name="Path 538" class="cls-6" d="M518.29,706.233c-.213,3.4-4,3.6-4,3.6-11.087,1.741-13.447,6.056-13.447,6.056s-10.642,10.574-26.692,9.036c-13.641-1.316-12.315-3.744-11.609-8.243,6.095,1.509,17.743,3.618,24.544-.077,9.452-5.127,16.234-8.707,16.234-8.707l14.937-7.517C518.348,702.828,518.367,705.062,518.29,706.233Z" transform="translate(-118.676 -68.546)"/>
    <path id="Path_539" data-name="Path 539" class="cls-5" d="M604.636,723.861a5.9,5.9,0,0,1-3.405,2.815l-.261.068c-4.518.967-21.98.967-21.98.967s-17.656-13.651-23-13.96-8.214-4.934-8.214-4.934.107-3.173.445-6.869c.416-4.373,1.142-9.452,2.428-10.787,2.361-2.467,2.9-5.8,8.214-3.7,0,0,7.585-13.37,16.524-3.038l9.249,14.028s1.741,5.8,13.457,12.1c4.682,2.515,6.772,5.476,7.362,8.175A7.207,7.207,0,0,1,604.636,723.861Z" transform="translate(-121.464 -67.899)"/>
    <path id="Path_540" data-name="Path 540" class="cls-6" d="M604.636,724.582c-1.045.88-2.2,1.829-3.405,2.815l-.261.068c-4.518.968-21.98.968-21.98.968s-17.656-13.651-23-13.96-8.214-4.934-8.214-4.934.107-3.173.445-6.869c5.437,1.625,13.67,4.5,15.876,7.594,3.386,4.711,13.67,11.29,13.67,11.29s19.175-1.848,27.688-2.1A7.207,7.207,0,0,1,604.636,724.582Z" transform="translate(-121.464 -68.62)"/>
    <path id="Path_541" data-name="Path 541" class="cls-3" d="M527.7,230.449l-25.25,26.692s-30.6-2.254-25.26-11.29c2.719-4.6,3.144-14.241,2.9-22.619-.223-8.078-1.054-14.957-1.054-14.957s42.915-21.361,39.665-1.441a32.784,32.784,0,0,0-.116,11.367C520.414,228.263,527.7,230.449,527.7,230.449Z" transform="translate(-119.145 -52.197)"/>
    <path id="Path_542" data-name="Path 542" class="cls-6" d="M518.746,206.834a32.79,32.79,0,0,0-.116,11.367,31.5,31.5,0,0,1-22.464,9.374c-5.8,0-12.083-4.769-16.775-7.527-.222-8.088-.271-11.774-.271-11.774S522.035,186.915,518.746,206.834Z" transform="translate(-119.228 -52.197)"/>
    <path id="Path_543" data-name="Path 543" class="cls-3" d="M527.291,193.106a31.626,31.626,0,1,1-11.9-24.708A31.625,31.625,0,0,1,527.291,193.106Z" transform="translate(-118.737 -50.997)"/>
    <path id="Path_544" data-name="Path 544" class="cls-6" d="M570.078,439.286c-7.875,18.739-58.53,19.126-58.53,19.126V437.98l-3.067-.2c1.325,5.853-1.857,20.123-1.857,20.123-40.033,5.65-49.794-17.162-49.794-17.162l1.393-7.807,31.19,2.777s75.837-5.1,79.233-.861A14.233,14.233,0,0,1,570.078,439.286Z" transform="translate(-118.502 -59.836)"/>
    <path id="Path_545" data-name="Path 545" class="cls-7" d="M511.548,449.258V428.826l-3.067-.193c1.325,5.8-1.857,20.123-1.857,20.123-30.126,4.247-43.109-7.614-47.685-13.747a18.718,18.718,0,0,1-2.109-3.405l12.228-68.785,2.9-101.233,4.383-17.762,1.016-8.523v-.1h.106l3.115,1.335,18.643,8.059L520.4,228.605l.31-.223,1.055-.8,1.751,1.4,4.353,3.492,13.96,90.155s24.186,69.414,28.713,97.43c.184,1.122.329,2.167.445,3.144C573.977,448.784,511.548,449.258,511.548,449.258Z" transform="translate(-118.502 -53.149)"/>
    <circle id="Ellipse_81" data-name="Ellipse 81" class="cls-8" cx="1.799" cy="1.799" r="1.799" transform="translate(381.185 191.641)"/>
    <circle id="Ellipse_82" data-name="Ellipse 82" class="cls-8" cx="1.799" cy="1.799" r="1.799" transform="translate(382.017 208.068)"/>
    <circle id="Ellipse_83" data-name="Ellipse 83" class="cls-8" cx="1.799" cy="1.799" r="1.799" transform="translate(383.816 234.663)"/>
    <circle id="Ellipse_84" data-name="Ellipse 84" class="cls-8" cx="1.799" cy="1.799" r="1.799" transform="translate(386.786 263.309)"/>
    <circle id="Ellipse_85" data-name="Ellipse 85" class="cls-8" cx="1.799" cy="1.799" r="1.799" transform="translate(388.586 290.204)"/>
    <circle id="Ellipse_86" data-name="Ellipse 86" class="cls-8" cx="1.799" cy="1.799" r="1.799" transform="translate(390.385 318.849)"/>
    <circle id="Ellipse_87" data-name="Ellipse 87" class="cls-8" cx="1.799" cy="1.799" r="1.799" transform="translate(389.669 347.186)"/>
    <path id="Path_546" data-name="Path 546" class="cls-6" d="M478.558,373.068s-2.012,26.343-5.708,34.005-5.34,29.159-5.34,29.159l-8.581-.967a18.723,18.723,0,0,1-2.109-3.405l12.228-68.785,2.9-101.232,4.392-17.772,1.016-8.523.116-.048a3.464,3.464,0,0,1,3.057.048l.406.213q-.184.522-.348,1.074c-3.347,10.477-4.6,29.787-4.6,29.787s4.837,35.321,5.34,51.748S478.558,373.068,478.558,373.068Z" transform="translate(-118.502 -53.396)"/>
    <path id="Path_547" data-name="Path 547" class="cls-6" d="M456.961,437.677a4.944,4.944,0,0,1-.329.639c-3.328,5.621-11.764,9.191-14.328,10.168-.484-.861-.755-1.364-.755-1.364l1.78-8.349,9.413-3.87A26.294,26.294,0,0,1,456.961,437.677Z" transform="translate(-118.005 -59.901)"/>
    <path id="Path_548" data-name="Path 548" class="cls-8" d="M433.251,298.81l-7.807,4.653-7.111,31.625s-8.9,26.827-2.061,45.992,10.816,30.136,10.816,30.136,2.738,21.767,6.849,23.547,5.882,2.738,5.882,2.738l.822,5.2s11.145-3.783,15.082-10.448-2.9-23.218-2.9-23.218-5.882-14.105-4.373-20.674-3.018-23.818-3.018-24.186-.406-9.587,2.9-16.64,1.1-10.061,1.1-10.061l-2.061-20.123Z" transform="translate(-117.098 -55.469)"/>
    <path id="Path_549" data-name="Path 549" class="cls-6" d="M572.849,426.7s-20.674,7.8-27.243.967-5.892-38.881-5.892-38.881-6.288-59.139-10.265-68.852-1.935-79.813-1.935-79.813-2.67-9.065-5-11.435a2.537,2.537,0,0,0-.493-.4l.8.174,2.806.6,4.354,3.492,13.96,90.155s24.186,69.413,28.713,97.43Z" transform="translate(-120.625 -53.173)"/>
    <path id="Path_550" data-name="Path 550" class="cls-6" d="M598.308,435.315h-.232c-2.6.339-25.569,3.115-25.666-1.664A14,14,0,0,1,572.5,432l21.284-2.177L598,434.154h0c.077.281.135.522.194.716Z" transform="translate(-122.266 -59.735)"/>
    <path id="Path_551" data-name="Path 551" class="cls-8" d="M576.27,266.07l15.092,7.875s12.577,32.564,14.589,46.524c0,0,9.316,37.4,2.9,52.783s-5.882,45.915-5.882,45.915-3.7,5.611-5.2,4.112.551,5.882.551,5.882-25.8,3.425-25.908-1.645,5.921-29.294,5.921-29.294,1.645-57.63-.687-66.666S576.27,266.07,576.27,266.07Z" transform="translate(-122.266 -54.403)"/>
    <path id="Path_552" data-name="Path 552" class="cls-6" d="M529.435,329.52s-8.494,20.8-11.232,22.174.551,6.84.551,6.84S534.224,336.911,529.435,329.52Z" transform="translate(-120.466 -56.469)"/>
    <path id="Path_553" data-name="Path 553" class="cls-6" d="M524.164,254.1c.1-.4-10.129,10.032-12.867,11.609S521.291,265.612,524.164,254.1Z" transform="translate(-120.264 -54.013)"/>
    <path id="Path_554" data-name="Path 554" class="cls-6" d="M494.718,327.82s-15.6,10.09-13.544,14.086S494.718,327.82,494.718,327.82Z" transform="translate(-119.289 -56.414)"/>
    <path id="Path_555" data-name="Path 555" class="cls-6" d="M524.47,480.07s13.283,8.542,33.947,10.642Z" transform="translate(-120.705 -61.372)"/>
    <path id="Path_556" data-name="Path 556" class="cls-6" d="M491.5,501.3s12.316,15.479,17.936,15.876S491.5,501.3,491.5,501.3Z" transform="translate(-119.631 -62.063)"/>
    <path id="Path_557" data-name="Path 557" class="cls-6" d="M508.83,564c-.551.271-6.985,13.96-13.544,14.376S508.83,564,508.83,564Z" transform="translate(-119.712 -64.105)"/>
    <path id="Path_558" data-name="Path 558" class="cls-6" d="M568.33,594.986s12.209-2.738,14.927,6.017C583.258,600.975,582.435,598.237,568.33,594.986Z" transform="translate(-122.133 -65.1)"/>
    <path id="Path_559" data-name="Path 559" class="cls-6" d="M559.84,646.724s14.792-3.018,17.936,1.093S559.84,646.724,559.84,646.724Z" transform="translate(-121.857 -66.764)"/>
    <path id="Path_560" data-name="Path 560" class="cls-6" d="M516.1,654c0,.135-15.053,3.018-14.512,4.934s16.059,1.645,16.611-1.374a2.9,2.9,0,0,0-2.1-3.56Z" transform="translate(-119.96 -67.035)"/>
    <path id="Path_561" data-name="Path 561" class="cls-6" d="M554.75,667.391s24.737-3.018,23.219,2.186S554.75,667.391,554.75,667.391Z" transform="translate(-121.691 -67.443)"/>
    <path id="Path_562" data-name="Path 562" class="cls-6" d="M420.89,352.44c.135.406,16.292,2.6,18.478,7.807,0,0-15.876-7.4-18.381-7.4" transform="translate(-117.332 -57.215)"/>
    <path id="Path_563" data-name="Path 563" class="cls-6" d="M443.959,396.16S430.541,400.407,431.5,406.8,430.134,403.841,443.959,396.16Z" transform="translate(-117.676 -58.639)"/>
    <path id="Path_564" data-name="Path 564" class="cls-6" d="M437.92,429.651s4.885-6.7,9.539-5.476S437.92,429.651,437.92,429.651Z" transform="translate(-117.887 -59.546)"/>
    <path id="Path_565" data-name="Path 565" class="cls-6" d="M515.393,168.4a7.614,7.614,0,0,1-1.567,1.171c-3.87,2.254-4.934,5.727-6.772,9.732-1.712,3.667-3.6,7.546-7.053,9.626-4.46,2.689-10.332,1.7-14.966,4.044a11.609,11.609,0,0,0-6.192,11.445,33.022,33.022,0,0,0,1.316,5.243,37.391,37.391,0,0,1,1.412,11.387,1.93,1.93,0,0,1,0,.339,31.616,31.616,0,1,1,33.86-52.986Z" transform="translate(-118.739 -50.997)"/>
    <path id="Path_566" data-name="Path 566" class="cls-9" d="M514.039,158.26c-3.473-7.294-11.029-11.919-18.8-14.173-5.93-1.712-12.374-2.274-18.255-.387-3.357,1.064-6.4,2.9-9.549,4.479-5.863,2.96-12.306,5.3-16.717,10.168-1.035,1.132-1.935,2.583-1.674,4.083.223,1.113,1.093,1.935,1.654,2.96,1.267,2.225.967,5.021.087,7.44s-2.128,4.663-2.728,7.149-.368,5.4,1.47,7.169a26.8,26.8,0,0,0,2.767,1.935,14.56,14.56,0,0,1,2.622,2.98l5.224,7.14a72.407,72.407,0,0,1,6.54,10.052c1.3,2.593,2.3,5.36,4.044,7.672s4.45,4.17,7.333,3.918a1.422,1.422,0,0,0,1.161-.551,1.527,1.527,0,0,0,.145-.726,37.128,37.128,0,0,0-1.383-11.348,32.75,32.75,0,0,1-1.316-5.244,11.657,11.657,0,0,1,6.191-11.445c4.644-2.341,10.516-1.354,14.966-4.034,3.463-2.09,5.35-5.969,7.053-9.674,1.867-4.005,2.9-7.478,6.772-9.732S515.964,162.1,514.039,158.26Z" transform="translate(-118.207 -50.38)"/>
    <path id="Path_567" data-name="Path 567" class="cls-6" d="M501.63,693.06s4.837,6.163,3.58,9.674S501.63,693.06,501.63,693.06Z" transform="translate(-119.961 -68.307)"/>
    <path id="Path_568" data-name="Path 568" class="cls-6" d="M569.28,708.716s1.074-8.262,5.379-8.339,4.518-.445,7.807.822,6.375,3.231,5.389,3.522S582.2,700,577.4,702.563a34.55,34.55,0,0,0-8.117,6.153Z" transform="translate(-122.164 -68.542)"/>
    <path id="Path_569" data-name="Path 569" class="cls-6" d="M486.285,255.217l13.544-9.491s-19.813-11.706-22.174-10.061-3.986,16.446-3.986,16.446Z" transform="translate(-119.051 -53.408)"/>
    <path id="Path_570" data-name="Path 570" class="cls-10" d="M486.225,254.58l13.544-9.674S479.956,233.2,477.6,234.845,473.61,252.1,473.61,252.1Z" transform="translate(-119.049 -53.381)"/>
    <path id="Path_571" data-name="Path 571" class="cls-7" d="M486.225,254.58l13.544-9.674S479.956,233.2,477.6,234.845,473.61,252.1,473.61,252.1Z" transform="translate(-119.049 -53.381)"/>
    <path id="Path_572" data-name="Path 572" class="cls-8" d="M478.281,234.91l-.406-.2a3.512,3.512,0,0,0-3.8.4L433.44,268.064s-8.833,12.219-7.6,33.3L449.8,335.311s2.738-11.493,6.017-9.307c0,0,4.653,58.869,0,67.353s-6.7,40.245-6.7,40.245l15.74,1.78s1.645-21.5,5.34-29.159,5.708-34.005,5.708-34.005,3.328-38.272,2.777-54.7-5.34-51.748-5.34-51.748S474.682,245.068,478.281,234.91Z" transform="translate(-117.489 -53.369)"/>
    <path id="Path_573" data-name="Path 573" class="cls-6" d="M521.322,248.984l-16.882-6.25s21.5-23.547,24.186-10.487Z" transform="translate(-120.053 -53.173)"/>
    <path id="Path_574" data-name="Path 574" class="cls-10" d="M521.322,248.134l-16.882-6.25s21.5-23.547,24.186-10.487Z" transform="translate(-120.053 -53.145)"/>
    <path id="Path_575" data-name="Path 575" class="cls-7" d="M521.322,248.134l-16.882-6.25s21.5-23.547,24.186-10.487Z" transform="translate(-120.053 -53.145)"/>
    <path id="Path_576" data-name="Path 576" class="cls-6" d="M521.32,228.12a.967.967,0,0,1,.7.155Z" transform="translate(-120.603 -53.167)"/>
    <path id="Path_577" data-name="Path 577" class="cls-8" d="M523,226.429l44.792,9.674s12.325,2.738,21.226,33.676-12.19,68.843-12.19,68.843l-4.653-3.957,2.332,90.349s-20.674,7.8-27.243.967-5.882-38.91-5.882-38.91-6.3-59.13-10.274-68.852-1.935-79.8-1.935-79.8S525.515,225.888,523,226.429Z" transform="translate(-120.657 -53.111)"/>
    <path id="Path_578" data-name="Path 578" class="cls-6" d="M565.34,285.926c-.629.58-1.364,27.92,1.374,48.73a265.556,265.556,0,0,0,7.74,37.507L570.39,288.8S567.256,284.146,565.34,285.926Z" transform="translate(-122.017 -55.036)"/>
    <path id="Path_579" data-name="Path 579" class="cls-6" d="M559.7,261.6c1.093.687,5.892,12.045,3.7,16.7S559.7,261.6,559.7,261.6Z" transform="translate(-121.852 -54.257)"/>
    <path id="Path_580" data-name="Path 580" class="cls-6" d="M514.593,158.443a24.727,24.727,0,0,0-9.848-10.313,23.422,23.422,0,0,1,7.382,8.707c1.935,3.87,1.364,7.739-2.4,9.858s-4.934,5.727-6.772,9.732c-1.712,3.667-3.6,7.546-7.062,9.674-4.45,2.689-10.323,1.693-14.966,4.034a11.687,11.687,0,0,0-6.192,11.454,32.9,32.9,0,0,0,1.325,5.234,37.421,37.421,0,0,1,1.412,11.387,1.527,1.527,0,0,1-.155.726,1.384,1.384,0,0,1-1.151.551,6.665,6.665,0,0,1-3.376-.629,7.856,7.856,0,0,0,5.8,2.273,1.142,1.142,0,0,0,1.3-1.277,37.123,37.123,0,0,0-1.4-11.387,31.779,31.779,0,0,1-1.325-5.243,11.658,11.658,0,0,1,6.192-11.445c4.644-2.341,10.516-1.354,14.966-4.034,3.463-2.09,5.35-5.969,7.053-9.674,1.867-4.005,2.9-7.478,6.772-9.732S516.528,162.284,514.593,158.443Z" transform="translate(-119.022 -50.562)"/>
    <path id="Path_581" data-name="Path 581" class="cls-11" d="M794.522,280.682c-13.331-.261-25.1-9.674-31.761-21.177a21.283,21.283,0,0,1-3.212-9.065,10.46,10.46,0,0,1,.368-2.167,22.5,22.5,0,0,0,.967-3.318,5.794,5.794,0,0,0,0-1.354s0,0,0-.077c.319-2.448-1.122-4.837-2.9-6.511s-4.015-2.9-5.872-4.566c-5.727-5.031-7.468-13.1-7.575-20.78v-.406c.068-3.289.329-6.588.3-9.878a41.544,41.544,0,0,0-.242-5.592c-.551-4.653-2.322-9.394-5.979-12.364-9.539-7.74-25.579.319-35.457-6.995-2.4-1.79-4.344-4.431-7.256-5.127-2.2-.532-4.479.184-6.627.9-7.275,2.4-15.392,5.553-18.236,12.577-1.625,4.034-1.171,8.639-2.66,12.722-.967,2.738-2.815,5.089-4.16,7.681a12.024,12.024,0,0,0-1.548,6.414,7.238,7.238,0,0,0,.474,3.415,8.706,8.706,0,0,0,2.37,3.4,11.277,11.277,0,0,1-1.413,2.264c-1.857,2.274-4.711,3.87-6.646,6.134-3.58,4.15-3.444,9.79-1.683,14.666s4.944,9.316,7.14,14.066c.967,2.061,1.7,4.363.726,6.414-.687,1.422-2.109,2.506-3.212,3.734a11.735,11.735,0,0,0-2.9,6.482c-21.777,4.973-21.8,22.474-21.8,22.474h0l-11.764,29.584s-1.887,4.982-4.1,11.561l-13.921-2.5,9.674,16.195c-1.829,6.6-3.125,12.712-2.7,15.789,0,0-4.324,20.316,3.367,23.867l16.969,7.633a10.055,10.055,0,0,0,2.351,1.054l.687.31a1.819,1.819,0,0,0,1.587,0h.232a2.284,2.284,0,0,0,.967-.145,1.935,1.935,0,0,0,.851-.919.285.285,0,0,1,0-.1l5.079-1.47,4.305,5.1c1.935,1.364,3.87,2.544,5.7,3.609l-6.666,66.192s-1.074,88.037-4.324,108.1c-1.2,7.43-1.209,12.5-.755,15.943l-.126.213c.8,5.659,2.9,6.772,2.9,6.772v-.077a.633.633,0,0,0,.126.077,56.992,56.992,0,0,1,3.483-7.469v1.451c-.068,7.469-.3,17.927-1.074,24.728-1.316,11.609,3.367,49.871,3.367,49.871l1.616,34.828a32.2,32.2,0,0,1-3.966,16.969c-3.87,6.956-8.813,16.746-9.171,21.09a4.33,4.33,0,0,0,0,.706h0l-8.3,9.984s-3.241,5.011,4.083,7.033c3.938,1.093,10.729,0,16.185-1.287a10.816,10.816,0,0,0,8.388-10.526,37.245,37.245,0,0,1,6.849-13.147l1.364,8.02,9.133,2.264,1.171-21.98a9.678,9.678,0,0,0,.629-3.87h0c1.8-15.634-4.237-14.231-4.237-14.231a.84.84,0,0,1,.29.542l-.29-.532h0c-3.705-7.314-1.935-19.349-1.935-19.349s4.837-34.828,6.492-44.028c1.19-6.5.7-27.785.3-39.665a14.171,14.171,0,0,0-.048-1.442c14.163-.184,31.519-.658,43.7-1.838v1.432l-2.244,82.28a45.167,45.167,0,0,1-3.154,15.3.837.837,0,0,1-.106.28,66.752,66.752,0,0,0-4.46,21.564l-1.045,26.121v.726h0c-1.819.7-4.692,2.719-4.769,8.581-.126,8.591,15.015,5.727,15.015,5.727,15.131,0,15.257-15.75,15.257-15.75s.474-14.444,1.2-24.109-2.283-7.536-2.283-7.536l-.232,27.495V717.789l.232-3.492v-.1h0v-.745L739.5,685.1s13.941-47.25,16.1-56.314c1.538-6.443.9-25.85.4-36.579a8.528,8.528,0,0,0-.077-1.422c4.324-.387,8.146-.426,9.674-.426h.706s-.716-75.886-2.525-104.483-4.683-54.767-11.89-62.641c-4.353-4.76-10.419-19.455-14.511-30.339a151.766,151.766,0,0,0,26.672,8.707c22.822,4.779,19.7-15.034,19.7-15.034L781.433,349.1h.155a191.045,191.045,0,0,0-2.515-29.294c-1.209-7.43-3.057-15.111-5.882-21.284,2.477-.967,4.924-2,7.323-3.067,6.2-2.738,13.186-6.617,14.076-13.3h-.3A8.629,8.629,0,0,0,794.522,280.682ZM653.054,334.858h0c.048,3.87-.1,10.584-.329,18l-7.246-9.674,7.265-11.783ZM750.146,354.507Zm3.018,14.637-12.074-3.87a54.168,54.168,0,0,1,7.459-9.229l1.045-.968-.377.077.58-.532.348-.077-.551.532.658-.135a20.6,20.6,0,0,0,4.112,8.272c4.334,4.731-1.19,5.93-1.19,5.93Z" transform="translate(-123.358 -51.311)"/>
    <path id="Path_582" data-name="Path 582" class="cls-12" d="M650.735,715.66l-1.412,26.779-9.007-2.254-1.9-11.135Z" transform="translate(-94.27 -49.559)"/>
    <path id="Path_583" data-name="Path 583" class="cls-6" d="M650.735,715.66l-1.412,26.779-9.007-2.254-1.9-11.135Z" transform="translate(-94.27 -49.559)"/>
    <path id="Path_584" data-name="Path 584" class="cls-13" d="M716.48,761.4l13.738,2.844,10.187-9V729.89l.232-3.464v-.106h0v-.735l1.9-28.181s13.747-46.911,15.885-55.918c1.509-6.385.88-25.656.377-36.308-.2-4.363-.377-7.285-.377-7.285l-30.329-7.343-.638,23.315-2.215,81.69a45.274,45.274,0,0,1-3.105,15.2l-.106.281a66.482,66.482,0,0,0-4.4,21.4L716.6,758.41v.716Z" transform="translate(-126.958 -64.969)"/>
    <path id="Path_585" data-name="Path 585" class="cls-6" d="M741.45,730.149v.716h0v-.735Z" transform="translate(-127.771 -69.514)"/>
    <path id="Path_586" data-name="Path 586" class="cls-6" d="M716.48,766.87l13.738,2.844,10.187-9V758.56a2.9,2.9,0,0,1-1.461,2.322l-.145.087a27.378,27.378,0,0,1-15.421,3.047l-5.36-.455a5.016,5.016,0,0,0-1.422.348v.716Z" transform="translate(-126.958 -70.44)"/>
    <path id="Path_587" data-name="Path 587" class="cls-5" d="M738.643,760.767l.145-.077a2.9,2.9,0,0,0,1.48-2.515l.222-27.291s2.96-2.119,2.245,7.478-1.18,23.934-1.18,23.934-.116,15.634-15.044,15.634c0,0-14.927,2.844-14.811-5.689s6.163-8.881,6.163-8.881l5.36.464A27.311,27.311,0,0,0,738.643,760.767Z" transform="translate(-126.802 -69.533)"/>
    <path id="Path_588" data-name="Path 588" class="cls-13" d="M642.52,755.9c.348,6.163,18.478,2.6,18.478,2.6l12.2-23.683s10.187-7.827,5.089-14.7a10.962,10.962,0,0,1-.745-1.171l-.048-.058h0c-.106-.174-.2-.358-.3-.551h0c-3.657-7.256-1.857-19.155-1.857-19.155s4.731-34.6,6.395-43.718c1.171-6.443.687-27.582.3-39.4-.155-4.915-.3-8.213-.3-8.213l-30.1-8.059v8.978c-.068,7.42-.3,17.8-1.064,24.554-1.3,11.483,3.318,49.513,3.318,49.513l1.6,34.605a32.051,32.051,0,0,1-3.87,16.843c-3.773,6.908-8.707,16.64-9.045,20.945A4.234,4.234,0,0,0,642.52,755.9Z" transform="translate(-124.549 -65.27)"/>
    <path id="Path_589" data-name="Path 589" class="cls-6" d="M642.52,759.906c.348,6.163,18.478,2.6,18.478,2.6l12.2-23.683s10.187-7.827,5.089-14.7a10.982,10.982,0,0,1-.745-1.171c-.164,3.589-4.1,12.577-4.1,12.577s-10.071,20.152-13.273,24.766-17.114-.861-17.636-1.055a4.229,4.229,0,0,0-.01.658Z" transform="translate(-124.549 -69.281)"/>
    <path id="Path_590" data-name="Path 590" class="cls-5" d="M676.89,722.3s5.959-1.383,4.179,14.134h0a9.993,9.993,0,0,1-4.711,8.871c-4.266,2.68-10.845,8.446-14.173,19.658h0a10.719,10.719,0,0,1-8.271,10.448c-5.379,1.258-12.083,2.36-15.963,1.277-7.227-2.012-4.025-6.985-4.025-6.985l8.291-9.839s14.454,5.689,17.646,1.064,13.273-24.757,13.273-24.757S678.66,723.605,676.89,722.3Z" transform="translate(-124.246 -69.258)"/>
    <path id="Path_591" data-name="Path 591" class="cls-6" d="M728.459,593.52l-.639,23.315c8.078-.784,13.863-1.877,14.85-3.415,2.138-3.309,9.9-4.7,16.495-5.273-.2-4.363-.377-7.285-.377-7.285Z" transform="translate(-127.327 -65.066)"/>
    <path id="Path_592" data-name="Path 592" class="cls-6" d="M651.94,611.7a11.067,11.067,0,0,1,3.318-4.005c3.193-1.77,2.844,11.377,2.844,11.377s10.642.1,24.234-.077c-.155-4.915-.3-8.223-.3-8.223l-30.1-8.049S652,606.454,651.94,611.7Z" transform="translate(-124.856 -65.365)"/>
    <path id="Path_593" data-name="Path 593" class="cls-4" d="M648.284,607.826s3.56-9.674,6.772-11.4S657.9,607.8,657.9,607.8s78.188.716,82.1-5.331,26.653-5.689,26.653-5.689-.706-75.344-2.486-103.767-4.615-54.38-11.725-62.2c-4.6-5.06-11.135-21.429-15.179-32.341-2.2-5.959-3.657-10.3-3.657-10.3l-74.628,4.257-.61,6.046-7.923,79.252s-1.064,87.427-4.266,107.327S648.284,607.826,648.284,607.826Z" transform="translate(-124.635 -58.379)"/>
    <g id="Group_119" data-name="Group 119" class="cls-14" transform="translate(520.602 329.791)">
      <path id="Path_594" data-name="Path 594" d="M734.5,602.467c3.87-6.037,26.653-5.689,26.653-5.689s-.706-75.344-2.486-103.767-4.615-54.38-11.725-62.2c-4.615-5.079-11.135-21.429-15.179-32.341-1.848-5.011-3.173-8.871-3.541-9.974l5.8-.329s1.461,4.344,3.667,10.3c4.044,10.913,10.574,27.282,15.169,32.341,7.111,7.817,9.955,33.763,11.725,62.2s2.5,103.767,2.5,103.767-22.744-.348-26.662,5.689c-3.338,5.156-60.871,5.4-77.569,5.35C684.279,607.768,731.48,607.13,734.5,602.467Z" transform="translate(-645.813 -388.17)"/>
      <path id="Path_595" data-name="Path 595" d="M648.984,603.434c1.441-.8,2.157,1.422,2.515,4.121a55.8,55.8,0,0,0-3.357,7.275s-2.061-1.113-2.9-6.772C646.42,606.037,647.726,604.131,648.984,603.434Z" transform="translate(-645.24 -395.175)"/>
    </g>
    <path id="Path_596" data-name="Path 596" class="cls-9" d="M671.729,199.38c-5.166,7.043.058,17.056-5.485,23.905-1.828,2.264-4.644,3.87-6.55,6.095-3.531,4.121-3.4,9.723-1.664,14.56s4.837,9.249,7.043,13.97c.968,2.041,1.683,4.334.716,6.366-.677,1.412-2.08,2.486-3.173,3.705-3.56,3.976-3.657,9.5-1.741,14.183s5.572,8.707,9.181,12.673c1.422,1.558,3.222,3.28,5.592,3.231a7.74,7.74,0,0,0,3.512-1.151A35.8,35.8,0,0,0,695.451,250.2c-3-7.188-8-14.076-8.049-21.671,0-6.027,3.1-11.783,3.647-17.781.667-7.294-3.647-18.875-12.451-22.058C679.178,193.372,674.351,195.762,671.729,199.38Z" transform="translate(-125.016 -51.883)"/>
    <path id="Path_597" data-name="Path 597" class="cls-6" d="M671.729,199.38c-5.166,7.043.058,17.056-5.485,23.905-1.828,2.264-4.644,3.87-6.55,6.095-3.531,4.121-3.4,9.723-1.664,14.56s4.837,9.249,7.043,13.97c.968,2.041,1.683,4.334.716,6.366-.677,1.412-2.08,2.486-3.173,3.705-3.56,3.976-3.657,9.5-1.741,14.183s5.572,8.707,9.181,12.673c1.422,1.558,3.222,3.28,5.592,3.231a7.74,7.74,0,0,0,3.512-1.151A35.8,35.8,0,0,0,695.451,250.2c-3-7.188-8-14.076-8.049-21.671,0-6.027,3.1-11.783,3.647-17.781.667-7.294-3.647-18.875-12.451-22.058C679.178,193.372,674.351,195.762,671.729,199.38Z" transform="translate(-125.016 -51.883)"/>
    <path id="Path_598" data-name="Path 598" class="cls-6" d="M729.542,464.55c-10.342.542-20.074,4.992-29.129,10.023s-17.82,10.729-27.562,14.3" transform="translate(-125.537 -60.866)"/>
    <path id="Path_599" data-name="Path 599" class="cls-6" d="M723.176,489.74A42.635,42.635,0,0,0,696.33,502.8c-2.515,2.66-4.682,5.64-7.3,8.194a32.45,32.45,0,0,1-14.4,8.156" transform="translate(-125.595 -61.686)"/>
    <path id="Path_600" data-name="Path 600" class="cls-6" d="M725.03,508.91a46.939,46.939,0,0,0-21.593,13.022c-1.586,1.712-3.028,3.541-4.615,5.253-8.562,9.191-20.655,14.067-32.332,18.681" transform="translate(-125.33 -62.311)"/>
    <path id="Path_601" data-name="Path 601" class="cls-13" d="M724.708,243.043a212.271,212.271,0,0,0,2.128,24.689c.967,5.8,2.322,11.029,4.266,13.341,5.689,6.772-27.717,15.818-27.717,15.818L683.66,281.605s15.634-14.4,8.349-28.433S724.708,243.043,724.708,243.043Z" transform="translate(-125.889 -53.637)"/>
    <path id="Path_602" data-name="Path 602" class="cls-6" d="M658.79,398.473h78.894c-2.2-5.959-3.657-10.3-3.657-10.3L659.4,392.427Z" transform="translate(-125.079 -58.379)"/>
    <path id="Path_603" data-name="Path 603" class="cls-7" d="M653.022,393.276h84.351c-2.37-8.484,0-16.33,3.376-22.367a49.436,49.436,0,0,1,8.833-11.454l.58-.532,29.449-6.521,1.586-.348s.242-53.548-18.72-60.9-30.329-17.288-30.329-17.288L706.1,281.914,686.9,272.24c-6.163,6.627-22.512,4.025-22.512,4.025-26.769,3.076-26.769,23.218-26.769,23.218s15.634,36.482,16.824,36.482S653.022,393.276,653.022,393.276Z" transform="translate(-124.39 -54.604)"/>
    <path id="Path_604" data-name="Path 604" class="cls-6" d="M682.864,361.807S665.663,358,659.81,351.33" transform="translate(-125.112 -57.179)"/>
    <path id="Path_605" data-name="Path 605" class="cls-6" d="M772.619,341.51,752.67,357.86a33.983,33.983,0,0,0,.658,3.87l.58-.532,29.449-6.52Z" transform="translate(-128.136 -56.859)"/>
    <path id="Path_606" data-name="Path 606" class="cls-6" d="M717.46,390.688s4.363,2.457,11.048,5.688h11.464c-2.37-8.484,0-16.33,3.377-22.367l-20.21-6.54C730.017,373.865,717.46,390.688,717.46,390.688Z" transform="translate(-126.99 -57.705)"/>
    <path id="Path_607" data-name="Path 607" class="cls-7" d="M648.664,293.76l-11.841,6.395-11.609,29.381s-12.083,32.216-10.9,40.748c0,0-4.257,20.142,3.318,23.692l19.736,8.939a1.838,1.838,0,0,0,2.37-2.535c-2.815-5.331-5.911-13.67-.968-18.255l-5.688-11.841,20.558-33.647,6.869-11.609Z" transform="translate(-123.592 -55.305)"/>
    <path id="Path_608" data-name="Path 608" class="cls-6" d="M677.085,354.935c1.025,4.179,4.489,10.642,15.953,13.051l12.577,10.3,13.38,6.066,5.456,2.467,2.312-16.708-5.253-2.9-6.124-3.347S701.57,338.837,679.7,349.353A4.837,4.837,0,0,0,677.085,354.935Z" transform="translate(-125.67 -57.031)"/>
    <path id="Path_609" data-name="Path 609" class="cls-13" d="M677.826,353.467c1.025,4.189,4.479,10.642,15.943,13.051l12.577,10.3,13.389,6.066,5.447,2.467,2.312-16.708-5.253-2.9-6.075-3.318s-13.825-25.028-35.7-14.463a4.837,4.837,0,0,0-2.641,5.5Z" transform="translate(-125.695 -56.985)"/>
    <circle id="Ellipse_88" data-name="Ellipse 88" class="cls-6" cx="30.561" cy="30.561" r="30.561" transform="translate(546.22 149.954)"/>
    <circle id="Ellipse_89" data-name="Ellipse 89" class="cls-13" cx="30.561" cy="30.561" r="30.561" transform="translate(546.22 149.248)"/>
    <path id="Path_610" data-name="Path 610" class="cls-6" d="M722.571,299.589,713.38,281.73S726.827,276.293,727.8,270s12.886,7.382,10.313,11.919S722.571,299.589,722.571,299.589Z" transform="translate(-126.857 -54.478)"/>
    <path id="Path_611" data-name="Path 611" class="cls-7" d="M722.571,298.119,713.38,280.26s13.447-5.437,14.424-11.735,12.886,7.391,10.313,11.919S722.571,298.119,722.571,298.119Z" transform="translate(-126.857 -54.43)"/>
    <path id="Path_612" data-name="Path 612" class="cls-15" d="M643.9,346.637l50.781,68.272s-18.72,10.187-44.5-8.049L639.04,393.586,607.25,340Z" transform="translate(-123.401 -56.81)"/>
    <path id="Path_613" data-name="Path 613" class="cls-13" d="M634.76,384.638l4.624-.126s28.249-27.417,35.186-13.544-17.6,26.837-17.6,26.837l-7.459,4.025-9.723,2.9-6.221-8.349Z" transform="translate(-124.258 -57.691)"/>
    <path id="Path_614" data-name="Path 614" class="cls-6" d="M641.365,399.944c.426,1.577.832,3.318.116,4.779a1.934,1.934,0,0,1-.842.919,2.158,2.158,0,0,1-.967.135,9.722,9.722,0,0,1-6.375-3.154,29.112,29.112,0,0,1-4.131-5.979c-1.258-2.2-2.564-4.624-2.119-7.12.5-2.718,2.9-4.6,5.253-6.134,4.683-3.1,4.837.513,5.863,4.5S640.291,395.919,641.365,399.944Z" transform="translate(-124.042 -58.185)"/>
    <path id="Path_615" data-name="Path 615" class="cls-7" d="M640.635,399.944c.416,1.577.832,3.318.116,4.779a1.935,1.935,0,0,1-.842.919,2.176,2.176,0,0,1-.967.135,9.674,9.674,0,0,1-6.375-3.154,28.785,28.785,0,0,1-4.141-5.979c-1.258-2.2-2.564-4.624-2.109-7.12.493-2.718,2.9-4.6,5.244-6.134,4.692-3.1,4.837.513,5.872,4.5S639.551,395.919,640.635,399.944Z" transform="translate(-124.019 -58.185)"/>
    <path id="Path_616" data-name="Path 616" class="cls-6" d="M623.85,317.806l2.361-4-2.061,7.42Z" transform="translate(-93.796 -36.473)"/>
    <path id="Path_617" data-name="Path 617" class="cls-6" d="M721.19,383.573l5.447,2.467,2.312-16.708-5.253-2.9C727.324,370.59,724.15,378.281,721.19,383.573Z" transform="translate(-127.111 -57.671)"/>
    <path id="Path_618" data-name="Path 618" class="cls-6" d="M742.947,363.975s-17.588,1.074-25.057-3.725" transform="translate(-127.004 -57.47)"/>
    <g id="Group_120" data-name="Group 120" class="cls-14" transform="translate(538.877 219.029)">
      <path id="Path_619" data-name="Path 619" d="M741.266,372.434a49.513,49.513,0,0,1,8.833-11.464,23.585,23.585,0,0,1,2.6-1.412l27.417-5.63,1.587-.348s.242-53.548-18.71-60.9a113.887,113.887,0,0,1-29.565-16.65l2.08-.639s11.367,9.945,30.329,17.288,18.71,60.9,18.71,60.9h-2.844l-28.056,5.369s-1.209,1.171-1.577,1.509a54.37,54.37,0,0,0-8.968,11.861,29.739,29.739,0,0,0-2.351,22.483h-2.9C735.51,386.316,737.929,378.47,741.266,372.434Z" transform="translate(-666.387 -273.736)"/>
      <path id="Path_620" data-name="Path 620" d="M664.13,277.994c.455-.068.89-.135,1.364-.184a49.052,49.052,0,0,0,5.8.474,52.764,52.764,0,0,1-7.169-.29Z" transform="translate(-664.13 -273.814)"/>
      <path id="Path_621" data-name="Path 621" d="M705.116,283.383,687.76,274.6a9.168,9.168,0,0,0,.967-.919l18.11,9.162Z" transform="translate(-664.899 -273.68)"/>
    </g>
    <path id="Path_622" data-name="Path 622" class="cls-7" d="M772.183,340l11.609,14.221,2.37,38.62s3.076,19.658-19.426,14.918-48.546-19.387-48.546-19.387,12.577-16.824,5.689-23.218L756.1,375.582s5.447-1.19,1.18-5.921-5.021-13.273-5.021-13.273Z" transform="translate(-127.013 -56.81)"/>
    <path id="Path_623" data-name="Path 623" class="cls-6" d="M779.42,382.17l6.395,7.343a9.219,9.219,0,0,1-6.395-7.343Z" transform="translate(-129.007 -58.183)"/>
    <path id="Path_624" data-name="Path 624" class="cls-6" d="M736.99,360.8l9.955,12.789-4.973,1.19Z" transform="translate(-97.48 -38.003)"/>
    <path id="Path_625" data-name="Path 625" class="cls-6" d="M665.563,217.22c-1.093-2.68-.252-5.8,1.064-8.33s3.125-4.915,4.112-7.633c1.461-4.044,1.016-8.62,2.612-12.577,2.815-7.014,10.816-10.148,17.985-12.577,2.119-.706,4.373-1.412,6.54-.89,2.9.687,4.789,3.318,7.159,5.089,9.732,7.256,25.56-.735,34.973,6.946,3.6,2.9,5.35,7.652,5.892,12.267s0,9.3-.058,13.95c-.155,8.146,1.374,17.056,7.469,22.454,1.838,1.625,4.005,2.844,5.8,4.528s3.212,4.034,2.9,6.472a22.445,22.445,0,0,1-.968,3.289c-1.209,4.247.6,8.707,2.806,12.577,6.579,11.387,18.178,20.771,31.326,21.032-.88,6.637-7.739,10.487-13.883,13.205-7.74,3.473-15.982,6.878-24.505,6.443s-17.414-5.892-18.9-14.289c-.513-2.9-.445-6.395-2.9-7.9-1.509-.919-3.464-.687-5.089-1.374-2.351-.967-3.512-3.609-4.286-6.037a54.34,54.34,0,0,1-2.525-15.479c-.106-6.23.716-13.031-2.815-18.159-3.27-4.75-9.075-7.159-12.848-11.522-3.483-4.044-7.266-8.92-12.973-9.674C686.557,217.917,670.226,228.645,665.563,217.22Z" transform="translate(-125.283 -51.438)"/>
    <path id="Path_626" data-name="Path 626" class="cls-9" d="M665.563,215.75c-1.093-2.68-.252-5.8,1.064-8.33s3.125-4.915,4.112-7.633c1.461-4.044,1.016-8.62,2.612-12.577,2.815-7.024,10.816-10.158,17.985-12.577,2.119-.706,4.373-1.412,6.54-.89,2.9.687,4.789,3.318,7.159,5.089,9.732,7.256,25.56-.735,34.973,6.946,3.6,2.9,5.35,7.652,5.892,12.277s0,9.287-.058,13.941c-.155,8.146,1.374,17.056,7.469,22.454,1.838,1.625,4.005,2.844,5.8,4.528s3.212,4.034,2.9,6.472a22.447,22.447,0,0,1-.968,3.289c-1.209,4.247.6,8.707,2.806,12.577,6.6,11.348,18.149,20.761,31.3,21.022-.88,6.637-7.739,10.487-13.883,13.215-7.74,3.463-15.982,6.869-24.505,6.433s-17.414-5.892-18.9-14.289c-.513-2.9-.445-6.395-2.9-7.9-1.509-.919-3.463-.687-5.089-1.374-2.351-.967-3.512-3.609-4.286-6.037a54.281,54.281,0,0,1-2.525-15.479c-.106-6.23.716-13.031-2.815-18.159-3.27-4.75-9.074-7.159-12.847-11.522-3.483-4.044-7.266-8.92-12.973-9.674C686.557,216.447,670.226,227.195,665.563,215.75Z" transform="translate(-125.283 -51.39)"/>
    <path id="Path_627" data-name="Path 627" class="cls-6" d="M687.8,297.4l17.52-14.221s-12-6.5-13.428-12.045-11.029,2.631-10.052,7.6S687.8,297.4,687.8,297.4Z" transform="translate(-125.827 -54.507)"/>
    <path id="Path_628" data-name="Path 628" class="cls-7" d="M688.509,295.194l17.52-14.212s-12-6.5-13.37-12.045-11.029,2.631-10.052,7.6S688.509,295.194,688.509,295.194Z" transform="translate(-125.852 -54.436)"/>
    <circle id="Ellipse_90" data-name="Ellipse 90" class="cls-6" cx="1.393" cy="1.393" r="1.393" transform="translate(579.471 237.053)"/>
    <circle id="Ellipse_91" data-name="Ellipse 91" class="cls-6" cx="1.393" cy="1.393" r="1.393" transform="translate(579.471 244.792)"/>
    <circle id="Ellipse_92" data-name="Ellipse 92" class="cls-6" cx="1.393" cy="1.393" r="1.393" transform="translate(579.471 252.522)"/>
    <g id="Group_121" data-name="Group 121" class="cls-14" transform="translate(539.997 132.705)">
      <path id="Path_629" data-name="Path 629" d="M672.829,196.349c1.383-3.8,1.084-8.068,2.38-11.9a13,13,0,0,0-1.48,2.728c-1.606,4-1.151,8.572-2.622,12.577l-.1.232A22.1,22.1,0,0,0,672.829,196.349Z" transform="translate(-665.474 -184.45)"/>
      <path id="Path_630" data-name="Path 630" d="M783.172,292.833c-7.739,3.463-15.982,6.869-24.505,6.433s-17.414-5.892-18.9-14.279c-.513-2.9-.445-6.4-2.9-7.914-1.509-.919-3.464-.687-5.089-1.374-2.351-.967-3.512-3.609-4.286-6.037a54.272,54.272,0,0,1-2.525-15.479c-.107-6.221.726-13.022-2.806-18.159-3.28-4.75-9.084-7.149-12.857-11.522-3.483-4.034-7.266-8.92-12.973-9.674-7.827-1.064-24.186,9.674-28.81-1.761a9,9,0,0,1,.3-6.608c-.339.571-.667,1.142-.967,1.722-1.316,2.573-2.148,5.66-1.054,8.339,4.653,11.416,20.984.687,28.81,1.761,5.708.774,9.491,5.659,12.973,9.674,3.773,4.373,9.578,6.772,12.848,11.532,3.541,5.127,2.709,11.928,2.815,18.149a54.272,54.272,0,0,0,2.525,15.479c.774,2.438,1.935,5.05,4.286,6.037,1.625.687,3.579.464,5.089,1.374,2.5,1.509,2.428,5.04,2.9,7.914,1.509,8.388,10.39,13.844,18.9,14.279s16.717-2.96,24.505-6.433c5.611-2.5,11.861-5.95,13.544-11.609C792.3,288.353,787.545,290.888,783.172,292.833Z" transform="translate(-665.288 -185.167)"/>
    </g>
    <path id="Path_631" data-name="Path 631" class="cls-16" d="M957.629,348.522c-20.481-11.783-28.22-14.686-28.259-14.686l-.426-.3a17.036,17.036,0,0,1-5.157-6.521,13.612,13.612,0,0,1,0-1.4.591.591,0,0,0,0,.135c.319-6.24,4.76-11.919,8.968-16.872l10.768-12.664a12.481,12.481,0,0,0,2.777-4.392,10.133,10.133,0,0,0,.29-2.7q0-.551,0-1.1c-.058-3.144-.145-6.3-.261-9.442-.1-2.748-.8-6.211-3.55-6.772-1.432-.29-3.328.223-4.083-.967a2.351,2.351,0,0,1-.184-1.635.565.565,0,0,0,0,.135v-.155a36.449,36.449,0,0,0,1.016-6.472,8.823,8.823,0,0,0-.445-3.28c-1.587-4.557-7.072-6.433-11.919-7.294s-10.284-1.6-13.322-5.389a39.413,39.413,0,0,0-2.651-3.647,10.458,10.458,0,0,0-4.953-2.448,28.055,28.055,0,0,0-18.023,1.567c-2.341,1.045-4.692,2.457-7.266,2.3s-4.953-2.012-7.585-2.457c-4.257-.726-8.33,2.4-10.429,6.1a14.929,14.929,0,0,0-1.935,7.2v.426h0a10.526,10.526,0,0,0,2.767,7.352c1.838,1.935,4.566,3.212,5.33,5.718.31,1.016.232,2.119.513,3.154a2.837,2.837,0,0,0,.116.377l-.135.184a31.925,31.925,0,0,0-6.772,19.678,32.66,32.66,0,0,0,22.947,30.958c0,.319,0,.638,0,.967,0,3.87-1.113,7.9-4.45,10.835L852.3,346.606s-17.491-2.08-23.8,23.48a43.588,43.588,0,0,0-1.083,12.964c.232,3.87-.3,10.642-4.837,19.416-7.169,14.047-5.534,46.292,9.133,49.484,13.844,3.018,19.262,1.761,19.832,1.616v.561c-.232,6.056-2.428,58.24-10.409,64.547-2.206,1.751-1.8,2.9,0,3.725,0,0,0,.339-.048.967-.242,3.87-1.47,18.381-6.772,26.624-6.2,9.578-5.553,64.818-5.553,64.818l-4.228,32.564s2.6,20.113,0,23.625c-2.331,3.125-5.427,77.53-6.076,93.667h-.271a7.856,7.856,0,0,0-6.269,3.87C808.5,774.1,796.5,784.38,796.5,784.38c-2.6,3.7-12.228,7.236-17.317,8.9a10.756,10.756,0,0,0-1.935.851,10.323,10.323,0,0,0-4.373,4.605,4.944,4.944,0,0,0-.464,3.87c1.3,3.183,28.356,5.427,35.205,2.225,5.379-2.506,26.7-5.8,35.553-7.1A7.294,7.294,0,0,0,849.5,791.4a4.171,4.171,0,0,0-.813-3.164c-1.693-2.1-2.554-7.836-2.9-11.609a7.846,7.846,0,0,0,1.993-1.18,84.989,84.989,0,0,1,4.837-34.16c6.52-17.24,8.475-49.165,6.849-69.917,0,0,19.881-85.56,35.534-93.541h0c.242.31,7.836,10.052,8.8,40.226.967,30.648,12.054,50.761,12.054,50.761s-4.9,52.038,0,71.513l-6.395,30.716c-.474-.4-.774-.706-.774-.706s.193.851.455,2.215l-.135.658.281.058c.726,3.87,1.8,10.535,1.354,14.512-.252,2.235-.88,5.3-1.306,8.31-.677,4.731-.861,9.316,1.625,10.322,4.083,1.645,28.056,3.87,32.119-1.393a7.537,7.537,0,0,0,1.18-7.885,7.977,7.977,0,0,0-1.18-2.012s-6.366-10.4-4.566-17.733a5.4,5.4,0,0,0-.764-4.208c.281-3.6,1.732-20.258,5.486-34.4,4.082-15.363,12.683-49.049,6.356-71.193h0q-.358-1.306-.813-2.554a95.618,95.618,0,0,1-3.589-37.353,76.132,76.132,0,0,1,0-32.564c3.918-17.878,6.656-35.437,6.656-35.437s2.157-23.625.271-38.107a9.466,9.466,0,0,0-.126-.967l1.026-.232s-5.543-24.583-7.5-40.226c-.464-3.7-1.064-8.368-1.722-13.36a34.092,34.092,0,0,0,5.311-1.325c17.6-6.066,23.141-60.948,23.141-60.948V387.1S978.167,360.334,957.629,348.522ZM826.483,772.491c-.542-.271-.861-.455-.861-.455h0Z" transform="translate(-128.773 -53.549)"/>
    <path id="Path_632" data-name="Path 632" class="cls-17" d="M948.6,674.458c7.633,21.951-1.277,57.582-5.418,73.525s-5.408,35-5.408,35c-16.224,2.544-28-.638-28-.638l6.685-32.767c-4.779-19.407,0-71.271,0-71.271s-10.816-20.045-11.774-50.587c-.968-30.058-8.349-39.781-8.581-40.081h0c-15.266,7.952-34.673,93.222-34.673,93.222,1.587,20.674-.329,52.493-6.685,69.655a86.1,86.1,0,0,0-4.77,34.034c-2.225,1.935-5.321,2.206-8.707,1.664-9.084-1.47-19.978-9.3-19.978-9.3s3.493-92.874,6.047-96.4,0-23.547,0-23.547l4.131-32.448s-.638-55.047,5.408-64.586c5.224-8.243,6.424-22.735,6.656-26.537v-.967l9.21-11.029s89.082-6.685,95.776,0c1.635,1.635,2.651,5.369,3.25,10.061,1.838,14.434-.271,37.972-.271,37.972s-2.67,17.5-6.491,35.311a77.512,77.512,0,0,0,0,32.457A97.161,97.161,0,0,0,948.6,674.458Z" transform="translate(-130.371 -62.621)"/>
    <path id="Path_633" data-name="Path 633" class="cls-12" d="M946,822.586c-3.976,5.253-27.359,3.028-31.345,1.393-2.428-.968-2.244-5.582-1.586-10.294.416-2.989,1.025-6.046,1.277-8.272.629-5.727-1.935-17.346-1.935-17.346s5.244,5.572,6.511,0c.561-2.438,2.515-3.686,4.547-4.315a11.88,11.88,0,0,1,8.262.513c4.131,1.8,11.019,5.621,9.79,10.787-1.751,7.3,4.45,17.675,4.45,17.675a8.052,8.052,0,0,1,1.161,1.993A7.633,7.633,0,0,1,946,822.586Z" transform="translate(-133.338 -71.244)"/>
    <path id="Path_634" data-name="Path 634" class="cls-6" d="M946.007,823.61c-3.976,5.253-27.359,3.028-31.345,1.393-2.428-.967-2.244-5.582-1.586-10.294,2.515,1.18,6.772,2.157,13.9,1.5a39.2,39.2,0,0,1,5-.155,116.334,116.334,0,0,0,15.189-.31A7.633,7.633,0,0,1,946.007,823.61Z" transform="translate(-133.346 -72.269)"/>
    <path id="Path_635" data-name="Path 635" class="cls-6" d="M862.1,682.945c1.587,20.674-.329,52.493-6.685,69.655a86.1,86.1,0,0,0-4.769,34.034c-2.225,1.935-5.321,2.206-8.707,1.664,1.935-13.418,10.1-71.232,15.334-116.914,5.969-52.019,33.86-87.8,33.86-87.8L896.7,589.7C881.508,597.676,862.1,682.945,862.1,682.945Z" transform="translate(-131.043 -64.742)"/>
    <path id="Path_636" data-name="Path 636" class="cls-18" d="M935.078,339.365l-3.87,19.088-19.029,31.974L888.718,380.4S856.793,347,876.867,342.229a17.761,17.761,0,0,0,6.656-2.96c3.938-2.97,5.176-7.285,5.2-11.512a35.294,35.294,0,0,0-3.231-13.68l41.039-12.886a65.874,65.874,0,0,0-2.9,16.621c-.319,11.184,3.87,16.688,7.246,19.349A12.327,12.327,0,0,0,935.078,339.365Z" transform="translate(-131.965 -55.546)"/>
    <path id="Path_637" data-name="Path 637" class="cls-6" d="M927,301.19a65.871,65.871,0,0,0-2.9,16.621,31.2,31.2,0,0,1-2.39,2.544,32.467,32.467,0,0,1-32.448,7.4,35.292,35.292,0,0,0-3.26-13.68Z" transform="translate(-132.478 -55.546)"/>
    <path id="Path_638" data-name="Path 638" class="cls-18" d="M931.065,294.668a32.3,32.3,0,1,1-9.463-22.989A32.457,32.457,0,0,1,931.065,294.668Z" transform="translate(-131.832 -54.277)"/>
    <path id="Path_639" data-name="Path 639" class="cls-6" d="M935.078,340.575l-3.87,19.088-19.029,31.974-23.46-10.023s-31.925-33.406-11.851-38.175a17.762,17.762,0,0,0,6.656-2.96c-3.618,9.945,11.319,30.639,11.319,30.639,1.741,2.564,5.727.967,5.727.967,9.626-1.461,27.34-29.139,30.232-33.744a12.326,12.326,0,0,0,4.276,2.235Z" transform="translate(-131.965 -56.756)"/>
    <path id="Path_640" data-name="Path 640" class="cls-6" d="M952.605,531.49c-5.65,1.287-36.908,8.2-48.759,6.472-13.041-1.935-38.4-3.173-38.4-3.173s-16.146.871-21.119-1.4v-.967l9.21-11.029s89.082-6.685,95.776,0C950.99,523.064,952.006,526.8,952.605,531.49Z" transform="translate(-131.121 -62.62)"/>
    <path id="Path_641" data-name="Path 641" class="cls-7" d="M893.244,372.085s-16.785-23.218-10.458-32.312L854.43,351.381s-17.066-2.07-23.218,23.4a44.314,44.314,0,0,0-1.054,12.925c.232,3.87-.29,10.642-4.673,19.349-6.994,14-5.408,46.137,8.91,49.339s19.4,1.587,19.4,1.587-1.935,58.22-10.178,64.905,21.09,5.089,21.09,5.089,25.357,1.277,38.407,3.183,49.629-6.685,49.629-6.685-5.408-24.5-7.323-40.081-6.376-48.788-6.376-48.788l32.448-43.96s5.727-26.566-14.318-38.339S929.59,338.65,929.59,338.65s-20.142,32.8-30.639,34.383C898.971,373.033,894.985,374.639,893.244,372.085Z" transform="translate(-130.376 -56.766)"/>
    <path id="Path_642" data-name="Path 642" class="cls-6" d="M857,382.74s-.31,10.506,1.6,14.637,8.91,27.088,8.91,27.088H851.59s8.591-9.229,7.962-13.689S857,382.74,857,382.74Z" transform="translate(-131.357 -58.202)"/>
    <path id="Path_643" data-name="Path 643" class="cls-18" d="M904.153,463.129s-35.137-8.591-38.407-15.9-12.3-23.693-12.3-23.693l3.705-4.992,17.085,13.409s20.316,16.224,29.913,17.82S904.153,463.129,904.153,463.129Z" transform="translate(-131.418 -59.368)"/>
    <path id="Path_644" data-name="Path 644" class="cls-19" d="M904.153,463.129s-35.137-8.591-38.407-15.9-12.3-23.693-12.3-23.693l3.705-4.992,17.085,13.409s20.316,16.224,29.913,17.82S904.153,463.129,904.153,463.129Z" transform="translate(-131.418 -59.368)"/>
    <path id="Path_645" data-name="Path 645" class="cls-18" d="M935.124,421.873v19.059h-3.057a89.089,89.089,0,0,0-43.279,11.211l-5.731,3.174-1.538.861-9.868-22.251,9.229-8.272h.474c2.254.223,12.016,1.035,16.156-.358,3.928-1.335,8.8-5.563,20.374-2.612,5.7,1.461,10.574,7.846,16.1,5.853Z" transform="translate(-132.011 -59.47)"/>
    <path id="Path_646" data-name="Path 646" class="cls-6" d="M966.668,385.272l6.356,7.159v17.346s-5.408,54.718-22.58,60.765-47.849-3.5-47.849-3.5-7.923-20.993-4.218-22.251,32.748-8.939,32.748-8.939-.406-32.1,5.95-41.648c0,0-4.131-29.9,10.187-30.542S966.668,385.272,966.668,385.272Z" transform="translate(-132.849 -57.58)"/>
    <path id="Path_647" data-name="Path 647" class="cls-7" d="M967.668,385.272l6.366,7.159v17.346s-5.408,54.718-22.59,60.765-47.849-3.5-47.849-3.5-7.923-20.993-4.208-22.251,32.748-8.939,32.748-8.939-.416-32.1,5.95-41.648c0,0-4.141-29.9,10.177-30.542S967.668,385.272,967.668,385.272Z" transform="translate(-132.882 -57.58)"/>
    <path id="Path_648" data-name="Path 648" class="cls-6" d="M922.388,308.44a12.789,12.789,0,0,0-.726-6.2c-.9-1.935-3-3.4-5.05-2.9-2.718.639-3.87,4.179-6.559,5.031-2.254.716-4.711-.88-5.8-2.98s-1.1-4.566-1.1-6.927v-7.972c0-2.9-.1-6.017-1.877-8.291-2.215-2.825-7.43-4.063-10.913-3.947a9.259,9.259,0,0,0-6.23,2.506c-1.858,1.587-4.015,2.748-6.55,2.332a5.64,5.64,0,0,1-4.566-3.947v-.1a32.448,32.448,0,1,1,48.236,43.07,87.466,87.466,0,0,0,1.141-9.674Z" transform="translate(-132.055 -54.274)"/>
    <path id="Path_649" data-name="Path 649" class="cls-20" d="M877.293,277.487a5.689,5.689,0,0,1-4.576-3.957c-.261-1.026-.193-2.119-.493-3.134-.745-2.506-3.415-3.8-5.2-5.708-3.58-3.8-3.347-10.052-.813-14.628,2.051-3.686,6.017-6.772,10.177-6.076,2.573.445,4.837,2.274,7.411,2.448s4.837-1.248,7.091-2.293a26.72,26.72,0,0,1,17.627-1.567,10.157,10.157,0,0,1,4.837,2.448,42.281,42.281,0,0,1,2.583,3.628c2.96,3.773,8.271,4.518,13,5.369s10.081,2.728,11.609,7.275c1.035,3.018,0,6.288-.561,9.423a2.844,2.844,0,0,0,.126,1.935c.745,1.219,2.593.706,3.986.967,2.68.571,3.367,4.025,3.473,6.772q.165,4.7.252,9.413a11.985,11.985,0,0,1-.281,3.483,12.3,12.3,0,0,1-2.7,4.382l-10.506,12.625c-4.663,5.592-9.607,12.112-8.707,19.349-2.206.967-4.837-.919-5.553-3.231s-.145-4.837.348-7.169A87.88,87.88,0,0,0,922.1,306.81a12.75,12.75,0,0,0-.726-6.192c-.9-1.935-3-3.4-5.05-2.9-2.728.639-3.87,4.179-6.559,5.031-2.254.716-4.711-.88-5.8-2.98s-1.1-4.557-1.1-6.917v-7.981c0-2.9-.1-6.017-1.877-8.291-2.215-2.825-7.43-4.063-10.913-3.947a9.259,9.259,0,0,0-6.221,2.506C881.985,276.732,879.828,277.9,877.293,277.487Z" transform="translate(-131.772 -53.611)"/>
    <path id="Path_650" data-name="Path 650" class="cls-6" d="M885.3,381.92l9.965,40.932S903.12,422.8,885.3,381.92Z" transform="translate(-132.455 -58.175)"/>
    <path id="Path_651" data-name="Path 651" class="cls-6" d="M920.183,374.85s-13.041,21.361-7.952,43.457l2.428.174S910.324,408.256,920.183,374.85Z" transform="translate(-133.294 -57.945)"/>
    <path id="Path_652" data-name="Path 652" class="cls-6" d="M929,499.782s16.021-5.3,17.182,6.995C946.22,506.776,943.2,498.35,929,499.782Z" transform="translate(-133.878 -61.976)"/>
    <path id="Path_653" data-name="Path 653" class="cls-6" d="M880.268,426.81s-3.183,22.251,2.544,31.181c0,0-11.609,4.769-28,3.821l-1.935-35Z" transform="translate(-131.399 -59.637)"/>
    <path id="Path_654" data-name="Path 654" class="cls-6" d="M883.056,455.452l-1.538.861-9.868-22.251,9.229-8.272h.474C881.208,426.893,878.635,446.019,883.056,455.452Z" transform="translate(-132.011 -59.604)"/>
    <path id="Path_655" data-name="Path 655" class="cls-7" d="M879.958,425.83S876.776,448.081,882.5,457c0,0-11.609,4.779-28,3.821L843.37,425.83Z" transform="translate(-131.09 -59.605)"/>
    <path id="Path_656" data-name="Path 656" class="cls-12" d="M850.211,809.014a7.207,7.207,0,0,1-6.182,6.308c-8.639,1.287-29.449,4.576-34.7,7.082-6.685,3.183-33.086.967-34.364-2.225a5.051,5.051,0,0,1,.455-3.87,10.2,10.2,0,0,1,4.266-4.586,11.32,11.32,0,0,1,1.935-.852c4.973-1.654,14.366-5.176,16.9-8.871,0,0,11.716-10.245,15.053-15.779a7.643,7.643,0,0,1,6.114-3.812c2.786-.126,5.892,1.277,7.169,7.382,0,0,15.256,8.707,19.349,1.074,0,0,.638,11.725,3.173,14.937h0A4.256,4.256,0,0,1,850.211,809.014Z" transform="translate(-128.856 -71.217)"/>
    <path id="Path_657" data-name="Path 657" class="cls-6" d="M850.211,809.8a7.207,7.207,0,0,1-6.182,6.308c-8.639,1.287-29.449,4.576-34.7,7.082-6.685,3.183-33.086.968-34.364-2.225a5.051,5.051,0,0,1,.455-3.87,10.2,10.2,0,0,1,4.266-4.586c4.305,2.9,13.863,5.65,34.886,2.37,20.055-3.134,29.99-6.2,34.828-8.291h0A4.256,4.256,0,0,1,850.211,809.8Z" transform="translate(-128.856 -72.004)"/>
    <g id="Group_122" data-name="Group 122" class="cls-14" transform="translate(732.514 203.183)">
      <path id="Path_658" data-name="Path 658" d="M942.477,271.9v-.155c.455-2.38,1.142-4.837.967-7.227a47.708,47.708,0,0,1-.967,5.8A3.522,3.522,0,0,0,942.477,271.9Z" transform="translate(-866.828 -257.535)"/>
      <path id="Path_659" data-name="Path 659" d="M921.369,301.444a9.2,9.2,0,0,1,.784,3.638,10.971,10.971,0,0,0-.784-5.069c-.89-1.935-2.99-3.4-5.04-2.9-2.728.638-3.87,4.179-6.569,5.031-2.245.716-4.7-.88-5.8-2.98s-1.1-4.566-1.1-6.927v-7.972c0-2.9-.1-6.017-1.877-8.291-2.225-2.835-7.43-4.063-10.913-3.957a9.269,9.269,0,0,0-6.23,2.515c-1.867,1.587-4.015,2.748-6.559,2.332a5.669,5.669,0,0,1-4.566-3.947c-.261-1.026-.193-2.128-.493-3.144-.745-2.5-3.415-3.8-5.2-5.7a10.418,10.418,0,0,1-2.68-6.772,10.845,10.845,0,0,0,2.68,8.155c1.79,1.935,4.46,3.2,5.2,5.7.3.967.232,2.119.493,3.144a5.669,5.669,0,0,0,4.566,3.947c2.544.416,4.692-.745,6.559-2.332a9.268,9.268,0,0,1,6.23-2.515c3.483-.106,8.707,1.122,10.913,3.957,1.78,2.273,1.867,5.4,1.877,8.291v7.972c0,2.361,0,4.837,1.1,6.917s3.531,3.705,5.8,2.989c2.67-.851,3.87-4.392,6.569-5.031C918.379,298.048,920.478,299.577,921.369,301.444Z" transform="translate(-864.285 -257.3)"/>
      <path id="Path_660" data-name="Path 660" d="M949.581,293.811a12.228,12.228,0,0,1-2.709,4.373l-10.506,12.625c-4.421,5.311-9.094,11.464-8.707,18.246.319-6.221,4.653-11.88,8.707-16.814l10.506-12.625a12.229,12.229,0,0,0,2.709-4.373,12.074,12.074,0,0,0,.281-3.492,9.189,9.189,0,0,1-.281,2.061Z" transform="translate(-866.348 -258.422)"/>
      <path id="Path_661" data-name="Path 661" d="M921.988,328.053a7.442,7.442,0,0,1-.319-1.7,8.58,8.58,0,0,0,.319,3.134c.716,2.3,3.338,4.208,5.553,3.222a13.608,13.608,0,0,1-.116-1.393C925.219,332.193,922.665,330.316,921.988,328.053Z" transform="translate(-866.153 -259.549)"/>
    </g>
    <path id="Path_662" data-name="Path 662" class="cls-6" d="M812.69,789.36s3.328,5.8,15.382.7" transform="translate(-130.091 -71.443)"/>
    <path id="Path_663" data-name="Path 663" class="cls-6" d="M918,790.82s10.39,12.238,23.489,4.015" transform="translate(-133.52 -71.491)"/>
    <path id="Path_664" data-name="Path 664" class="cls-6" d="M949,641.23s-7.343,4.586-7.575,7.207,3.792-1.935,3.792-1.935Z" transform="translate(-134.283 -66.62)"/>
    <path id="Path_665" data-name="Path 665" class="cls-6" d="M951.816,677.59a15.353,15.353,0,0,1-9.045,3.531c-5.5.242-5.031,7.4-1.442,5.253S951.816,677.59,951.816,677.59Z" transform="translate(-134.192 -67.804)"/>
    <path id="Path_666" data-name="Path 666" class="cls-6" d="M953.485,682.34s-3.521,17.307-6.385,13.97" transform="translate(-134.468 -67.958)"/>
    <path id="Path_714" data-name="Path 714" class="cls-6" d="M364.68,772.54" transform="translate(-115.502 -70.896)"/>
    <ellipse id="Ellipse_102" data-name="Ellipse 102" class="cls-1" cx="26.053" cy="4.402" rx="26.053" ry="4.402" transform="translate(896.76 698.907)"/>
    <path id="Path_768" data-name="Path 768" class="cls-21" d="M1042.91,752.84s14.86-.455,19.349-3.647,22.851-6.995,23.963-1.877,22.338,25.434,5.553,25.569-38.978-2.612-43.448-5.34S1042.91,752.84,1042.91,752.84Z" transform="translate(-137.588 -69.993)"/>
    <path id="Path_769" data-name="Path 769" class="cls-22" d="M1092.065,771.385c-16.775.135-38.978-2.612-43.448-5.34-3.405-2.07-4.76-9.51-5.214-12.944h-.493s.967,11.987,5.408,14.705,26.672,5.476,43.448,5.34c4.837,0,6.521-1.761,6.424-4.315C1097.522,770.417,1095.674,771.385,1092.065,771.385Z" transform="translate(-137.588 -70.263)"/>
  </g>
</svg>
